<?xml version="1.0" encoding="UTF-8" standalone="no"?>
<!-- Created with Inkscape (http://www.inkscape.org/) -->

<svg
   xmlns:dc="http://purl.org/dc/elements/1.1/"
   xmlns:cc="http://creativecommons.org/ns#"
   xmlns:rdf="http://www.w3.org/1999/02/22-rdf-syntax-ns#"
   xmlns:svg="http://www.w3.org/2000/svg"
   xmlns="http://www.w3.org/2000/svg"
   xmlns:sodipodi="http://sodipodi.sourceforge.net/DTD/sodipodi-0.dtd"
   xmlns:inkscape="http://www.inkscape.org/namespaces/inkscape"
   width="1000"
   height="1000"
   id="svg3391"
   version="1.1"
   inkscape:version="0.48.2 r9819"
   sodipodi:docname="SingleSkyStudios logo.svg">
  <defs
     id="defs3393">
    <filter
       id="filter4505"
       inkscape:label="Evanescent"
       inkscape:menu="Blurs"
       inkscape:menu-tooltip="Blur the contents of objects, preserving the outline and adding progressive transparency at edges"
       color-interpolation-filters="sRGB">
      <feGaussianBlur
         id="feGaussianBlur4507"
         result="result6"
         stdDeviation="3"
         in="SourceGraphic" />
      <feColorMatrix
         id="feColorMatrix4509"
         values="1 0 0 0 0 0 1 0 0 0 0 0 1 0 0 0 0 0 1 0 "
         result="result7"
         in="SourceGraphic" />
      <feComposite
         id="feComposite4511"
         in2="result7"
         operator="in"
         in="result6" />
    </filter>
  </defs>
  <sodipodi:namedview
     id="base"
     pagecolor="#ffffff"
     bordercolor="#666666"
     borderopacity="1.0"
     inkscape:pageopacity="0.0"
     inkscape:pageshadow="2"
     inkscape:zoom="0.69523438"
     inkscape:cx="504.75769"
     inkscape:cy="436.8683"
     inkscape:document-units="px"
     inkscape:current-layer="layer1"
     showgrid="false"
     inkscape:window-width="790"
     inkscape:window-height="1012"
     inkscape:window-x="874"
     inkscape:window-y="0"
     inkscape:window-maximized="1" />
  <metadata
     id="metadata3396">
    <rdf:RDF>
      <cc:Work
         rdf:about="">
        <dc:format>image/svg+xml</dc:format>
        <dc:type
           rdf:resource="http://purl.org/dc/dcmitype/StillImage" />
      </cc:Work>
    </rdf:RDF>
  </metadata>
  <g
     inkscape:label="Layer 1"
     inkscape:groupmode="layer"
     id="layer1"
     transform="translate(0,-52.36218)">
    <flowRoot
       xml:space="preserve"
       id="flowRoot3401"
       style="font-size:18px;font-style:normal;font-weight:normal;line-height:125%;letter-spacing:0px;word-spacing:0px;fill:#ffccaa;fill-opacity:1;stroke:none;font-family:Bauhaus 93;-inkscape-font-specification:Bauhaus 93"
       transform="translate(184.899,103.81542)"><flowRegion
         id="flowRegion3403"><rect
           id="rect3405"
           width="748.57141"
           height="180"
           x="131.42857"
           y="694.28571"
           style="fill:#ffccaa" /></flowRegion><flowPara
         id="flowPara3407"
         style="font-size:52px;fill:#a2c7ff;fill-opacity:1">SingleSkyStudios</flowPara></flowRoot>    <path
       style="fill:#000000;filter:url(#filter4505)"
       d="m 510.51207,978.90823 c -1.57073,-33.50625 -5.88453,-46.28882 -15.86908,-47.02274 -13.4558,-0.98908 -32.26032,-5.05651 -42.77352,-9.25195 l -10.17692,-4.06123 0,13.35481 c 0,7.34515 -1.41387,19.07612 -3.14195,26.06887 -3.44522,13.94134 -7.09686,17.68644 -4.4031,4.5158 0.92222,-4.50903 1.69743,-17.13362 1.7227,-28.05464 l 0.046,-19.85638 -7.64579,-6.97632 -7.64579,-6.97631 -7.27661,7.23374 c -12.27884,12.2065 -35.92722,27.74746 -38.2352,25.12696 -0.90047,-1.02241 5.75144,-6.16014 18.94547,-14.63293 14.31002,-9.18945 24.6343,-21.95505 21.85319,-27.0207 -1.45354,-2.64749 -3.15232,-7.32325 -3.77508,-10.39058 -1.1089,-5.46157 -1.49235,-5.57922 -18.53494,-5.68749 -13.36329,-0.0848 -18.21673,-0.94703 -20.90992,-3.71438 -5.69323,-5.84998 -9.07072,-4.30295 -19.57638,8.96678 -9.90202,12.50725 -7.93213,5.96835 2.32805,-7.72776 6.15792,-8.22009 7.03763,-12.68715 2.01008,-10.20694 -36.46823,17.99054 -75.07353,7.28249 -76.32757,-21.17116 -0.3559,-8.07377 -2.07804,-8.81005 -28.12929,-12.02658 -19.42363,-2.39821 -24.13682,-22.65158 -5.27129,-22.65158 1.92459,0 6.85104,-1.94151 10.94771,-4.31447 4.09667,-2.37298 11.03096,-4.9649 15.40956,-5.75989 6.5874,-1.196 8.40195,-2.64348 10.51623,-8.38884 11.20327,-30.44388 58.82449,-40.74422 96.01502,-20.76776 14.90325,8.00512 18.26798,8.07399 20.81992,0.42603 11.38373,-34.11606 72.84217,-38.63726 96.61203,-7.1073 5.49812,7.29308 6.86468,8.1918 7.59426,4.99434 1.52771,-6.69523 -3.70707,-58.05759 -6.97039,-68.39179 -1.70863,-5.41082 -5.25005,-20.91559 -7.86982,-34.45505 -2.6198,-13.53945 -6.41176,-28.29625 -8.42663,-32.79289 -4.90221,-10.94052 -10.46345,-42.77708 -8.89165,-50.90242 1.86247,-9.62798 -26.13349,-46.39353 -37.91229,-49.78814 -8.0032,-2.30651 -15.04582,0.0525 -15.06534,5.04645 -0.004,1.21378 -3.25399,2.38951 -7.22052,2.61277 -7.90148,0.44474 -7.15008,-0.75256 5.45798,-8.69696 l 6.21906,-3.91864 -5.75267,-7.01233 c -3.16396,-3.85678 -9.10426,-11.93124 -13.20068,-17.94327 l -7.44801,-10.93097 7.68834,8.19823 c 4.22859,4.50901 8.69406,8.19823 9.92326,8.19823 1.2292,0 4.95591,3.84439 8.28159,8.5431 3.32565,4.69869 7.91541,9.09366 10.19945,9.76657 2.49989,0.73651 -2.79176,-6.36198 -13.29486,-17.8344 -22.93359,-25.05018 -32.31407,-33.26818 -37.97417,-33.26818 -2.56072,0 -7.31232,-1.05145 -10.55913,-2.33654 -4.64541,-1.8387 -7.14792,-1.60577 -11.74454,1.09311 -6.66525,3.91343 -7.95795,4.17243 -7.95795,1.59434 0,-1.00939 2.30292,-3.02664 5.11761,-4.48276 l 5.1176,-2.64745 -7.52444,-5.69214 c -9.6148,-7.27348 -9.33371,-6.97186 -7.95552,-8.53669 0.64544,-0.73281 5.01231,1.60921 9.70418,5.20447 9.91844,7.60027 21.4202,12.3683 25.52329,10.58062 3.72126,-1.62137 -3.4791,-18.82508 -7.87893,-18.82508 -3.23986,0 -3.88347,-3.61654 -0.84808,-4.76534 1.29866,-0.4915 0.97217,-4.06821 -0.9301,-10.18989 -4.16698,-13.40972 0.4156,-10.64835 5.02783,3.02968 5.25731,15.59099 9.62433,25.21266 14.83914,32.69438 8.33544,11.9589 9.79387,10.14492 3.71056,-4.61511 -4.76366,-11.5581 -6.12102,-18.0159 -6.5607,-31.21337 l -0.55438,-16.64016 1.73587,13.96608 c 3.24014,26.06868 15.0986,49.71047 35.75143,71.27647 20.57375,21.48338 19.14826,20.75458 21.92298,11.2086 1.18193,-4.06617 6.03678,-12.06623 10.78857,-17.77795 5.95305,-7.15561 8.29614,-11.61357 7.53508,-14.33615 -0.60749,-2.1732 -1.46423,-12.12725 -1.90385,-22.1201 -0.43962,-9.99286 -2.10136,-23.05039 -3.69273,-29.01677 -2.01591,-7.55811 -2.26495,-11.28894 -0.82121,-12.30204 1.47476,-1.03488 1.42674,-6.9609 -0.16655,-20.55501 -1.2313,-10.50551 -1.78045,-19.62126 -1.22033,-20.25722 1.48718,-1.68854 2.47901,2.86919 4.85069,22.29043 2.31116,18.92565 3.19653,21.3255 6.07517,16.46726 1.30512,-2.20265 1.52033,0.61101 0.68298,8.9294 -1.32628,13.17564 1.11069,27.01041 5.95952,33.83223 5.49389,7.72937 2.31815,-37.36943 -3.57538,-50.77401 -2.54074,-5.77883 -6.53091,-18.66259 -8.86705,-28.6306 -2.33613,-9.96802 -6.36179,-24.50133 -8.94589,-32.29627 -2.58409,-7.79494 -4.69836,-15.2979 -4.69836,-16.67327 0,-4.16089 2.70269,0.24517 6.06473,9.88704 l 3.17653,9.10988 1.3166,-6.55858 c 2.03511,-10.13771 2.9292,-12.74284 3.96843,-11.5629 0.52654,0.59786 -0.0115,6.21491 -1.19508,12.48234 -2.12888,11.27078 1.41035,30.20889 10.18955,54.52341 4.48075,12.40967 10.19333,-38.73536 6.75998,-60.52266 -0.81923,-5.19873 -0.749,-8.93261 0.15597,-8.29752 2.85171,2.00111 6.70724,30.81661 5.32433,39.79319 -2.73895,17.77884 -3.28432,48.50547 -1.14146,64.31117 1.22262,9.01805 2.71476,24.12801 3.31589,33.57768 l 1.09298,17.18124 6.28573,-1.15817 c 3.45715,-0.637 9.94111,-4.16465 14.4088,-7.83925 4.46769,-3.67462 11.10536,-7.31635 14.75038,-8.09276 4.67413,-0.99559 6.31602,-2.33258 5.57113,-4.53657 -0.58087,-1.71873 -0.25572,-2.56327 0.72256,-1.87679 0.97827,0.68648 2.12937,-1.96782 2.558,-5.8985 l 0.77937,-7.14663 0.30814,7.10514 c 0.36043,8.31029 1.70801,8.61375 11.93768,2.6883 10.45957,-6.05859 9.61835,-3.6523 -1.25174,3.58056 -10.02029,6.66746 -10.67816,12.28267 -3.55575,30.34987 l 3.44736,8.74478 1.46269,-14.96021 c 2.10742,-21.55468 3.40003,-20.23472 3.21807,3.28616 -0.13189,17.05707 0.54998,21.98672 4.14204,29.94193 5.28884,11.71307 9.70298,34.5434 9.78272,50.59721 0.12072,24.29279 2.40452,26.5339 10.59723,10.39892 3.17702,-6.25694 9.32806,-15.82935 13.66897,-21.27201 18.29234,-22.93505 25.22609,-43.91362 26.78139,-81.02911 1.12288,-26.79592 3.90284,-44.94163 7.24435,-47.28645 1.37571,-0.96535 1.5338,-0.056 0.47625,2.73949 -0.87064,2.30145 -1.98722,17.31676 -2.48128,33.36735 -1.02691,33.36168 -1.84716,32.5309 15.78495,15.98765 9.74541,-9.14358 27.71925,-21.14467 29.18151,-19.4844 0.47398,0.53817 -3.91038,4.57603 -9.74299,8.97306 -24.48808,18.46077 -36.61916,31.29003 -38.96019,41.20244 -1.221,5.16994 -2.8046,11.12153 -3.51914,13.22574 -2.01252,5.92664 4.67388,4.8245 14.75085,-2.43146 4.77954,-3.44153 12.09749,-7.51924 16.26211,-9.0616 4.16462,-1.54233 8.20862,-3.89142 8.98667,-5.22019 0.98378,-1.68017 1.42359,-1.58365 1.4441,0.3168 0.0173,1.55038 2.73698,2.87447 6.28726,3.0603 l 6.25778,0.32755 -5.77641,0.89804 c -8.42467,1.30971 -20.7326,5.14923 -19.8217,6.1835 3.94937,4.48416 31.43148,-3.58869 38.63,-11.34752 l 7.80565,-8.41319 -5.58535,9.07644 c -3.07193,4.99204 -8.48437,10.84907 -12.02764,13.01562 -9.24529,5.65309 -32.18155,32.54205 -36.801,43.14303 l -3.92893,9.01631 4.21911,1.77209 c 9.56659,4.01812 27.23821,0.95467 28.68241,-4.97221 l 1.33179,-5.46548 0.19197,5.75706 c 0.24455,7.33553 3.45248,8.32231 28.11126,8.64713 15.55886,0.20484 17.96115,0.63769 12.51555,2.2545 -3.70653,1.1005 -13.67084,1.42114 -22.14291,0.71256 -14.13145,-1.18195 -15.08569,-1.01028 -11.55282,2.0782 4.48881,3.92414 2.49601,4.59112 -3.26258,1.09189 -2.18467,-1.32752 -12.30506,-3.22428 -22.48976,-4.21504 l -18.51762,-1.80139 -7.70982,6.47992 c -4.2404,3.56396 -16.80766,13.21369 -27.92725,21.44381 -11.1196,8.23012 -22.87199,18.77044 -26.11645,23.4229 -6.94502,9.95896 -27.79677,53.60335 -27.79677,58.18079 0,1.73929 -1.82511,5.03641 -4.05583,7.32698 -8.86186,9.09967 -11.02451,17.93222 -9.31672,38.05065 0.86758,10.22047 1.63194,21.84696 1.69858,25.83664 l 0.12111,7.25401 5.5762,-4.50825 c 20.50678,-16.57935 55.31298,-12.79679 71.23548,7.74149 5.61315,7.24036 8.8182,9.58619 13.09734,9.58619 3.11607,0 10.07389,1.4864 15.46186,3.30312 7.56371,2.55032 11.04417,2.75375 15.27187,0.89256 19.36754,-8.5263 46.3083,-6.33559 67.09064,5.45552 10.09135,5.72548 15.74526,7.58465 22.49968,7.39859 22.9239,-0.63143 26.60865,23.193 4.32131,27.94029 -4.4264,0.94284 -6.87762,3.27076 -9.15594,8.69535 -5.93903,14.14068 -24.34474,25.14023 -47.50985,28.39263 -18.4168,2.58576 -20.61551,9.01139 -5.12868,14.98832 6.53327,2.52143 14.07101,7.9326 20.69881,14.8592 8.22449,8.59531 8.79876,9.56161 2.72184,4.57992 -4.23603,-3.47257 -10.24864,-8.1326 -13.36134,-10.35561 -6.78241,-4.84379 -29.62261,-7.28328 -34.99847,-3.73807 -2.92959,1.93197 -1.21882,2.47879 8.88766,2.84092 10.41098,0.37301 11.05856,0.59122 3.85094,1.29759 -4.76553,0.46704 -9.42566,1.70035 -10.35581,2.74066 -0.95326,1.06616 -3.13442,0.86816 -4.99875,-0.45381 -2.34783,-1.66477 -7.44414,-1.67213 -17.56351,-0.0254 -7.84077,1.27595 -18.99594,1.76396 -24.78928,1.08439 l -10.53333,-1.23552 3.00191,5.13329 c 3.44081,5.88385 35.42623,24.89834 59.29862,35.25147 8.91152,3.8648 15.13505,7.43102 13.83006,7.92491 -3.61315,1.36747 -29.97858,-9.86882 -48.32479,-20.59482 -17.89261,-10.46077 -20.23779,-11.14561 -21.84835,-6.38029 -1.7862,5.28504 0.79293,40.92566 3.71109,51.28296 3.49329,12.3986 2.40388,13.46152 -3.21573,3.13761 -3.64724,-6.70044 -4.85083,-13.41491 -6.58466,-36.73372 -2.34074,-31.4814 -5.18472,-40.60013 -14.33885,-45.97489 l -5.62738,-3.30407 -5.41148,11.40077 c -3.07072,6.4693 -8.88855,14.26565 -13.44985,18.02389 -11.93324,9.83218 -11.95519,11.73502 -0.26976,23.3783 10.84639,10.80725 11.83516,17.45081 1.12946,7.58894 -20.63513,-19.0087 -18.27248,-17.76417 -28.07361,-14.7878 -11.18981,3.39806 -10.69951,2.57477 -7.88515,13.24018 1.53918,5.83295 4.08317,9.9568 7.21179,11.69035 6.32333,3.50376 8.22026,9.28907 2.48767,7.58695 -4.99151,-1.48203 -4.98752,-1.72734 -0.25774,15.8603 4.29757,15.98051 4.67314,19.67581 1.99968,19.67581 -1.01819,0 -2.78348,-4.1812 -3.92288,-9.2914 -7.20201,-32.30119 -14.97306,-54.10829 -19.28168,-54.10829 -5.39996,0 -5.8647,2.56816 -2.60285,14.38359 2.98303,10.80548 5.05578,57.76091 2.54974,57.76091 -0.71203,0 -1.76733,-10.08391 -2.34508,-22.40861 z m 9.72264,-57.29153 c 30.15264,-7.20164 50.46437,-25.48325 50.46437,-45.42047 0,-8.77443 3.31428,-10.96062 7.64154,-5.04055 14.50784,19.84791 68.08195,16.52588 85.4475,-5.29847 5.83454,-7.33262 7.69316,-8.27046 18.78943,-9.48108 24.37586,-2.65942 42.63495,-14.61969 45.28478,-29.66295 1.09016,-6.18888 1.89179,-6.85051 8.29989,-6.85051 3.90126,0 8.6527,-1.29475 10.55879,-2.87724 8.66288,-7.19219 -3.1189,-17.87964 -14.38683,-13.05054 -5.16331,2.21281 -6.72402,1.71113 -15.4733,-4.97397 -17.32696,-13.23907 -45.61338,-17.07012 -66.45199,-9.00014 -8.01037,3.10209 -10.85486,3.33121 -15.40377,1.24081 -3.06856,-1.41015 -11.63542,-3.16262 -19.03749,-3.8944 -11.45347,-1.13231 -13.56088,-1.98185 -14.1469,-5.7029 -5.00079,-31.75439 -63.74101,-29.56945 -76.63442,2.85057 -0.14537,0.36537 -3.17793,-1.35256 -6.73915,-3.81768 -3.56121,-2.46512 -9.70766,-4.48571 -13.65877,-4.4902 -6.0458,-0.007 -7.3744,-0.87024 -8.38677,-5.45006 -7.63368,-34.53341 -84.4352,-31.85054 -90.60312,3.16499 -1.56556,8.88774 -11.8511,8.06507 -30.82197,-2.46517 -33.13109,-18.39024 -85.39616,-3.2433 -85.39616,24.74869 l 0,7.63896 -12.36,-0.15916 c -10.08793,-0.12987 -13.18497,0.70389 -16.84787,4.53546 -2.46832,2.58199 -6.93562,4.67254 -9.92732,4.64565 -2.9917,-0.0269 -6.45755,1.12409 -7.70188,2.55775 -3.21616,3.7055 4.03563,9.46516 9.83894,7.81446 2.41972,-0.68825 8.34008,0.26767 13.15636,2.12424 9.66622,3.72615 21.306,1.75622 25.77872,-4.3628 2.53524,-3.46832 7.6904,-4.46473 7.6904,-1.48633 0,0.97744 -2.59938,4.60475 -5.77641,8.06069 -24.85388,27.03578 36.06301,54.67602 61.92797,28.09899 3.12968,-3.21582 3.8519,-3.04656 9.32912,2.18625 8.0883,7.72743 19.35462,11.09081 36.76799,10.97647 l 14.63978,-0.0963 2.43514,10.78799 c 7.55414,33.46587 55.26736,53.23958 101.7034,42.14878 z m 148.66337,-43.58601 c 0,-0.47256 -1.29969,-1.42546 -2.8882,-2.11758 -1.58852,-0.69211 -2.88821,-0.30546 -2.88821,0.8592 0,1.16467 1.29969,2.11759 2.88821,2.11759 1.58851,0 2.8882,-0.38666 2.8882,-0.85921 z M 544.65703,642.17403 c 14.91911,-31.87541 16.49208,-36.35035 15.54028,-44.20998 -0.58245,-4.80962 -1.76234,-22.02589 -2.62195,-38.25837 -1.5603,-29.46387 -1.57896,-29.55089 -11.06747,-51.62541 l -9.50454,-22.11181 -13.94792,-1.36075 c -10.03865,-0.9794 -15.70512,-0.49454 -20.21744,1.72991 -3.44823,1.69987 -7.77552,3.61903 -9.61617,4.26478 -5.49847,1.929 -3.74922,93.88262 2.2503,118.29263 2.36423,9.61925 6.71519,28.3112 9.66881,41.53766 2.95359,13.22648 6.77792,27.84636 8.49849,32.48861 l 3.12829,8.4405 5.64502,-6.8613 c 3.10476,-3.77371 13.1147,-22.82062 22.2443,-42.32647 z m 60.67878,-51.93464 c 12.91163,-7.58546 19.85942,-15.07353 24.85292,-26.7855 2.40576,-5.64253 10.87161,-17.12554 19.6315,-26.62791 l 15.40167,-16.70714 -7.30789,1.42611 c -31.78604,6.20289 -48.36994,13.69283 -53.34575,24.09303 -2.26358,4.7312 -6.99384,13.02925 -10.51172,18.44007 -5.64165,8.67741 -21.43199,41.68442 -21.43199,44.79992 0,0.64519 5.2389,-2.03838 11.64199,-5.96349 6.4031,-3.92514 15.88427,-9.62892 21.06927,-12.67509 z m -130.93974,-53.8771 c 0.0291,-11.14966 -3.49182,-44.76316 -4.85186,-46.32049 -1.0004,-1.14555 -10.13818,10.73651 -13.22388,17.19524 -6.73401,14.09513 -6.05584,18.79187 4.76028,32.96768 11.40199,14.94364 13.26792,14.40518 13.31546,-3.84243 z m 5.13845,-53.72394 c -4.82404,-17.72626 -7.11519,1.55719 -2.71509,22.85143 l 2.39386,11.58512 0.97922,-14.21025 c 0.53857,-7.81565 0.24247,-16.91749 -0.65799,-20.2263 z m 56.47661,-4.36837 c -0.057,-9.51601 -2.41835,-10.98646 -11.22079,-6.98749 -8.92806,4.056 -10.16811,6.92651 -3.67213,8.50035 9.59768,2.32533 12.09695,2.90989 13.4783,3.15248 0.79425,0.13947 1.43083,-1.95994 1.41462,-4.66534 z m -63.58566,-14.91509 c -2.97212,-6.30544 -4.42816,-3.81578 -2.77285,4.74128 1.12201,5.80017 1.6926,6.4272 3.15282,3.46457 1.14211,-2.31714 1.00554,-5.26646 -0.37997,-8.20585 z m 9.70196,2.34447 c 0,-1.2024 -0.9176,-2.18619 -2.03911,-2.18619 -1.12151,0 -1.5036,0.98379 -0.84909,2.18619 0.6545,1.20241 1.5721,2.18619 2.03911,2.18619 0.467,0 0.84909,-0.98378 0.84909,-2.18619 z"
       id="path4290"
       inkscape:connector-curvature="0" />
    <path
       style="fill:#000000"
       d="m 687.8726,618.44867 c -5.55716,-7.93396 -3.19052,-28.91813 3.26147,-28.91813 8.8576,0 11.60643,19.46778 3.99781,28.31335 l -4.23465,4.92306 -3.02463,-4.31828 z m 0.60501,-33.34808 c 0,-1.55613 0.81667,-2.82934 1.81482,-2.82934 0.99815,0 1.81482,0.76847 1.81482,1.70771 0,0.93924 -0.81667,2.21245 -1.81482,2.82935 -0.99815,0.61688 -1.81482,-0.15154 -1.81482,-1.70772 z"
       id="path4303"
       inkscape:connector-curvature="0" />
    <g
       transform="translate(184.899,103.81542)"
       style="font-size:18px;font-style:normal;font-weight:normal;line-height:125%;letter-spacing:0px;word-spacing:0px;fill:#a2c7ff;fill-opacity:1;stroke:none;font-family:Bauhaus 93;-inkscape-font-specification:Bauhaus 93"
       id="flowRoot4356">
      <path
         d="m 151.19141,699.49748 0,9.87695 c -0.74481,-0.25388 -1.32033,-0.38083 -1.72657,-0.38086 -0.77866,3e-5 -1.44728,0.28779 -2.00586,0.86328 -0.5586,0.57555 -0.8379,1.26956 -0.83789,2.08203 -1e-5,0.69404 0.30468,1.57424 0.91407,2.64063 l 0.78711,1.37109 c 1.42185,2.47137 2.13279,4.85809 2.13281,7.16016 -2e-5,3.3685 -1.19761,6.22071 -3.59278,8.55664 -2.39519,2.33594 -5.31934,3.5039 -8.77246,3.50391 -1.65886,-10e-6 -3.30078,-0.38086 -4.92578,-1.14258 l 0,-10.0293 c 0.98177,0.62631 1.85351,0.93946 2.61524,0.93945 0.89713,10e-6 1.64615,-0.25813 2.24707,-0.77441 0.6009,-0.51627 0.90136,-1.16373 0.90136,-1.94238 0,-0.5078 -0.48242,-1.61653 -1.44726,-3.32618 -1.54037,-2.70831 -2.31055,-5.41664 -2.31055,-8.125 0,-3.2669 1.16373,-6.08102 3.49121,-8.44238 2.32747,-2.36129 5.10774,-3.54196 8.34082,-3.54199 1.42186,3e-5 2.81834,0.23701 4.18946,0.71094 z"
         style="font-size:52px;fill:#a2c7ff"
         id="path4454" />
      <path
         d="m 165.23242,708.99357 0,25.31445 -9.49609,0 0,-25.31445 z m -4.72265,-11.29883 c 1.28645,4e-5 2.3994,0.45284 3.33886,1.3584 0.93944,0.90563 1.40917,1.97627 1.40918,3.21192 -1e-5,1.32034 -0.44435,2.40367 -1.33301,3.25 -0.88868,0.84638 -2.02702,1.26955 -3.41503,1.26953 -1.38803,2e-5 -2.52638,-0.42315 -3.41504,-1.26953 -0.88868,-0.84633 -1.33301,-1.92966 -1.33301,-3.25 0,-1.23565 0.46972,-2.30629 1.40918,-3.21192 0.93945,-0.90556 2.0524,-1.35836 3.33887,-1.3584 z"
         style="font-size:52px;fill:#a2c7ff"
         id="path4456" />
      <path
         d="m 193.44141,734.30802 -9.4961,0 0,-14.29492 c -1e-5,-1.45571 -0.60092,-2.18358 -1.80273,-2.18359 -1.18491,10e-6 -1.77736,0.72788 -1.77735,2.18359 l 0,14.29492 -9.49609,0 0,-14.11718 c 0,-3.30077 1.09179,-6.08104 3.27539,-8.34082 2.18359,-2.25974 4.85806,-3.38963 8.02344,-3.38965 3.62238,2e-5 6.52537,1.31187 8.70898,3.93554 1.70961,2.0482 2.56443,4.90041 2.56446,8.55665 z"
         style="font-size:52px;fill:#a2c7ff"
         id="path4458" />
      <path
         d="m 212.50977,723.87248 0,8.70898 c -1.37111,0.50781 -2.68296,0.76172 -3.93555,0.76172 -3.06381,0 -5.65789,-1.1595 -7.78223,-3.47852 -2.12435,-2.319 -3.18652,-5.15428 -3.18652,-8.50585 0,-3.62238 1.27799,-6.67772 3.83398,-9.16602 2.55598,-2.48826 5.69596,-3.7324 9.41992,-3.73242 1.98046,2e-5 3.87629,0.39781 5.6875,1.19336 1.81118,0.79559 3.23305,1.862 4.26563,3.19922 1.72654,2.21746 2.58982,5.43361 2.58984,9.64843 l 0,8.32813 c -2e-5,4.51953 -1.28225,8.18847 -3.84668,11.00683 -2.56447,2.81835 -5.90333,4.22753 -10.0166,4.22754 -1.25261,-1e-5 -2.83529,-0.31316 -4.74804,-0.93945 l 0,-8.63281 c 1.23566,0.67708 2.48827,1.01562 3.75781,1.01562 1.70962,0 3.02993,-0.56283 3.96094,-1.68847 0.93097,-1.12566 1.39646,-2.73796 1.39648,-4.83692 l 0,-9.52148 c -2e-5,-2.65754 -1.07489,-3.98631 -3.22461,-3.98633 -0.91408,2e-5 -1.71388,0.35125 -2.39941,1.05371 -0.68556,0.70249 -1.02833,1.51076 -1.02832,2.42481 -1e-5,0.96485 0.32583,1.76889 0.97754,2.4121 0.65168,0.64324 1.45994,0.96486 2.4248,0.96485 0.64321,10e-6 1.26105,-0.15234 1.85352,-0.45703 z"
         style="font-size:52px;fill:#a2c7ff"
         id="path4460" />
      <path
         d="m 238.45898,699.64982 0,34.6582 -9.49609,0 0,-34.6582 z"
         style="font-size:52px;fill:#a2c7ff"
         id="path4462" />
      <path
         d="m 268.87695,723.18693 -14.39648,0 c -0.22007,-0.72785 -0.33009,-1.39647 -0.33008,-2.00586 -10e-6,-0.84634 0.15233,-1.67577 0.45703,-2.48828 l 4.82422,0 c -0.33856,-1.87889 -1.3965,-2.81834 -3.17383,-2.81836 -1.18491,2e-5 -2.14975,0.5036 -2.89453,1.51074 -0.7448,1.00718 -1.1172,2.29787 -1.11719,3.87207 -1e-5,1.64194 0.35969,2.97072 1.07911,3.98633 0.71938,1.01563 1.66307,1.52345 2.83105,1.52344 0.9479,10e-6 1.86196,-0.47395 2.74219,-1.42188 l 5.4082,6.5 c -2.52216,1.98047 -5.32358,2.97071 -8.4043,2.97071 -3.75782,0 -6.91472,-1.26107 -9.4707,-3.78321 -2.55599,-2.52213 -3.83399,-5.64517 -3.83398,-9.36914 -1e-5,-3.70701 1.29068,-6.83852 3.87207,-9.39453 2.58137,-2.55596 5.75096,-3.83396 9.50879,-3.83398 3.67315,2e-5 6.75811,1.24839 9.25488,3.74511 2.49672,2.49677 3.74509,5.57326 3.74512,9.2295 -3e-5,0.3724 -0.0339,0.96485 -0.10157,1.77734 z"
         style="font-size:52px;fill:#a2c7ff"
         id="path4464" />
      <path
         d="m 289.82422,699.49748 0,9.87695 c -0.74481,-0.25388 -1.32033,-0.38083 -1.72656,-0.38086 -0.77867,3e-5 -1.44729,0.28779 -2.00586,0.86328 -0.55861,0.57555 -0.83791,1.26956 -0.83789,2.08203 -2e-5,0.69404 0.30467,1.57424 0.91406,2.64063 l 0.78711,1.37109 c 1.42185,2.47137 2.13279,4.85809 2.13281,7.16016 -2e-5,3.3685 -1.19761,6.22071 -3.59277,8.55664 -2.3952,2.33594 -5.31935,3.5039 -8.77246,3.50391 -1.65886,-10e-6 -3.30079,-0.38086 -4.92579,-1.14258 l 0,-10.0293 c 0.98177,0.62631 1.85352,0.93946 2.61524,0.93945 0.89713,10e-6 1.64615,-0.25813 2.24707,-0.77441 0.6009,-0.51627 0.90136,-1.16373 0.90137,-1.94238 -10e-6,-0.5078 -0.48243,-1.61653 -1.44727,-3.32618 -1.54037,-2.70831 -2.31055,-5.41664 -2.31055,-8.125 0,-3.2669 1.16374,-6.08102 3.49122,-8.44238 2.32746,-2.36129 5.10773,-3.54196 8.34082,-3.54199 1.42185,3e-5 2.81834,0.23701 4.18945,0.71094 z"
         style="font-size:52px;fill:#a2c7ff"
         id="path4466" />
      <path
         d="m 303.86523,699.64982 0,34.6582 -9.49609,0 0,-34.6582 z m 14.54883,9.34375 -4.64648,9.2168 6.90625,16.09765 -10.51172,0 -5.94141,-16.52929 4.31641,-8.78516 z"
         style="font-size:52px;fill:#a2c7ff"
         id="path4468" />
      <path
         d="m 325.67578,745.40373 0,-8.25196 c 1.28645,0.54167 2.4121,0.8125 3.37695,0.8125 3.08072,0 5.07811,-1.73502 5.99219,-5.20507 -1.65887,0.98177 -3.28386,1.47265 -4.875,1.47265 -2.35287,0 -4.29102,-0.87597 -5.81445,-2.62793 -1.52344,-1.75195 -2.28516,-3.98209 -2.28516,-6.69043 l 0,-15.91992 9.4961,0 0,13.60938 c -2e-5,1.50652 0.62629,2.25977 1.8789,2.25976 1.20181,10e-6 1.80272,-0.82942 1.80274,-2.48828 l 0,-13.38086 9.49609,0 0,22.59766 c -2e-5,4.21484 -1.18492,7.61718 -3.55469,10.20703 -2.82684,3.08072 -6.24611,4.62108 -10.25781,4.62109 -1.76043,-10e-6 -3.51238,-0.33855 -5.25586,-1.01562 z"
         style="font-size:52px;fill:#a2c7ff"
         id="path4470" />
      <path
         d="m 367.31641,699.49748 0,9.87695 c -0.74481,-0.25388 -1.32033,-0.38083 -1.72657,-0.38086 -0.77866,3e-5 -1.44728,0.28779 -2.00586,0.86328 -0.5586,0.57555 -0.8379,1.26956 -0.83789,2.08203 -10e-6,0.69404 0.30468,1.57424 0.91407,2.64063 l 0.78711,1.37109 c 1.42185,2.47137 2.13279,4.85809 2.13281,7.16016 -2e-5,3.3685 -1.19761,6.22071 -3.59278,8.55664 -2.39519,2.33594 -5.31934,3.5039 -8.77246,3.50391 -1.65886,-10e-6 -3.30078,-0.38086 -4.92578,-1.14258 l 0,-10.0293 c 0.98177,0.62631 1.85351,0.93946 2.61524,0.93945 0.89713,10e-6 1.64615,-0.25813 2.24707,-0.77441 0.6009,-0.51627 0.90136,-1.16373 0.90136,-1.94238 0,-0.5078 -0.48242,-1.61653 -1.44726,-3.32618 -1.54037,-2.70831 -2.31055,-5.41664 -2.31055,-8.125 0,-3.2669 1.16373,-6.08102 3.49121,-8.44238 2.32747,-2.36129 5.10774,-3.54196 8.34082,-3.54199 1.42186,3e-5 2.81834,0.23701 4.18946,0.71094 z"
         style="font-size:52px;fill:#a2c7ff"
         id="path4472" />
      <path
         d="m 380.31641,699.64982 0,9.69922 4.26562,0 0,10.0293 -4.26562,0 c -1e-5,2.01433 0.31737,3.40235 0.95214,4.16406 0.63476,0.76173 1.79849,1.14259 3.49122,1.14258 l 0,9.97851 c -0.4909,0.0169 -0.85484,0.0254 -1.0918,0.0254 -2.14975,0 -4.17677,-0.49935 -6.08106,-1.49804 -1.9043,-0.9987 -3.43197,-2.35286 -4.583,-4.0625 -1.45574,-2.18359 -2.1836,-5.07812 -2.1836,-8.6836 l 0,-20.79492 z"
         style="font-size:52px;fill:#a2c7ff"
         id="path4474" />
      <path
         d="m 389.22852,709.34904 9.49609,0 0,14.29492 c -10e-6,1.43881 0.6009,2.15821 1.80273,2.1582 1.18488,1e-5 1.77733,-0.71939 1.77735,-2.1582 l 0,-14.29492 9.49609,0 0,14.11719 c -2e-5,3.28386 -1.09182,6.05567 -3.27539,8.31543 -2.18361,2.25976 -4.85809,3.38964 -8.02344,3.38965 -3.60548,-10e-6 -6.50847,-1.31185 -8.70898,-3.93555 -1.70964,-2.04817 -2.56446,-4.89192 -2.56445,-8.53125 z"
         style="font-size:52px;fill:#a2c7ff"
         id="path4476" />
      <path
         d="m 432.95117,699.64982 9.4961,0 0,21.09961 c -3e-5,3.87631 -1.01566,7.03321 -3.04688,9.4707 -1.16799,1.40495 -2.65334,2.52214 -4.45605,3.35157 -1.80276,0.82942 -3.65204,1.24414 -5.54786,1.24414 -3.77475,0 -6.95703,-1.26953 -9.54687,-3.8086 -2.58985,-2.53905 -3.88477,-5.65363 -3.88477,-9.34375 0,-3.5716 1.28646,-6.66079 3.85938,-9.26758 2.57291,-2.60674 5.61978,-3.91013 9.14062,-3.91015 0.55858,2e-5 1.40494,0.0508 2.53907,0.15234 l 0,10.46094 c -0.77867,-0.60936 -1.55731,-0.91405 -2.33594,-0.91406 -0.98179,10e-6 -1.82391,0.35971 -2.52637,1.0791 -0.70248,0.71941 -1.05372,1.58693 -1.05371,2.60254 -1e-5,0.98178 0.36392,1.8239 1.0918,2.52636 0.72785,0.70249 1.59959,1.05372 2.61523,1.05372 2.43748,0 3.65623,-1.68424 3.65625,-5.05274 z"
         style="font-size:52px;fill:#a2c7ff"
         id="path4478" />
      <path
         d="m 456.91992,708.99357 0,25.31445 -9.49609,0 0,-25.31445 z m -4.72265,-11.29883 c 1.28645,4e-5 2.3994,0.45284 3.33886,1.3584 0.93944,0.90563 1.40917,1.97627 1.40918,3.21192 -1e-5,1.32034 -0.44435,2.40367 -1.33301,3.25 -0.88868,0.84638 -2.02702,1.26955 -3.41503,1.26953 -1.38803,2e-5 -2.52638,-0.42315 -3.41504,-1.26953 -0.88868,-0.84633 -1.33301,-1.92966 -1.33301,-3.25 0,-1.23565 0.46972,-2.30629 1.40918,-3.21192 0.93945,-0.90556 2.0524,-1.35836 3.33887,-1.3584 z"
         style="font-size:52px;fill:#a2c7ff"
         id="path4480" />
      <path
         d="m 474.56641,708.46037 c 3.58852,2e-5 6.66501,1.29071 9.22949,3.87207 2.56442,2.5814 3.84665,5.67482 3.84668,9.28027 -3e-5,3.65626 -1.29918,6.77084 -3.89746,9.34375 -2.59833,2.57292 -5.73407,3.85938 -9.40723,3.85938 -3.67319,0 -6.81316,-1.29069 -9.41992,-3.87207 -2.60677,-2.58138 -3.91016,-5.69173 -3.91016,-9.33106 0,-3.70701 1.30339,-6.82583 3.91016,-9.35644 2.60676,-2.53058 5.8229,-3.79588 9.64844,-3.7959 z m -0.25391,9.36914 c -1.01564,10e-6 -1.87892,0.36818 -2.58984,1.10449 -0.71095,0.73634 -1.06642,1.63771 -1.06641,2.7041 -10e-6,1.04949 0.35969,1.94663 1.0791,2.69141 0.71939,0.7448 1.57844,1.11719 2.57715,1.11719 1.01561,0 1.88312,-0.37239 2.60254,-1.11719 0.71938,-0.74478 1.07908,-1.64192 1.0791,-2.69141 -2e-5,-1.06639 -0.35549,-1.96776 -1.06641,-2.7041 -0.71095,-0.73631 -1.58269,-1.10448 -2.61523,-1.10449 z"
         style="font-size:52px;fill:#a2c7ff"
         id="path4482" />
      <path
         d="m 507.47266,709.34904 0,10.00391 c -1.33726,1e-5 -2.25555,0.24968 -2.75489,0.74902 -0.49936,0.49936 -0.81674,1.48536 -0.95215,2.95801 -0.44011,4.89193 -2.33595,8.34505 -5.6875,10.35937 -1.77735,1.04948 -4.29948,1.57422 -7.5664,1.57422 l -1.32031,0 0,-10.05469 0.43164,0 c 1.52343,10e-6 2.611,-0.31737 3.26269,-0.95215 0.65169,-0.63475 1.02832,-1.7477 1.12988,-3.33886 0.13542,-2.58983 0.37663,-4.40949 0.72364,-5.45899 0.347,-1.04946 1.0537,-2.09047 2.12011,-3.12304 1.86197,-1.81118 4.44335,-2.71678 7.74415,-2.7168 z"
         style="font-size:52px;fill:#a2c7ff"
         id="path4484" />
    </g>
  </g>
</svg>
