<?xml version="1.0" encoding="UTF-8" standalone="no"?>
<!-- Created with Inkscape (http://www.inkscape.org/) -->

<svg
   xmlns:dc="http://purl.org/dc/elements/1.1/"
   xmlns:cc="http://creativecommons.org/ns#"
   xmlns:rdf="http://www.w3.org/1999/02/22-rdf-syntax-ns#"
   xmlns:svg="http://www.w3.org/2000/svg"
   xmlns="http://www.w3.org/2000/svg"
   xmlns:xlink="http://www.w3.org/1999/xlink"
   xmlns:sodipodi="http://sodipodi.sourceforge.net/DTD/sodipodi-0.dtd"
   xmlns:inkscape="http://www.inkscape.org/namespaces/inkscape"
   width="640"
   height="800"
   id="svg3391"
   version="1.1"
   inkscape:version="0.48.2 r9819"
   sodipodi:docname="SingleSkyStudiosLogo2.svg"
   inkscape:export-filename="/usr/local/var/arch/bjmey/src/eruta/doc/image/SingleSkyStudiosLogo2.png"
   inkscape:export-xdpi="45"
   inkscape:export-ydpi="45">
  <defs
     id="defs3393">
    <linearGradient
       inkscape:collect="always"
       id="linearGradient5179">
      <stop
         style="stop-color:#050000;stop-opacity:1;"
         offset="0"
         id="stop5181" />
      <stop
         style="stop-color:#050000;stop-opacity:0;"
         offset="1"
         id="stop5183" />
    </linearGradient>
    <filter
       id="filter4505"
       inkscape:label="Evanescent"
       inkscape:menu="Blurs"
       inkscape:menu-tooltip="Blur the contents of objects, preserving the outline and adding progressive transparency at edges"
       color-interpolation-filters="sRGB">
      <feGaussianBlur
         id="feGaussianBlur4507"
         result="result6"
         stdDeviation="3"
         in="SourceGraphic" />
      <feColorMatrix
         id="feColorMatrix4509"
         values="1 0 0 0 0 0 1 0 0 0 0 0 1 0 0 0 0 0 1 0 "
         result="result7"
         in="SourceGraphic" />
      <feComposite
         id="feComposite4511"
         in2="result7"
         operator="in"
         in="result6" />
    </filter>
    <linearGradient
       inkscape:collect="always"
       xlink:href="#linearGradient5179"
       id="linearGradient5187"
       x1="121.46695"
       y1="807.77637"
       x2="524.56793"
       y2="807.77637"
       gradientUnits="userSpaceOnUse" />
  </defs>
  <sodipodi:namedview
     id="base"
     pagecolor="#ffffff"
     bordercolor="#666666"
     borderopacity="1.0"
     inkscape:pageopacity="0"
     inkscape:pageshadow="2"
     inkscape:zoom="0.83428126"
     inkscape:cx="427.73922"
     inkscape:cy="381.19742"
     inkscape:document-units="px"
     inkscape:current-layer="layer1"
     showgrid="false"
     inkscape:window-width="1280"
     inkscape:window-height="939"
     inkscape:window-x="0"
     inkscape:window-y="33"
     inkscape:window-maximized="1" />
  <metadata
     id="metadata3396">
    <rdf:RDF>
      <cc:Work
         rdf:about="">
        <dc:format>image/svg+xml</dc:format>
        <dc:type
           rdf:resource="http://purl.org/dc/dcmitype/StillImage" />
        <dc:title></dc:title>
      </cc:Work>
    </rdf:RDF>
  </metadata>
  <g
     inkscape:label="Layer 1"
     inkscape:groupmode="layer"
     id="layer1"
     transform="translate(0,-252.36218)">
    <path
       style="fill:#000000;fill-opacity:1;display:none;filter:url(#filter4505)"
       d="m 268.0625,259.53125 c -0.30591,0.0214 -0.5,0.55353 -0.5,1.59375 0,1.37537 2.13466,8.86131 4.71875,16.65625 2.5841,7.79494 6.60137,22.34448 8.9375,32.3125 2.33614,9.96801 6.33426,22.84617 8.875,28.625 5.89353,13.40458 9.05639,58.47937 3.5625,50.75 -4.84883,-6.82182 -7.29503,-20.63686 -5.96875,-33.8125 0.83735,-8.31839 0.64887,-11.14015 -0.65625,-8.9375 -2.87864,4.85824 -3.78259,2.4569 -6.09375,-16.46875 -2.37168,-19.42124 -3.35657,-23.96979 -4.84375,-22.28125 -0.56012,0.63596 -0.0125,9.74449 1.21875,20.25 1.59329,13.59411 1.63101,19.52762 0.15625,20.5625 -1.44374,1.0131 -1.17216,4.75439 0.84375,12.3125 1.59137,5.96638 3.24788,19.00714 3.6875,29 0.43962,9.99285 1.29876,19.9518 1.90625,22.125 0.76106,2.72258 -1.5782,7.18814 -7.53125,14.34375 -4.75179,5.71172 -9.63057,13.71508 -10.8125,17.78125 -2.77472,9.54598 -1.3325,10.26463 -21.90625,-11.21875 -20.65283,-21.566 -32.50986,-45.21257 -35.75,-71.28125 l -1.75,-13.96875 0.5625,16.65625 c 0.43968,13.19747 1.79884,19.6294 6.5625,31.1875 6.08331,14.76003 4.61669,16.5839 -3.71875,4.625 -5.21481,-7.48172 -9.58644,-17.09651 -14.84375,-32.6875 -4.61223,-13.67803 -9.19823,-16.44097 -5.03125,-3.03125 1.90227,6.12168 2.23616,9.696 0.9375,10.1875 -3.03539,1.1488 -2.39611,4.78125 0.84375,4.78125 4.39983,0 11.59626,17.19113 7.875,18.8125 -4.10309,1.78768 -15.58156,-2.99348 -25.5,-10.59375 -4.69187,-3.59526 -9.07331,-5.92031 -9.71875,-5.1875 -1.37819,1.56483 -1.64605,1.25777 7.96875,8.53125 l 7.5,5.6875 L 174.5,399.5 c -2.81469,1.45612 -5.125,3.45936 -5.125,4.46875 0,2.57809 1.3035,2.31968 7.96875,-1.59375 4.59662,-2.69888 7.07334,-2.93245 11.71875,-1.09375 3.24681,1.28509 8.00178,2.34375 10.5625,2.34375 5.6601,0 15.03516,8.23107 37.96875,33.28125 10.5031,11.47242 15.81239,18.54901 13.3125,17.8125 -2.28404,-0.67291 -6.86185,-5.05131 -10.1875,-9.75 -3.32568,-4.69871 -7.05205,-8.5625 -8.28125,-8.5625 -1.2292,0 -5.70891,-3.67849 -9.9375,-8.1875 l -7.6875,-8.1875 7.4375,10.9375 c 4.09642,6.01203 10.05479,14.08072 13.21875,17.9375 l 5.75,7 -6.21875,3.9375 c -12.60806,7.9444 -13.37023,9.13224 -5.46875,8.6875 3.96653,-0.22326 7.21475,-1.41122 7.21875,-2.625 0.0195,-4.99395 7.0593,-7.33776 15.0625,-5.03125 11.7788,3.39461 39.76872,40.15327 37.90625,49.78125 -1.5718,8.12534 4.00404,39.96573 8.90625,50.90625 2.01487,4.49664 5.8177,19.2418 8.4375,32.78125 2.61977,13.53946 6.16637,29.05793 7.875,34.46875 3.26332,10.3342 8.49646,61.67977 6.96875,68.375 -0.72958,3.19746 -2.09563,2.29308 -7.59375,-5 -23.76986,-31.52996 -85.24127,-26.99106 -96.625,7.125 -2.55194,7.64796 -5.90925,7.56762 -20.8125,-0.4375 -37.19053,-19.97646 -84.82798,-9.66263 -96.03125,20.78125 -2.11428,5.74536 -3.9126,7.179 -10.5,8.375 -4.3786,0.79499 -11.30958,3.40827 -15.40625,5.78125 -4.09667,2.37296 -9.04416,4.3125 -10.96875,4.3125 -18.86553,0 -14.14238,20.25804 5.28125,22.65625 26.05125,3.21653 27.7691,3.92623 28.125,12 1.25404,28.45365 39.87552,39.17804 76.34375,21.1875 5.02755,-2.48021 4.12667,1.96741 -2.03125,10.1875 -10.26018,13.69611 -12.21452,20.25725 -2.3125,7.75 10.50566,-13.26973 13.86927,-14.81873 19.5625,-8.96875 2.69319,2.76735 7.54296,3.63395 20.90625,3.71875 17.04259,0.10827 17.42235,0.22593 18.53125,5.6875 0.62276,3.06733 2.32771,7.72751 3.78125,10.375 2.78111,5.06565 -7.53373,17.8418 -21.84375,27.03125 -13.19403,8.47279 -19.83797,13.60259 -18.9375,14.625 2.30798,2.6205 25.93991,-12.9185 38.21875,-25.125 l 7.28125,-7.21875 7.65625,6.96875 7.625,6.96875 -0.0312,19.84375 c -0.0253,10.92102 -0.79653,23.55347 -1.71875,28.0625 -2.69376,13.17064 0.96103,9.44134 4.40625,-4.5 1.72808,-6.99275 3.125,-18.7486 3.125,-26.09375 l 0,-13.34375 L 268.125,854 c 10.5132,4.19544 29.32545,8.26092 42.78125,9.25 9.98455,0.73392 14.27302,13.525 15.84375,47.03125 0.57775,12.3247 1.66297,22.40625 2.375,22.40625 2.50604,0 0.42053,-46.94452 -2.5625,-57.75 -3.26185,-11.81543 -2.80621,-14.40625 2.59375,-14.40625 4.30862,0 12.07924,21.82381 19.28125,54.125 1.1394,5.1102 2.91931,9.28125 3.9375,9.28125 2.67346,0 2.29757,-3.70699 -2,-19.6875 -4.72978,-17.58764 -4.74151,-17.32578 0.25,-15.84375 5.73259,1.70212 3.82333,-4.08999 -2.5,-7.59375 -3.12862,-1.73355 -5.64832,-5.85455 -7.1875,-11.6875 -2.81436,-10.66541 -3.31481,-9.85194 7.875,-13.25 9.80113,-2.97637 7.42737,-4.1962 28.0625,14.8125 10.7057,9.86187 9.72139,3.2135 -1.125,-7.59375 -11.68543,-11.64328 -11.65199,-13.54282 0.28125,-23.375 4.5613,-3.75824 10.36678,-11.56195 13.4375,-18.03125 l 5.40625,-11.40625 5.625,3.3125 c 9.15413,5.37476 12.00301,14.48735 14.34375,45.96875 1.73383,23.31881 2.94651,30.01831 6.59375,36.71875 5.61961,10.32391 6.71204,9.2736 3.21875,-3.125 -2.91816,-10.3573 -5.50495,-45.99621 -3.71875,-51.28125 1.61056,-4.76532 3.95114,-4.08577 21.84375,6.375 18.34621,10.726 44.7306,21.96122 48.34375,20.59375 1.30499,-0.49389 -4.93223,-4.04145 -13.84375,-7.90625 C 453.40886,850.58437 421.44081,831.57135 418,825.6875 l -3,-5.15625 10.53125,1.25 c 5.79334,0.67957 16.94048,0.1822 24.78125,-1.09375 10.11937,-1.64673 15.21467,-1.63352 17.5625,0.0312 1.86433,1.32197 4.04674,1.50366 5,0.4375 0.93015,-1.04031 5.57822,-2.25171 10.34375,-2.71875 7.20762,-0.70637 6.56723,-0.93949 -3.84375,-1.3125 -10.10648,-0.36213 -11.80459,-0.91178 -8.875,-2.84375 5.37586,-3.54521 28.21759,-1.09379 35,3.75 3.1127,2.22301 9.10772,6.87118 13.34375,10.34375 6.07692,4.98169 5.50574,4.03281 -2.71875,-4.5625 -6.6278,-6.9266 -14.15423,-12.35357 -20.6875,-14.875 -15.48683,-5.97693 -13.2918,-12.38299 5.125,-14.96875 23.16511,-3.2524 41.56097,-14.26557 47.5,-28.40625 2.27832,-5.42459 4.72985,-7.74466 9.15625,-8.6875 22.28734,-4.74729 18.6114,-28.56893 -4.3125,-27.9375 -6.75442,0.18606 -12.40865,-1.68077 -22.5,-7.40625 -20.78234,-11.79111 -47.72621,-13.99505 -67.09375,-5.46875 -4.2277,1.86119 -7.71754,1.67532 -15.28125,-0.875 -5.38797,-1.81672 -12.35268,-3.3125 -15.46875,-3.3125 -4.27914,0 -7.4806,-2.35339 -13.09375,-9.59375 -15.9225,-20.53828 -50.71197,-24.2981 -71.21875,-7.71875 l -5.59375,4.5 -0.125,-7.25 c -0.0666,-3.98968 -0.81992,-15.62328 -1.6875,-25.84375 -1.70779,-20.11843 0.45064,-28.96283 9.3125,-38.0625 2.23072,-2.29057 4.0625,-5.57321 4.0625,-7.3125 0,-4.57744 20.83623,-48.22854 27.78125,-58.1875 3.24446,-4.65246 15.0054,-15.17613 26.125,-23.40625 11.11959,-8.23012 23.6971,-17.90479 27.9375,-21.46875 l 7.71875,-6.46875 18.5,1.8125 c 10.1847,0.99076 20.31533,2.89123 22.5,4.21875 5.75859,3.49923 7.73881,2.83039 3.25,-1.09375 -3.53287,-3.08848 -2.56895,-3.2757 11.5625,-2.09375 1.90614,0.15942 3.8748,0.25444 5.84375,0.3125 -0.43542,0.51806 -0.71875,1.3352 -0.71875,2.25 0,1.55618 0.81435,2.33563 1.8125,1.71875 0.99815,-0.6169 1.84375,-1.90451 1.84375,-2.84375 0,-0.41092 -0.17806,-0.76701 -0.4375,-1.0625 5.86161,0.05 11.29546,-0.34642 13.8125,-1.09375 5.4456,-1.61681 3.02761,-2.04516 -12.53125,-2.25 -24.65878,-0.32482 -27.88045,-1.28947 -28.125,-8.625 l -0.1875,-5.78125 -1.3125,5.46875 c -1.4442,5.92688 -19.12091,8.98687 -28.6875,4.96875 l -4.21875,-1.75 3.9375,-9.03125 c 4.61945,-10.60098 27.53596,-37.50316 36.78125,-43.15625 3.54327,-2.16655 8.95932,-8.00796 12.03125,-13 l 5.59375,-9.0625 -7.8125,8.40625 c -7.19852,7.75883 -34.67563,15.82791 -38.625,11.34375 -0.9109,-1.03427 11.38783,-4.87779 19.8125,-6.1875 l 5.78125,-0.90625 -6.25,-0.3125 c -3.55028,-0.18583 -6.26395,-1.51212 -6.28125,-3.0625 -0.0205,-1.90045 -0.48497,-1.99267 -1.46875,-0.3125 -0.77805,1.32877 -4.80413,3.67642 -8.96875,5.21875 -4.16462,1.54236 -11.50171,5.62097 -16.28125,9.0625 -10.07697,7.25596 -16.76252,8.36414 -14.75,2.4375 0.71454,-2.10421 2.31025,-8.08006 3.53125,-13.25 2.34103,-9.91241 14.48067,-22.72673 38.96875,-41.1875 5.83261,-4.39703 10.19273,-8.43058 9.71875,-8.96875 -1.46226,-1.66027 -19.41084,10.32517 -29.15625,19.46875 -17.63211,16.54325 -16.80816,17.39293 -15.78125,-15.96875 0.49406,-16.05059 1.59811,-31.07355 2.46875,-33.375 1.05755,-2.79549 0.90696,-3.71535 -0.46875,-2.75 -3.34151,2.34482 -6.12712,20.48533 -7.25,47.28125 -1.5553,37.11549 -8.48891,58.0962 -26.78125,81.03125 -4.34091,5.44266 -10.51048,15.02431 -13.6875,21.28125 -8.19271,16.13498 -10.47303,13.88654 -10.59375,-10.40625 -0.0797,-16.05381 -4.49241,-38.88068 -9.78125,-50.59375 -3.59206,-7.95521 -4.25689,-12.88043 -4.125,-29.9375 0.18196,-23.52088 -1.11133,-24.83593 -3.21875,-3.28125 l -1.46875,14.96875 -3.4375,-8.75 c -7.12241,-18.0672 -6.48904,-23.67629 3.53125,-30.34375 10.87009,-7.23286 11.74082,-9.65234 1.28125,-3.59375 -10.22967,5.92545 -11.57707,5.62279 -11.9375,-2.6875 l -0.3125,-7.09375 -0.78125,7.125 c -0.42863,3.93068 -1.58423,6.59273 -2.5625,5.90625 -0.97828,-0.68648 -1.29962,0.15627 -0.71875,1.875 0.74489,2.20399 -0.91962,3.53566 -5.59375,4.53125 -3.64502,0.77641 -10.28231,4.41913 -14.75,8.09375 -4.46769,3.6746 -10.9491,7.20675 -14.40625,7.84375 L 306.59375,415.0312 305.5,397.8437 c -0.60113,-9.44967 -2.08988,-24.54445 -3.3125,-33.5625 -2.14286,-15.8057 -1.5827,-46.53366 1.15625,-64.3125 1.38291,-8.97658 -2.49204,-37.81139 -5.34375,-39.8125 -0.90497,-0.63509 -0.97548,3.11377 -0.15625,8.3125 3.43335,21.7873 -2.26925,72.94092 -6.75,60.53125 -8.7792,-24.31452 -12.31638,-43.26047 -10.1875,-54.53125 1.18358,-6.26743 1.71404,-11.87089 1.1875,-12.46875 -1.03923,-1.17994 -1.93364,1.42479 -3.96875,11.5625 L 276.8125,280.0937 273.625,271 c -2.52153,-7.2314 -4.64477,-11.53296 -5.5625,-11.46875 z m 18,131.65625 c 0.60402,0.0348 1.51045,1.16671 2.625,3.53125 1.38551,2.93939 1.51711,5.90161 0.375,8.21875 -1.46022,2.96263 -2.03424,2.33142 -3.15625,-3.46875 -1.03457,-5.34816 -0.85045,-8.33919 0.15625,-8.28125 z m 10.28125,3.6875 c 1.12151,0 2.03125,0.9851 2.03125,2.1875 0,1.20241 -0.37675,2.1875 -0.84375,2.1875 -0.46701,0 -1.37675,-0.98509 -2.03125,-2.1875 -0.65451,-1.2024 -0.27776,-2.1875 0.84375,-2.1875 z m 51.1875,5.71875 c 3.56176,-0.22619 4.67956,2.48899 4.71875,9.03125 0.0162,2.7054 -0.612,4.82697 -1.40625,4.6875 -1.38135,-0.24259 -3.87107,-0.83092 -13.46875,-3.15625 -6.49598,-1.57384 -5.27181,-4.444 3.65625,-8.5 2.75076,-1.24968 4.88102,-1.95969 6.5,-2.0625 z m -55.125,6.46875 c 0.86354,-0.0909 2.01824,1.95199 3.375,6.9375 0.90046,3.30881 1.19482,12.4031 0.65625,20.21875 l -0.96875,14.21875 -2.40625,-11.59375 c -3.16257,-15.30523 -2.86307,-29.54893 -0.65625,-29.78125 z M 329.6875,415.5 c 2.70452,-0.0591 5.86051,0.10147 9.625,0.46875 l 13.9375,1.375 9.5,22.09375 c 9.48851,22.07452 9.5022,22.16113 11.0625,51.625 0.85961,16.23248 2.04255,33.47163 2.625,38.28125 0.9518,7.85963 -0.61214,12.31209 -15.53125,44.1875 -9.1296,19.50585 -19.14524,38.57004 -22.25,42.34375 l -5.625,6.84375 -3.125,-8.4375 c -1.72057,-4.64225 -5.54641,-19.24227 -8.5,-32.46875 -2.95362,-13.22646 -7.32327,-31.94325 -9.6875,-41.5625 -5.99952,-24.41001 -7.74847,-116.35225 -2.25,-118.28125 1.84065,-0.64575 6.17677,-2.55013 9.625,-4.25 2.8202,-1.39028 6.08622,-2.1203 10.59375,-2.21875 z m -44.15625,5.84375 c 0.12263,-0.0257 0.18748,-0.009 0.25,0.0625 1.36004,1.55733 4.9041,35.16284 4.875,46.3125 -0.0475,18.24761 -1.91051,18.78739 -13.3125,3.84375 -10.81612,-14.17581 -11.51526,-18.87362 -4.78125,-32.96875 2.89284,-6.05506 11.12924,-16.86485 12.96875,-17.25 z M 481.46875,451.5 466.0625,468.1875 c -8.75989,9.50237 -17.21924,20.98247 -19.625,26.625 -4.9935,11.71197 -11.93212,19.19579 -24.84375,26.78125 -5.185,3.04617 -14.6594,8.76236 -21.0625,12.6875 -6.40309,3.92511 -11.65625,6.61394 -11.65625,5.96875 0,-3.1155 15.79585,-36.13509 21.4375,-44.8125 3.51788,-5.41082 8.23642,-13.7063 10.5,-18.4375 4.97581,-10.4002 21.55771,-17.89086 53.34375,-24.09375 l 7.3125,-1.40625 z m 25.90625,69.40625 c -6.45199,0 -8.80716,20.97229 -3.25,28.90625 l 3.03125,4.3125 4.21875,-4.90625 c 7.60862,-8.84557 4.8576,-28.3125 -4,-28.3125 z m -238.625,156.625 c 20.26622,-0.18119 40.20869,7.80413 43.90625,24.53125 1.01237,4.57982 2.3292,5.46175 8.375,5.46875 3.95111,0.004 10.09504,2.00363 13.65625,4.46875 3.56122,2.46512 6.60463,4.17787 6.75,3.8125 12.89341,-32.42002 71.62421,-34.59814 76.625,-2.84375 0.58602,3.72105 2.70278,4.58644 14.15625,5.71875 7.40207,0.73178 15.96269,2.46485 19.03125,3.875 4.54891,2.0904 7.39588,1.88334 15.40625,-1.21875 20.83861,-8.06998 49.14179,-4.23907 66.46875,9 8.74928,6.6851 10.30544,7.18156 15.46875,4.96875 11.26793,-4.8291 23.03788,5.83906 14.375,13.03125 -1.90609,1.58249 -6.66124,2.875 -10.5625,2.875 -6.4081,0 -7.19109,0.68612 -8.28125,6.875 -2.64983,15.04326 -20.90539,26.99683 -45.28125,29.65625 -11.09627,1.21062 -12.97796,2.13613 -18.8125,9.46875 -17.36555,21.82435 -70.92966,25.16041 -85.4375,5.3125 -4.32726,-5.92007 -7.65625,-3.74318 -7.65625,5.03125 0,19.93722 -20.28486,38.23586 -50.4375,45.4375 -46.43604,11.0908 -94.16461,-8.69038 -101.71875,-42.15625 l -2.4375,-10.78125 -14.625,0.0937 c -17.41337,0.11434 -28.69295,-3.27257 -36.78125,-11 -5.47722,-5.23281 -6.18282,-5.40332 -9.3125,-2.1875 -25.86496,26.57703 -86.79138,-1.05797 -61.9375,-28.09375 3.17703,-3.45594 5.78125,-7.08506 5.78125,-8.0625 0,-2.9784 -5.15226,-1.96832 -7.6875,1.5 -4.47272,6.11902 -16.11503,8.0699 -25.78125,4.34375 -4.81628,-1.85657 -10.73653,-2.782 -13.15625,-2.09375 -5.80331,1.6507 -13.05991,-4.13825 -9.84375,-7.84375 1.24433,-1.43366 4.6958,-2.55815 7.6875,-2.53125 2.9917,0.0269 7.46918,-2.07426 9.9375,-4.65625 3.6629,-3.83157 6.75582,-4.66112 16.84375,-4.53125 l 12.375,0.15625 0,-7.65625 c 0,-27.99199 52.24391,-43.10899 85.375,-24.71875 18.97087,10.53024 29.27819,11.32524 30.84375,2.4375 3.18033,-18.05488 25.11379,-27.49462 46.6875,-27.6875 z M 480.65625,806.9375 c 0.46115,-0.028 0.99806,0.0842 1.59375,0.34375 1.58851,0.69212 2.90625,1.65244 2.90625,2.125 0,0.47255 -1.31774,0.84375 -2.90625,0.84375 -1.58852,0 -2.875,-0.92908 -2.875,-2.09375 0,-0.72791 0.51266,-1.17208 1.28125,-1.21875 z"
       transform="translate(0,52.36218)"
       id="path4290"
       inkscape:connector-curvature="0" />
    <rect
       style="color:#000000;fill:#000000;fill-opacity:1;fill-rule:evenodd;stroke:none;stroke-width:0.89999998;marker:none;visibility:visible;display:inline;overflow:visible;enable-background:accumulate"
       id="rect5189"
       width="20"
       height="500"
       x="300"
       y="352.36218" />
    <rect
       style="color:#000000;fill:#000000;fill-opacity:1;fill-rule:evenodd;stroke:none;stroke-width:0.89999998;marker:none;visibility:visible;display:inline;overflow:visible;enable-background:accumulate"
       id="rect5189-0"
       width="20"
       height="250"
       x="652.81512"
       y="-25.591042"
       inkscape:transform-center-y="-88.388335"
       transform="matrix(0.70710678,0.70710678,-0.70710678,0.70710678,0,0)"
       inkscape:transform-center-x="-88.388368" />
    <rect
       style="color:#000000;fill:#000000;fill-opacity:1;fill-rule:evenodd;stroke:none;stroke-width:0.89999998;marker:none;visibility:visible;display:inline;overflow:visible;enable-background:accumulate"
       id="rect5189-0-3"
       width="20"
       height="250"
       x="-216.73126"
       y="395.13748"
       inkscape:transform-center-y="-88.388367"
       transform="matrix(0.70710678,-0.70710678,0.70710678,0.70710678,0,0)"
       inkscape:transform-center-x="88.388338" />
    <path
       sodipodi:type="arc"
       style="color:#000000;fill:#000000;fill-opacity:1;fill-rule:evenodd;stroke:none;stroke-width:0.89999998;marker:none;visibility:visible;display:inline;overflow:visible;enable-background:accumulate"
       id="path5252"
       sodipodi:cx="434.50574"
       sodipodi:cy="205.47627"
       sodipodi:rx="8.9897738"
       sodipodi:ry="20.376822"
       d="m 443.49551,205.47627 c 0,11.25381 -4.02486,20.37682 -8.98977,20.37682 -4.96492,0 -8.98978,-9.12301 -8.98978,-20.37682 0,-11.25381 4.02486,-20.37682 8.98978,-20.37682 4.96491,0 8.98977,9.12301 8.98977,20.37682 z"
       transform="matrix(1.6685626,0,0,1.9630147,-250.00002,114.00924)" />
    <rect
       style="color:#000000;fill:#000000;fill-opacity:1;fill-rule:evenodd;stroke:none;stroke-width:0.89999998;marker:none;visibility:visible;display:inline;overflow:visible;enable-background:accumulate"
       id="rect5189-0-3-2-4-7-7"
       width="20"
       height="125"
       x="654.45233"
       y="-695.86475"
       inkscape:transform-center-y="54.126604"
       inkscape:transform-center-x="31.249969"
       transform="matrix(0.8660254,0.5,0.5,-0.8660254,0,0)" />
    <rect
       style="color:#000000;fill:#000000;fill-opacity:1;fill-rule:evenodd;stroke:none;stroke-width:0.89999998;marker:none;visibility:visible;display:inline;overflow:visible;enable-background:accumulate"
       id="rect5189-0-3-2-4-4"
       width="20"
       height="125"
       x="63.560162"
       y="875.49231"
       inkscape:transform-center-y="-60.370359"
       inkscape:transform-center-x="16.176149"
       transform="matrix(0.96592583,-0.25881905,0.25881905,0.96592583,0,0)" />
    <rect
       style="color:#000000;fill:#000000;fill-opacity:1;fill-rule:evenodd;stroke:none;stroke-width:0.89999998;marker:none;visibility:visible;display:inline;overflow:visible;enable-background:accumulate"
       id="rect5189-0-3-2-0-5-1"
       width="20"
       height="125"
       x="-375.83008"
       y="824.19232"
       inkscape:transform-center-y="-44.194182"
       inkscape:transform-center-x="44.194123"
       transform="matrix(0.70710678,-0.70710678,0.70710678,0.70710678,0,0)" />
    <rect
       style="color:#000000;fill:#000000;fill-opacity:1;fill-rule:evenodd;stroke:none;stroke-width:0.89999998;marker:none;visibility:visible;display:inline;overflow:visible;enable-background:accumulate"
       id="rect5189-0-3-2-0-5-1-5"
       width="20"
       height="125"
       x="-537.89777"
       y="725.37726"
       inkscape:transform-center-y="-31.250024"
       inkscape:transform-center-x="54.126528"
       transform="matrix(0.5,-0.8660254,0.8660254,0.5,0,0)" />
    <rect
       style="color:#000000;fill:#000000;fill-opacity:1;fill-rule:evenodd;stroke:none;stroke-width:0.89999998;marker:none;visibility:visible;display:inline;overflow:visible;enable-background:accumulate"
       id="rect5189-0-3-2-0-5-1-5-3"
       width="20"
       height="125"
       x="-843.77063"
       y="195.58997"
       inkscape:transform-center-y="-31.250004"
       inkscape:transform-center-x="-54.12654"
       transform="matrix(-0.5,-0.8660254,-0.8660254,0.5,0,0)" />
    <text
       xml:space="preserve"
       style="font-size:44px;font-style:italic;font-variant:normal;font-weight:bold;font-stretch:normal;line-height:125%;letter-spacing:0px;word-spacing:0px;fill:#a2c7ff;fill-opacity:1;stroke:#0167ff;stroke-width:0.89999998;stroke-miterlimit:4;stroke-opacity:1;stroke-dasharray:none;font-family:Zekton;-inkscape-font-specification:Zekton Bold Italic"
       x="129.59387"
       y="827.17639"
       id="text4025"
       sodipodi:linespacing="125%"><tspan
         sodipodi:role="line"
         id="tspan4027"
         x="129.59387"
         y="827.17639"
         style="font-size:44px;font-style:italic;font-variant:normal;font-weight:bold;font-stretch:normal;stroke:#0167ff;stroke-width:0.89999998;stroke-miterlimit:4;stroke-opacity:1;stroke-dasharray:none;font-family:Zekton;-inkscape-font-specification:Zekton Bold Italic">SingleSkyStudios</tspan></text>
    <path
       style="color:#000000;fill:#ffffff;fill-opacity:1;fill-rule:evenodd;stroke:#000000;stroke-width:10;stroke-miterlimit:4;stroke-opacity:1;stroke-dasharray:none;marker:none;visibility:visible;display:inline;overflow:visible;enable-background:accumulate"
       d="m 310,475 c -49.00461,0 -89.32684,17.58644 -94.4375,40.15625 C 212.90192,515.05023 210.21846,515 207.5,515 c -52.46705,0 -95,20.14719 -95,45 0,24.85281 42.53295,45 95,45 2.73959,0 5.44422,-0.0486 8.125,-0.15625 C 215.21578,606.53932 215,608.25254 215,610 c 0,24.85281 42.53295,45 95,45 52.46705,0 95,-20.14719 95,-45 0,-2.41732 -0.41272,-4.77967 -1.1875,-7.09375 C 412.86508,604.26311 422.49996,605 432.5,605 c 52.46705,0 95,-20.14719 95,-45 0,-24.85281 -42.53295,-45 -95,-45 -9.64457,0 -18.94802,0.7031 -27.71875,1.96875 C 401.49236,493.52834 360.31817,475 310,475 z"
       transform="translate(0,252.36218)"
       id="path5254"
       inkscape:connector-curvature="0"
       sodipodi:nodetypes="scssscssscssscs" />
    <rect
       style="color:#000000;fill:#000000;fill-opacity:1;fill-rule:evenodd;stroke:none;stroke-width:0.89999998;marker:none;visibility:visible;display:inline;overflow:visible;enable-background:accumulate"
       id="rect5189-0-3-2"
       width="20"
       height="125"
       x="300.00003"
       y="477.36218"
       inkscape:transform-center-y="-62.5"
       inkscape:transform-center-x="-2.8635176e-05" />
    <rect
       style="color:#000000;fill:#000000;fill-opacity:1;fill-rule:evenodd;stroke:none;stroke-width:0.89999998;marker:none;visibility:visible;display:inline;overflow:visible;enable-background:accumulate"
       id="rect5189-0-3-2-4"
       width="20"
       height="125"
       x="19.786814"
       y="443.40778"
       inkscape:transform-center-y="-54.126606"
       inkscape:transform-center-x="31.249977"
       transform="matrix(0.8660254,-0.5,0.5,0.8660254,0,0)" />
    <rect
       style="color:#000000;fill:#000000;fill-opacity:1;fill-rule:evenodd;stroke:none;stroke-width:0.89999998;marker:none;visibility:visible;display:inline;overflow:visible;enable-background:accumulate"
       id="rect5189-0-3-2-0"
       width="20"
       height="125"
       x="71.662064"
       y="429.90536"
       inkscape:transform-center-y="-60.370348"
       inkscape:transform-center-x="16.176145"
       transform="matrix(0.96592583,-0.25881905,0.25881905,0.96592583,0,0)" />
    <rect
       style="color:#000000;fill:#000000;fill-opacity:1;fill-rule:evenodd;stroke:none;stroke-width:0.89999998;marker:none;visibility:visible;display:inline;overflow:visible;enable-background:accumulate"
       id="rect5189-0-3-2-0-5"
       width="20"
       height="125"
       x="-478.01526"
       y="272.16373"
       inkscape:transform-center-y="-16.176208"
       inkscape:transform-center-x="60.370327"
       transform="matrix(0.25881905,-0.96592583,0.96592583,0.25881905,0,0)" />
    <rect
       style="color:#000000;fill:#000000;fill-opacity:1;fill-rule:evenodd;stroke:none;stroke-width:0.89999998;marker:none;visibility:visible;display:inline;overflow:visible;enable-background:accumulate"
       id="rect5189-0-3-2-4-7"
       width="20"
       height="125"
       x="509.64914"
       y="-280.05844"
       inkscape:transform-center-y="54.126604"
       inkscape:transform-center-x="31.249969"
       transform="matrix(0.8660254,0.5,0.5,-0.8660254,0,0)" />
    <rect
       style="color:#000000;fill:#000000;fill-opacity:1;fill-rule:evenodd;stroke:none;stroke-width:0.89999998;marker:none;visibility:visible;display:inline;overflow:visible;enable-background:accumulate"
       id="rect5189-0-3-2-4-9"
       width="20"
       height="125"
       x="507.25781"
       y="308.24866"
       inkscape:transform-center-y="-60.370371"
       inkscape:transform-center-x="-16.176199"
       transform="matrix(0.96592583,0.25881904,-0.25881904,0.96592583,0,0)" />
    <text
       xml:space="preserve"
       style="font-size:52px;font-style:italic;font-variant:normal;font-weight:bold;font-stretch:normal;line-height:125%;letter-spacing:0px;word-spacing:0px;fill:#000000;fill-opacity:1;stroke:#808080;stroke-width:0.89999998000000003;stroke-miterlimit:4;stroke-opacity:1;stroke-dasharray:none;font-family:Bauhaus 93;-inkscape-font-specification:Bauhaus 93 Bold Italic"
       x="129.59387"
       y="827.17639"
       id="text4025-4"
       sodipodi:linespacing="125%"><tspan
         sodipodi:role="line"
         id="tspan4027-6"
         x="129.59387"
         y="827.17639"
         style="font-size:52px;font-style:italic;font-variant:normal;font-weight:bold;font-stretch:normal;stroke:#808080;stroke-width:0.89999998000000003;stroke-miterlimit:4;stroke-opacity:1;stroke-dasharray:none;font-family:Bauhaus 93;-inkscape-font-specification:Bauhaus 93 Bold Italic;fill:#000000;fill-opacity:1">SingleSkyStudios</tspan></text>
  </g>
</svg>
