<?xml version="1.0" encoding="UTF-8" standalone="no"?>
<!-- Created with Inkscape (http://www.inkscape.org/) -->
<svg
   xmlns:dc="http://purl.org/dc/elements/1.1/"
   xmlns:cc="http://web.resource.org/cc/"
   xmlns:rdf="http://www.w3.org/1999/02/22-rdf-syntax-ns#"
   xmlns:svg="http://www.w3.org/2000/svg"
   xmlns="http://www.w3.org/2000/svg"
   xmlns:xlink="http://www.w3.org/1999/xlink"
   xmlns:sodipodi="http://inkscape.sourceforge.net/DTD/sodipodi-0.dtd"
   xmlns:inkscape="http://www.inkscape.org/namespaces/inkscape"
   width="744.09448819"
   height="1052.3622047"
   id="svg3815"
   sodipodi:version="0.32"
   inkscape:version="0.43"
   sodipodi:docbase="/home/bjmey/arch/src/eruta_rubyforge/eruta/main/share/image"
   sodipodi:docname="scetches2.svg">
  <defs
     id="defs3817">
    <linearGradient
       id="linearGradient4770">
      <stop
         id="stop4772"
         offset="0"
         style="stop-color:#ffb700;stop-opacity:1;" />
      <stop
         id="stop4774"
         offset="1"
         style="stop-color:#11b700;stop-opacity:1;" />
    </linearGradient>
    <linearGradient
       id="linearGradient4754">
      <stop
         style="stop-color:#a17200;stop-opacity:1;"
         offset="0"
         id="stop4756" />
      <stop
         style="stop-color:#ffb700;stop-opacity:1;"
         offset="1"
         id="stop4758" />
    </linearGradient>
    <linearGradient
       inkscape:collect="always"
       xlink:href="#linearGradient4754"
       id="linearGradient4760"
       x1="72.968401"
       y1="538.81231"
       x2="172.96834"
       y2="538.81231"
       gradientUnits="userSpaceOnUse" />
    <linearGradient
       inkscape:collect="always"
       xlink:href="#linearGradient4770"
       id="linearGradient4768"
       x1="162.9684"
       y1="538.81232"
       x2="262.96835"
       y2="538.81232"
       gradientUnits="userSpaceOnUse" />
    <linearGradient
       inkscape:collect="always"
       xlink:href="#linearGradient4754"
       id="linearGradient4782"
       x1="252.9684"
       y1="538.81232"
       x2="352.96835"
       y2="538.81232"
       gradientUnits="userSpaceOnUse" />
    <linearGradient
       inkscape:collect="always"
       xlink:href="#linearGradient4770"
       id="linearGradient4790"
       x1="97.968399"
       y1="538.81232"
       x2="197.96834"
       y2="538.81232"
       gradientUnits="userSpaceOnUse" />
    <linearGradient
       inkscape:collect="always"
       xlink:href="#linearGradient4754"
       id="linearGradient4798"
       x1="187.9684"
       y1="538.81232"
       x2="287.96835"
       y2="538.81232"
       gradientUnits="userSpaceOnUse" />
    <linearGradient
       inkscape:collect="always"
       xlink:href="#linearGradient4770"
       id="linearGradient4806"
       x1="277.96841"
       y1="538.81232"
       x2="377.96835"
       y2="538.81232"
       gradientUnits="userSpaceOnUse" />
    <linearGradient
       inkscape:collect="always"
       xlink:href="#linearGradient4754"
       id="linearGradient4932"
       x1="372.64236"
       y1="700.71063"
       x2="447.51736"
       y2="700.71063"
       gradientUnits="userSpaceOnUse" />
    <linearGradient
       inkscape:collect="always"
       xlink:href="#linearGradient4754"
       id="linearGradient4935"
       gradientUnits="userSpaceOnUse"
       x1="372.64236"
       y1="700.71063"
       x2="447.51736"
       y2="700.71063" />
    <linearGradient
       inkscape:collect="always"
       xlink:href="#linearGradient4754"
       id="linearGradient4945"
       x1="231.72104"
       y1="694.28125"
       x2="331.70273"
       y2="694.28125"
       gradientUnits="userSpaceOnUse" />
    <linearGradient
       inkscape:collect="always"
       xlink:href="#linearGradient4754"
       id="linearGradient4949"
       gradientUnits="userSpaceOnUse"
       x1="231.72104"
       y1="694.28125"
       x2="331.70273"
       y2="694.28125" />
    <linearGradient
       inkscape:collect="always"
       xlink:href="#linearGradient4754"
       id="linearGradient4957"
       gradientUnits="userSpaceOnUse"
       x1="231.72104"
       y1="694.28125"
       x2="331.70273"
       y2="694.28125" />
    <linearGradient
       inkscape:collect="always"
       xlink:href="#linearGradient4754"
       id="linearGradient4963"
       gradientUnits="userSpaceOnUse"
       x1="231.72104"
       y1="694.28125"
       x2="331.70273"
       y2="694.28125" />
    <linearGradient
       inkscape:collect="always"
       xlink:href="#linearGradient4754"
       id="linearGradient4965"
       gradientUnits="userSpaceOnUse"
       x1="231.72104"
       y1="694.28125"
       x2="331.70273"
       y2="694.28125" />
    <linearGradient
       inkscape:collect="always"
       xlink:href="#linearGradient4754"
       id="linearGradient4979"
       gradientUnits="userSpaceOnUse"
       x1="231.72104"
       y1="694.28125"
       x2="331.70273"
       y2="694.28125" />
    <linearGradient
       inkscape:collect="always"
       xlink:href="#linearGradient4754"
       id="linearGradient4981"
       gradientUnits="userSpaceOnUse"
       x1="231.72104"
       y1="694.28125"
       x2="331.70273"
       y2="694.28125" />
    <linearGradient
       inkscape:collect="always"
       xlink:href="#linearGradient4754"
       id="linearGradient4985"
       gradientUnits="userSpaceOnUse"
       x1="231.72104"
       y1="694.28125"
       x2="331.70273"
       y2="694.28125" />
    <linearGradient
       inkscape:collect="always"
       xlink:href="#linearGradient4754"
       id="linearGradient4995"
       gradientUnits="userSpaceOnUse"
       x1="231.72104"
       y1="694.28125"
       x2="331.70273"
       y2="694.28125" />
    <linearGradient
       inkscape:collect="always"
       xlink:href="#linearGradient4754"
       id="linearGradient5007"
       gradientUnits="userSpaceOnUse"
       x1="231.72104"
       y1="694.28125"
       x2="331.70273"
       y2="694.28125" />
    <linearGradient
       inkscape:collect="always"
       xlink:href="#linearGradient4754"
       id="linearGradient5011"
       gradientUnits="userSpaceOnUse"
       x1="231.72104"
       y1="694.28125"
       x2="331.70273"
       y2="694.28125" />
  </defs>
  <sodipodi:namedview
     id="base"
     pagecolor="#ffffff"
     bordercolor="#666666"
     borderopacity="1.0"
     inkscape:pageopacity="0.0"
     inkscape:pageshadow="2"
     inkscape:zoom="2.1671077"
     inkscape:cx="449.56233"
     inkscape:cy="274.55949"
     inkscape:document-units="px"
     inkscape:current-layer="layer1"
     inkscape:window-width="1280"
     inkscape:window-height="967"
     inkscape:window-x="0"
     inkscape:window-y="0" />
  <metadata
     id="metadata3820">
    <rdf:RDF>
      <cc:Work
         rdf:about="">
        <dc:format>image/svg+xml</dc:format>
        <dc:type
           rdf:resource="http://purl.org/dc/dcmitype/StillImage" />
      </cc:Work>
    </rdf:RDF>
  </metadata>
  <g
     inkscape:label="Layer 1"
     inkscape:groupmode="layer"
     id="layer1">
    <path
       style="fill:#000000;fill-opacity:1;fill-rule:nonzero;stroke:none;stroke-width:1px;stroke-linecap:butt;stroke-linejoin:miter;stroke-opacity:1"
       id="path3831"
       d="M 73.614078,106.35795 C 78.148165,130.16161 89.710141,152.68054 103.74759,169.21749 C 118.05616,184.22216 137.37139,177.49314 154.02236,173.01574 C 186.24418,167.00006 214.65399,147.41403 244.01141,130.94585 C 272.73518,116.86484 302.49061,102.58064 333.48895,100.32985 C 344.3592,98.246276 351.88981,105.51898 360.51454,112.82159 C 368.3341,122.11131 374.76175,133.45443 380.86753,144.6511 C 384.83303,151.69475 389.19666,158.11172 392.83835,165.44728 C 393.71442,167.50646 394.72587,169.45041 395.68363,171.44444 L 388.94648,176.47471 C 387.98732,174.48036 386.97963,172.53098 386.09926,170.47448 C 382.49507,163.13759 378.10822,156.76505 374.23239,149.66887 C 368.2684,138.50597 361.81276,127.33849 354.01791,118.21043 C 345.50367,110.8669 338.05578,104.09027 327.29872,106.14362 C 296.47872,108.31323 266.88332,122.52688 238.37491,136.66524 C 209.00773,153.31163 180.49638,172.69494 148.20922,178.66607 C 131.1825,183.22213 111.72289,190.15732 97.322542,174.30042 C 83.31868,157.22261 71.891896,134.79627 66.611279,110.93002 L 73.614078,106.35795 z " />
    <path
       style="fill:#000000;fill-opacity:1;fill-rule:nonzero;stroke:none;stroke-width:1px;stroke-linecap:butt;stroke-linejoin:miter;stroke-opacity:1"
       id="path3837"
       d="M 73.614078,177.77751 C 78.148165,153.97385 89.710141,131.45492 103.74759,114.91797 C 118.05616,99.913295 137.37139,106.64232 154.02236,111.11972 C 186.24418,117.1354 214.65399,136.72143 244.01141,153.18961 C 272.73518,167.27062 302.49061,181.55482 333.48895,183.80561 C 344.3592,185.88918 351.88981,178.61648 360.51454,171.31387 C 368.3341,162.02415 374.76175,150.68103 380.86753,139.48436 C 384.83303,132.44071 389.19666,126.02374 392.83835,118.68818 C 393.71442,116.629 394.72587,114.68505 395.68363,112.69102 L 388.94648,107.66075 C 387.98732,109.6551 386.97963,111.60448 386.09926,113.66098 C 382.49507,120.99787 378.10822,127.37041 374.23239,134.46659 C 368.2684,145.62949 361.81276,156.79697 354.01791,165.92503 C 345.50367,173.26856 338.05578,180.04519 327.29872,177.99184 C 296.47872,175.82223 266.88332,161.60858 238.37491,147.47022 C 209.00773,130.82383 180.49638,111.44052 148.20922,105.46939 C 131.1825,100.91333 111.72289,93.978135 97.322542,109.83504 C 83.31868,126.91285 71.891896,149.33919 66.611279,173.20544 L 73.614078,177.77751 z " />
    <path
       style="color:#000000;fill:none;fill-opacity:1;fill-rule:evenodd;stroke:url(#linearGradient4790);stroke-width:9.99999714;stroke-linecap:butt;stroke-linejoin:miter;marker:none;marker-start:none;marker-mid:none;marker-end:none;stroke-miterlimit:4;stroke-dasharray:none;stroke-dashoffset:0;stroke-opacity:1;visibility:visible;display:inline;overflow:visible"
       d="M 192.96834,539.06441 C 192.96834,514.08915 182.89341,493.81482 170.47488,493.81482 C 170.32935,493.81482 170.17614,493.80927 170.03127,493.81482 C 157.89486,494.2791 148.08518,514.10585 147.95533,537.98397 C 147.82098,562.14892 137.79684,583.81228 125.46186,583.81228 C 113.04334,583.81228 102.9684,563.53794 102.9684,538.56268"
       id="path3839"
       sodipodi:nodetypes="csccsc" />
    <path
       style="color:#000000;fill:none;fill-opacity:1;fill-rule:evenodd;stroke:url(#linearGradient4798);stroke-width:9.99999714;stroke-linecap:butt;stroke-linejoin:miter;marker:none;marker-start:none;marker-mid:none;marker-end:none;stroke-miterlimit:4;stroke-dasharray:none;stroke-dashoffset:0;stroke-opacity:1;visibility:visible;display:inline;overflow:visible"
       d="M 282.96834,539.06441 C 282.96834,514.08915 272.89341,493.81482 260.47488,493.81482 C 260.32935,493.81482 260.17614,493.80927 260.03127,493.81482 C 247.89486,494.2791 238.08518,514.10585 237.95533,537.98397 C 237.82098,562.14892 227.79684,583.81228 215.46186,583.81228 C 203.04334,583.81228 192.9684,563.53794 192.9684,538.56268"
       id="path4738"
       sodipodi:nodetypes="csccsc" />
    <path
       style="color:#000000;fill:none;fill-opacity:1;fill-rule:evenodd;stroke:url(#linearGradient4806);stroke-width:9.99999714;stroke-linecap:butt;stroke-linejoin:miter;marker:none;marker-start:none;marker-mid:none;marker-end:none;stroke-miterlimit:4;stroke-dasharray:none;stroke-dashoffset:0;stroke-opacity:1;visibility:visible;display:inline;overflow:visible"
       d="M 372.96834,539.06441 C 372.96834,514.08915 362.89341,493.81482 350.47488,493.81482 C 350.32935,493.81482 350.17614,493.80927 350.03127,493.81482 C 337.89486,494.2791 328.08518,514.10585 327.95533,537.98397 C 327.82098,562.14892 317.79684,583.81228 305.46186,583.81228 C 293.04334,583.81228 282.9684,563.53794 282.9684,538.56268"
       id="path4740"
       sodipodi:nodetypes="csccsc" />
    <path
       style="color:#000000;fill:none;fill-opacity:1;fill-rule:evenodd;stroke:url(#linearGradient4760);stroke-width:9.99999714;stroke-linecap:butt;stroke-linejoin:miter;marker:none;marker-start:none;marker-mid:none;marker-end:none;stroke-miterlimit:4;stroke-dasharray:none;stroke-dashoffset:0;stroke-opacity:1;visibility:visible;display:inline;overflow:visible"
       d="M 167.96834,538.56022 C 167.96834,563.53548 157.89341,583.80981 145.47488,583.80981 C 145.32935,583.80981 145.17614,583.81536 145.03127,583.80981 C 132.89486,583.34553 123.08518,563.51878 122.95533,539.64066 C 122.82098,515.47571 112.79684,493.81235 100.46186,493.81235 C 88.04334,493.81235 77.9684,514.08669 77.9684,539.06195"
       id="path4748"
       sodipodi:nodetypes="csccsc" />
    <path
       style="color:#000000;fill:none;fill-opacity:1;fill-rule:evenodd;stroke:url(#linearGradient4768);stroke-width:9.99999714;stroke-linecap:butt;stroke-linejoin:miter;marker:none;marker-start:none;marker-mid:none;marker-end:none;stroke-miterlimit:4;stroke-dasharray:none;stroke-dashoffset:0;stroke-opacity:1;visibility:visible;display:inline;overflow:visible"
       d="M 257.96834,538.56022 C 257.96834,563.53548 247.89341,583.80981 235.47488,583.80981 C 235.32935,583.80981 235.17614,583.81536 235.03127,583.80981 C 222.89486,583.34553 213.08518,563.51878 212.95533,539.64066 C 212.82098,515.47571 202.79684,493.81235 190.46186,493.81235 C 178.04334,493.81235 167.9684,514.08669 167.9684,539.06195"
       id="path4750"
       sodipodi:nodetypes="csccsc" />
    <path
       style="color:#000000;fill:none;fill-opacity:1;fill-rule:evenodd;stroke:url(#linearGradient4782);stroke-width:9.99999714;stroke-linecap:butt;stroke-linejoin:miter;marker:none;marker-start:none;marker-mid:none;marker-end:none;stroke-miterlimit:4;stroke-dasharray:none;stroke-dashoffset:0;stroke-opacity:1;visibility:visible;display:inline;overflow:visible"
       d="M 347.96834,538.56022 C 347.96834,563.53548 337.89341,583.80981 325.47488,583.80981 C 325.32935,583.80981 325.17614,583.81536 325.03127,583.80981 C 312.89486,583.34553 303.08518,563.51878 302.95533,539.64066 C 302.82098,515.47571 292.79684,493.81235 280.46186,493.81235 C 268.04334,493.81235 257.9684,514.08669 257.9684,539.06195"
       id="path4752"
       sodipodi:nodetypes="csccsc" />
    <path
       style="fill:#000000;fill-opacity:1;fill-rule:nonzero;stroke:none;stroke-width:1px;stroke-linecap:butt;stroke-linejoin:miter;stroke-opacity:1"
       id="path4916"
       d="M 229.14566,879.09355 C 234.39931,881.1223 239.88452,882.70516 245.43798,883.82585 C 248.98509,884.1054 245.97603,889.70397 244.57277,875.60099 C 243.87114,868.2366 239.55508,862.21016 236.2817,855.82717 C 234.52975,848.34387 235.17045,840.89532 236.88496,833.53383 C 240.34583,822.52528 248.66713,819.25012 258.46644,814.25992 C 266.20812,812.2973 273.45409,810.04623 281.50292,809.68572 C 289.55354,811.98477 309.6022,803.0411 294.78786,811.30728 C 301.68176,806.38159 305.89481,799.33928 309.66432,791.9486 C 312.33704,786.7159 313.52854,781.15998 314.48221,775.4516 L 323.40403,771.00227 C 322.68296,776.85463 321.31631,782.43934 318.70801,787.78567 C 315.01143,795.29776 310.8818,802.49195 304.0813,807.65545 C 293.3816,813.96968 285.76907,816.65937 273.45402,815.56941 C 265.52738,816.17453 258.24238,818.33497 250.58613,820.37942 C 250.19902,821.04878 253.75665,815.78955 245.93587,829.3077 C 244.07174,836.45139 243.41084,843.64767 245.02735,850.99301 C 248.29264,857.41787 252.63333,863.50401 253.38194,870.88936 C 254.67112,881.99858 250.70095,889.75326 237.28908,889.58947 C 231.78261,888.33522 226.3746,886.56338 220.98535,885.02235 L 229.14566,879.09355 z " />
    <path
       style="fill:url(#linearGradient4935);fill-opacity:1;fill-rule:nonzero;stroke:#ffb700;stroke-width:1px;stroke-linecap:butt;stroke-linejoin:miter;stroke-opacity:1"
       d="M 432.0878,656.68555 C 420.56433,660.56483 409.15081,665.61755 399.69971,673.34164 C 393.57104,678.3504 387.88997,684.89446 386.08202,692.70923 C 383.72821,702.88345 386.93424,713.46816 384.96221,723.74538 C 384.08016,728.34216 385.17508,733.70258 381.95368,737.57618 C 379.10923,740.99652 372.65553,746.54546 373.14236,747.61688 C 373.61339,748.65352 381.66329,747.49229 385.87835,746.9774 C 392.89453,746.12033 398.29893,741.07512 404.20915,737.64352 C 409.64665,734.4864 414.75602,730.78189 420.00363,727.35515 C 424.49446,724.42259 427.92799,719.96115 430.75024,715.46191 C 435.1528,708.44334 437.08062,699.76222 435.37077,691.39305 C 433.49427,682.20815 433.97236,672.46514 437.26733,663.49252 C 438.85416,659.17138 443.25286,657.62908 446.26288,654.75778 C 447.60074,653.48157 442.08497,654.56846 440.53028,654.76836 C 437.67469,655.13553 434.82895,655.76277 432.0878,656.68555 z "
       id="path4918"
       sodipodi:nodetypes="cssssssssssssss" />
    <path
       style="fill:none;fill-opacity:0.75;fill-rule:evenodd;stroke:#000000;stroke-width:1px;stroke-linecap:butt;stroke-linejoin:miter;stroke-opacity:1"
       d="M 615.07937,815.92038 C 605.1323,813.87685 597.05846,818.45354 590.27778,827.49446 C 583.36175,836.71583 581.211,838.95996 578.7037,848.98917 C 576.54355,857.62976 575.39057,863.88263 572.08995,870.48388 C 567.85019,878.96339 563.66858,881.68313 555.55556,883.71139 C 546.46366,885.98436 536.95555,883.60835 550.59524,887.01827 C 557.80532,888.82079 567.92087,887.01827 575.39683,887.01827 C 585.97366,887.01827 590.58304,886.713 596.89153,880.40451 C 603.77158,873.52446 605.85985,869.33282 608.46561,858.9098 C 610.42401,851.0762 613.96113,844.61187 616.7328,839.06853 C 616.91109,838.71196 630.78388,834.52315 631.61376,834.10821"
       id="path4922" />
    <path
       sodipodi:type="arc"
       style="opacity:1;color:#000000;fill:url(#linearGradient4945);fill-opacity:1;fill-rule:evenodd;stroke:#ffb700;stroke-width:1;stroke-linecap:butt;stroke-linejoin:miter;marker:none;marker-start:none;marker-mid:none;marker-end:none;stroke-miterlimit:4;stroke-dasharray:none;stroke-dashoffset:0;stroke-opacity:1;visibility:visible;display:inline;overflow:visible"
       id="path4937"
       sodipodi:cx="281.71188"
       sodipodi:cy="694.28125"
       sodipodi:rx="44.990841"
       sodipodi:ry="47.067341"
       d="M 326.70272 694.28125 A 44.990841 47.067341 0 1 1  236.72104,694.28125 A 44.990841 47.067341 0 1 1  326.70272 694.28125 z"
       transform="translate(-1.241699,0)" />
    <path
       sodipodi:type="arc"
       style="opacity:1;color:#000000;fill:url(#linearGradient4963);fill-opacity:1;fill-rule:evenodd;stroke:#ffb700;stroke-width:3.57276058;stroke-linecap:butt;stroke-linejoin:miter;marker:none;marker-start:none;marker-mid:none;marker-end:none;stroke-miterlimit:4;stroke-dasharray:none;stroke-dashoffset:0;stroke-opacity:1;visibility:visible;display:inline;overflow:visible"
       id="path4959"
       sodipodi:cx="281.71188"
       sodipodi:cy="694.28125"
       sodipodi:rx="44.990841"
       sodipodi:ry="47.067341"
       d="M 326.70272 694.28125 A 44.990841 47.067341 0 1 1  236.72104,694.28125 A 44.990841 47.067341 0 1 1  326.70272 694.28125 z"
       transform="matrix(0.226951,0,0,0.345191,192.7854,436.1865)" />
    <path
       sodipodi:type="arc"
       style="opacity:1;color:#000000;fill:url(#linearGradient4965);fill-opacity:1;fill-rule:evenodd;stroke:#ffb700;stroke-width:3.57276058;stroke-linecap:butt;stroke-linejoin:miter;marker:none;marker-start:none;marker-mid:none;marker-end:none;stroke-miterlimit:4;stroke-dasharray:none;stroke-dashoffset:0;stroke-opacity:1;visibility:visible;display:inline;overflow:visible"
       id="path4961"
       sodipodi:cx="281.71188"
       sodipodi:cy="694.28125"
       sodipodi:rx="44.990841"
       sodipodi:ry="47.067341"
       d="M 326.70272 694.28125 A 44.990841 47.067341 0 1 1  236.72104,694.28125 A 44.990841 47.067341 0 1 1  326.70272 694.28125 z"
       transform="matrix(0.226951,0,0,0.345191,240.2854,436.1865)" />
    <path
       sodipodi:type="arc"
       style="opacity:1;color:#000000;fill:url(#linearGradient4979);fill-opacity:1;fill-rule:evenodd;stroke:#ffb700;stroke-width:3.57276058;stroke-linecap:butt;stroke-linejoin:miter;marker:none;marker-start:none;marker-mid:none;marker-end:none;stroke-miterlimit:4;stroke-dasharray:none;stroke-dashoffset:0;stroke-opacity:1;visibility:visible;display:inline;overflow:visible"
       id="path4975"
       sodipodi:cx="281.71188"
       sodipodi:cy="694.28125"
       sodipodi:rx="44.990841"
       sodipodi:ry="47.067341"
       d="M 326.70272 694.28125 A 44.990841 47.067341 0 1 1  236.72104,694.28125 A 44.990841 47.067341 0 1 1  326.70272 694.28125 z"
       transform="matrix(0.226951,0,0,0.345191,192.7854,488.6865)" />
    <path
       sodipodi:type="arc"
       style="opacity:1;color:#000000;fill:url(#linearGradient4981);fill-opacity:1;fill-rule:evenodd;stroke:#ffb700;stroke-width:3.57276058;stroke-linecap:butt;stroke-linejoin:miter;marker:none;marker-start:none;marker-mid:none;marker-end:none;stroke-miterlimit:4;stroke-dasharray:none;stroke-dashoffset:0;stroke-opacity:1;visibility:visible;display:inline;overflow:visible"
       id="path4977"
       sodipodi:cx="281.71188"
       sodipodi:cy="694.28125"
       sodipodi:rx="44.990841"
       sodipodi:ry="47.067341"
       d="M 326.70272 694.28125 A 44.990841 47.067341 0 1 1  236.72104,694.28125 A 44.990841 47.067341 0 1 1  326.70272 694.28125 z"
       transform="matrix(0.226951,0,0,0.345191,240.2854,488.6865)" />
    <path
       sodipodi:type="arc"
       style="opacity:1;color:#000000;fill:url(#linearGradient4985);fill-opacity:1;fill-rule:evenodd;stroke:#ffb700;stroke-width:1.84332347;stroke-linecap:butt;stroke-linejoin:miter;marker:none;marker-start:none;marker-mid:none;marker-end:none;stroke-miterlimit:4;stroke-dasharray:none;stroke-dashoffset:0;stroke-opacity:1;visibility:visible;display:inline;overflow:visible"
       id="path4983"
       sodipodi:cx="281.71188"
       sodipodi:cy="694.28125"
       sodipodi:rx="44.990841"
       sodipodi:ry="47.067341"
       d="M 326.70272 694.28125 A 44.990841 47.067341 0 1 1  236.72104,694.28125 A 44.990841 47.067341 0 1 1  326.70272 694.28125 z"
       transform="matrix(0.680474,0,0,0.432499,170.767,324.0963)" />
    <path
       sodipodi:type="arc"
       style="opacity:1;color:#000000;fill:#ffffff;fill-opacity:1;fill-rule:evenodd;stroke:#ffb700;stroke-width:1;stroke-linecap:butt;stroke-linejoin:miter;marker:none;marker-start:none;marker-mid:none;marker-end:none;stroke-miterlimit:4;stroke-dasharray:none;stroke-dashoffset:0;stroke-opacity:1;visibility:visible;display:inline;overflow:visible"
       id="path4987"
       sodipodi:cx="350.69785"
       sodipodi:cy="622.75732"
       sodipodi:rx="3.2301116"
       sodipodi:ry="5.9987788"
       d="M 353.92796 622.75732 A 3.2301116 5.9987788 0 1 1  347.46773,622.75732 A 3.2301116 5.9987788 0 1 1  353.92796 622.75732 z"
       transform="translate(2.5,0)" />
    <path
       sodipodi:type="arc"
       style="opacity:1;color:#000000;fill:#ffffff;fill-opacity:1;fill-rule:evenodd;stroke:#ffb700;stroke-width:1;stroke-linecap:butt;stroke-linejoin:miter;marker:none;marker-start:none;marker-mid:none;marker-end:none;stroke-miterlimit:4;stroke-dasharray:none;stroke-dashoffset:0;stroke-opacity:1;visibility:visible;display:inline;overflow:visible"
       id="path4991"
       sodipodi:cx="350.69785"
       sodipodi:cy="622.75732"
       sodipodi:rx="3.2301116"
       sodipodi:ry="5.9987788"
       d="M 353.92796 622.75732 A 3.2301116 5.9987788 0 1 1  347.46773,622.75732 A 3.2301116 5.9987788 0 1 1  353.92796 622.75732 z"
       transform="translate(22.5,0)" />
    <path
       sodipodi:type="arc"
       style="opacity:1;color:#000000;fill:url(#linearGradient4995);fill-opacity:1;fill-rule:evenodd;stroke:#ffb700;stroke-width:9.0575428;stroke-linecap:butt;stroke-linejoin:miter;marker:none;marker-start:none;marker-mid:none;marker-end:none;stroke-miterlimit:4;stroke-dasharray:none;stroke-dashoffset:0;stroke-opacity:1;visibility:visible;display:inline;overflow:visible"
       id="path4993"
       sodipodi:cx="281.71188"
       sodipodi:cy="694.28125"
       sodipodi:rx="44.990841"
       sodipodi:ry="47.067341"
       d="M 326.70272 694.28125 A 44.990841 47.067341 0 1 1  236.72104,694.28125 A 44.990841 47.067341 0 1 1  326.70272 694.28125 z"
       transform="matrix(0.138485,0,0,8.801897e-2,324.0484,570.184)" />
    <path
       sodipodi:type="arc"
       style="opacity:1;color:#000000;fill:#ffffff;fill-opacity:1;fill-rule:evenodd;stroke:#ff0000;stroke-width:9.0575428;stroke-linecap:butt;stroke-linejoin:miter;marker:none;marker-start:none;marker-mid:none;marker-end:none;stroke-miterlimit:4;stroke-dasharray:none;stroke-dashoffset:0;stroke-opacity:1;visibility:visible;display:inline;overflow:visible"
       id="path4997"
       sodipodi:cx="281.71188"
       sodipodi:cy="694.28125"
       sodipodi:rx="44.990841"
       sodipodi:ry="47.067341"
       d="M 326.70272,694.28125 A 44.990841,47.067341 0 0 1 237.40953,702.48385"
       transform="matrix(0.138485,0,0,8.801897e-2,324.0484,577.684)"
       sodipodi:start="0"
       sodipodi:end="2.9664246"
       sodipodi:open="true" />
    <path
       sodipodi:type="arc"
       style="opacity:1;color:#000000;fill:url(#linearGradient5007);fill-opacity:1;fill-rule:evenodd;stroke:#ffb700;stroke-width:9.0575428;stroke-linecap:butt;stroke-linejoin:miter;marker:none;marker-start:none;marker-mid:none;marker-end:none;stroke-miterlimit:4;stroke-dasharray:none;stroke-dashoffset:0;stroke-opacity:1;visibility:visible;display:inline;overflow:visible"
       id="path5005"
       sodipodi:cx="281.71188"
       sodipodi:cy="694.28125"
       sodipodi:rx="44.990841"
       sodipodi:ry="47.067341"
       d="M 326.70272 694.28125 A 44.990841 47.067341 0 1 1  236.72104,694.28125 A 44.990841 47.067341 0 1 1  326.70272 694.28125 z"
       transform="matrix(0.138485,0,0,8.801897e-2,298.669,548.9576)" />
    <path
       sodipodi:type="arc"
       style="opacity:1;color:#000000;fill:url(#linearGradient5011);fill-opacity:1;fill-rule:evenodd;stroke:#ffb700;stroke-width:9.0575428;stroke-linecap:butt;stroke-linejoin:miter;marker:none;marker-start:none;marker-mid:none;marker-end:none;stroke-miterlimit:4;stroke-dasharray:none;stroke-dashoffset:0;stroke-opacity:1;visibility:visible;display:inline;overflow:visible"
       id="path5009"
       sodipodi:cx="281.71188"
       sodipodi:cy="694.28125"
       sodipodi:rx="44.990841"
       sodipodi:ry="47.067341"
       d="M 326.70272 694.28125 A 44.990841 47.067341 0 1 1  236.72104,694.28125 A 44.990841 47.067341 0 1 1  326.70272 694.28125 z"
       transform="matrix(0.138485,0,0,8.801897e-2,345.7363,548.0347)" />
    <path
       sodipodi:type="arc"
       style="opacity:1;color:#000000;fill:#000000;fill-opacity:1;fill-rule:evenodd;stroke:#00ff00;stroke-width:1.44774354;stroke-linecap:butt;stroke-linejoin:miter;marker:none;marker-start:none;marker-mid:none;marker-end:none;stroke-miterlimit:4;stroke-dasharray:none;stroke-dashoffset:0;stroke-opacity:1;visibility:visible;display:inline;overflow:visible"
       id="path5013"
       sodipodi:cx="350.69785"
       sodipodi:cy="622.75732"
       sodipodi:rx="3.2301116"
       sodipodi:ry="5.9987788"
       d="M 353.92796 622.75732 A 3.2301116 5.9987788 0 1 1  347.46773,622.75732 A 3.2301116 5.9987788 0 1 1  353.92796 622.75732 z"
       transform="matrix(0.69073,0,0,0.69073,112.1139,194.61)" />
    <path
       sodipodi:type="arc"
       style="opacity:1;color:#000000;fill:#000000;fill-opacity:1;fill-rule:evenodd;stroke:#00ff00;stroke-width:1.44774354;stroke-linecap:butt;stroke-linejoin:miter;marker:none;marker-start:none;marker-mid:none;marker-end:none;stroke-miterlimit:4;stroke-dasharray:none;stroke-dashoffset:0;stroke-opacity:1;visibility:visible;display:inline;overflow:visible"
       id="path5017"
       sodipodi:cx="350.69785"
       sodipodi:cy="622.75732"
       sodipodi:rx="3.2301116"
       sodipodi:ry="5.9987788"
       d="M 353.92796 622.75732 A 3.2301116 5.9987788 0 1 1  347.46773,622.75732 A 3.2301116 5.9987788 0 1 1  353.92796 622.75732 z"
       transform="matrix(0.69073,0,0,0.69073,129.6139,194.61)" />
  </g>
</svg>
