<?xml version="1.0" encoding="UTF-8" standalone="no"?>
<!-- Created with Inkscape (http://www.inkscape.org/) -->
<svg
   xmlns:dc="http://purl.org/dc/elements/1.1/"
   xmlns:cc="http://web.resource.org/cc/"
   xmlns:rdf="http://www.w3.org/1999/02/22-rdf-syntax-ns#"
   xmlns:svg="http://www.w3.org/2000/svg"
   xmlns="http://www.w3.org/2000/svg"
   xmlns:sodipodi="http://inkscape.sourceforge.net/DTD/sodipodi-0.dtd"
   xmlns:inkscape="http://www.inkscape.org/namespaces/inkscape"
   width="744.09448819"
   height="1052.3622047"
   id="svg2"
   sodipodi:version="0.32"
   inkscape:version="0.43"
   sodipodi:docbase="/home/bjmey/arch/src/eruta_rubyforge/eruta/main/share/image"
   sodipodi:docname="emo.svg">
  <defs
     id="defs4">
    <linearGradient
       id="linearGradient2206">
      <stop
         style="stop-color:#000000;stop-opacity:1;"
         offset="0"
         id="stop2208" />
      <stop
         style="stop-color:#808080;stop-opacity:1;"
         offset="1"
         id="stop2210" />
    </linearGradient>
  </defs>
  <sodipodi:namedview
     id="base"
     pagecolor="#ffffff"
     bordercolor="#666666"
     borderopacity="1.0"
     inkscape:pageopacity="0.0"
     inkscape:pageshadow="2"
     inkscape:zoom="1.44"
     inkscape:cx="363.13486"
     inkscape:cy="870.13616"
     inkscape:document-units="px"
     inkscape:current-layer="layer1"
     showguides="true"
     inkscape:guide-bbox="true"
     inkscape:guide-points="true"
     guidetolerance="1px"
     inkscape:window-width="1280"
     inkscape:window-height="991"
     inkscape:window-x="0"
     inkscape:window-y="0">
    <sodipodi:guide
       orientation="vertical"
       position="50"
       id="guide2214" />
    <sodipodi:guide
       orientation="horizontal"
       position="1000"
       id="guide2216" />
    <sodipodi:guide
       orientation="vertical"
       position="100"
       id="guide2218" />
    <sodipodi:guide
       orientation="horizontal"
       position="870"
       id="guide2220" />
    <sodipodi:guide
       orientation="vertical"
       position="85"
       id="guide2222" />
    <sodipodi:guide
       orientation="vertical"
       position="115"
       id="guide2224" />
    <sodipodi:guide
       orientation="horizontal"
       position="900"
       id="guide2228" />
    <sodipodi:guide
       orientation="horizontal"
       position="902.32699"
       id="guide2231" />
    <sodipodi:guide
       orientation="vertical"
       position="150"
       id="guide2233" />
    <sodipodi:guide
       orientation="vertical"
       position="245"
       id="guide2257" />
    <sodipodi:guide
       orientation="horizontal"
       position="820"
       id="guide2263" />
    <sodipodi:guide
       orientation="horizontal"
       position="715"
       id="guide2269" />
    <sodipodi:guide
       orientation="horizontal"
       position="792.90445"
       id="guide2278" />
    <sodipodi:guide
       orientation="horizontal"
       position="843.9429"
       id="guide2280" />
    <sodipodi:guide
       orientation="horizontal"
       position="765.57677"
       id="guide2282" />
  </sodipodi:namedview>
  <metadata
     id="metadata7">
    <rdf:RDF>
      <cc:Work
         rdf:about="">
        <dc:format>image/svg+xml</dc:format>
        <dc:type
           rdf:resource="http://purl.org/dc/dcmitype/StillImage" />
      </cc:Work>
    </rdf:RDF>
  </metadata>
  <g
     inkscape:label="Layer 1"
     inkscape:groupmode="layer"
     id="layer1">
    <path
       style="opacity:1;color:#000000;fill:#ffffff;fill-opacity:1;fill-rule:nonzero;stroke:#000000;stroke-width:10;stroke-linecap:round;stroke-linejoin:round;marker:none;marker-start:none;marker-mid:none;marker-end:none;stroke-miterlimit:4;stroke-dasharray:none;stroke-dashoffset:0;stroke-opacity:1;visibility:visible;display:inline;overflow:visible"
       d="M 115,152.53519 L 137.5,152.375 C 143.04,152.375 150,147.915 150,142.375 L 150,64.875 C 150,59.335 143.04,52.375 137.5,52.375 L 62.5,52.375 C 62.283594,52.375 62.056659,52.361591 61.84375,52.375 C 56.606191,52.704871 50,59.551406 50,64.875 L 50,139.875 C 50,145.415 56.96,152.375 62.5,152.375 C 68.04,152.375 85,152.53519 85,152.53519 C 85,152.53519 100,182.375 100,182.375 L 115,152.53519 z "
       id="rect1307"
       sodipodi:nodetypes="ccccccccccccc"
       inkscape:export-filename="/home/bjmey/arch/src/eruta_rubyforge/eruta/main/share/image/emo2.png"
       inkscape:export-xdpi="49.529999"
       inkscape:export-ydpi="49.529999" />
    <path
       style="opacity:1;color:#000000;fill:#ff0000;fill-opacity:1;fill-rule:nonzero;stroke:#c80000;stroke-width:12.59629631;stroke-linecap:round;stroke-linejoin:round;marker:none;marker-start:none;marker-mid:none;marker-end:none;stroke-miterlimit:4;stroke-dasharray:none;stroke-dashoffset:0;stroke-opacity:1;visibility:visible;display:inline;overflow:visible"
       d="M 64.978524,627.83282 C 41.082354,628.88764 21.949054,648.91409 21.978524,672.80157 C 22.011974,699.91555 48.894034,726.93844 111.97852,777.83282 C 165.81983,727.24323 201.97852,699.69096 201.97852,672.83282 C 201.97852,648.8771 181.81855,627.83283 156.97852,627.83282 C 156.49336,627.83282 156.02249,627.81755 155.54102,627.83282 C 155.44661,627.83581 155.35404,627.82924 155.25977,627.83282 C 131.60765,628.73003 112.58279,647.95 111.97852,671.67657 C 111.36208,647.37239 91.4304,627.83283 66.978524,627.83282 C 66.493364,627.83282 66.022494,627.81755 65.541024,627.83282 C 65.446614,627.83581 65.354044,627.82924 65.259774,627.83282 C 65.165874,627.83638 65.072274,627.82868 64.978524,627.83282 z "
       id="path2253"
       sodipodi:nodetypes="cscsssscsssc" />
    <rect
       style="opacity:1;color:#000000;fill:#ff0000;fill-opacity:1;fill-rule:nonzero;stroke:#c80000;stroke-width:10;stroke-linecap:round;stroke-linejoin:round;marker:none;marker-start:none;marker-mid:none;marker-end:none;stroke-miterlimit:4;stroke-dasharray:none;stroke-dashoffset:0;stroke-opacity:1;visibility:visible;display:inline;overflow:visible"
       id="rect2261"
       width="8"
       height="0"
       x="136"
       y="269.36218"
       rx="10"
       ry="0" />
    <path
       style="opacity:1;color:#000000;fill:#ff0000;fill-opacity:1;fill-rule:nonzero;stroke:#c80000;stroke-width:6.25000191;stroke-linecap:round;stroke-linejoin:round;marker:none;marker-start:none;marker-mid:none;marker-end:none;stroke-miterlimit:4;stroke-dasharray:none;stroke-dashoffset:0;stroke-opacity:1;visibility:visible;display:inline;overflow:visible"
       d="M 83.354176,76.493321 C 74.890951,76.857301 68.114575,83.767731 68.125012,92.01046 C 68.136858,101.36654 77.657587,110.6912 100.00001,128.25306 C 119.06879,110.79637 131.875,101.28905 131.875,92.02125 C 131.875,83.754961 124.73501,76.493331 115.9375,76.493321 C 115.76567,76.493321 115.5989,76.488061 115.42839,76.493321 C 115.39495,76.494361 115.36216,76.492081 115.32878,76.493321 C 106.95198,76.802921 100.21401,83.435061 100.00001,91.62227 C 99.781684,83.235751 92.722554,76.493331 84.062509,76.493321 C 83.890681,76.493321 83.723916,76.488061 83.553395,76.493321 C 83.519957,76.494361 83.487173,76.492081 83.453785,76.493321 C 83.420529,76.494561 83.387379,76.491901 83.354176,76.493321 z "
       id="path2284"
       sodipodi:nodetypes="cscsssscsssc"
       inkscape:export-filename="/home/bjmey/arch/src/eruta_rubyforge/eruta/main/share/image/emo2.png"
       inkscape:export-xdpi="49.529999"
       inkscape:export-ydpi="49.529999" />
    <path
       style="opacity:1;color:#000000;fill:#ffffff;fill-opacity:1;fill-rule:nonzero;stroke:#000000;stroke-width:10;stroke-linecap:round;stroke-linejoin:round;marker:none;marker-start:none;marker-mid:none;marker-end:none;stroke-miterlimit:4;stroke-dasharray:none;stroke-dashoffset:0;stroke-opacity:1;visibility:visible;display:inline;overflow:visible"
       d="M 315,152.53519 L 337.5,152.375 C 343.04,152.375 350,147.915 350,142.375 L 350,64.875 C 350,59.335 343.04,52.375 337.5,52.375 L 262.5,52.375 C 262.28359,52.375 262.05666,52.361591 261.84375,52.375 C 256.60619,52.704871 250,59.551406 250,64.875 L 250,139.875 C 250,145.415 256.96,152.375 262.5,152.375 C 268.04,152.375 285,152.53519 285,152.53519 C 285,152.53519 300,182.375 300,182.375 L 315,152.53519 z "
       id="path2305"
       sodipodi:nodetypes="ccccccccccccc"
       inkscape:export-filename="/home/bjmey/arch/src/eruta_rubyforge/eruta/main/share/image/emo2.png"
       inkscape:export-xdpi="49.529999"
       inkscape:export-ydpi="49.529999" />
    <g
       id="g2307"
       transform="matrix(1,0,0,0.872337,-42.5,-14.28114)"
       inkscape:export-filename="/home/bjmey/arch/src/eruta_rubyforge/eruta/main/share/image/emo2.png"
       inkscape:export-xdpi="49.529999"
       inkscape:export-ydpi="49.529999">
      <path
         sodipodi:nodetypes="cssc"
         id="path2286"
         d="M 370.57956,153.05663 C 370.57956,167.23996 357.25129,178.75107 340.82894,178.75107 C 324.40659,178.75107 311.07831,167.23996 311.07831,153.05663 C 311.07831,152.82234 311.08129,152.62421 311.08833,152.39"
         style="color:#000000;fill:none;fill-opacity:1;fill-rule:nonzero;stroke:#000000;stroke-width:6.69172144;stroke-linecap:round;stroke-linejoin:round;marker:none;marker-start:none;marker-mid:none;marker-end:none;stroke-miterlimit:4;stroke-dashoffset:0;stroke-opacity:1;visibility:visible;display:inline;overflow:visible" />
      <g
         transform="translate(-9.008096,20)"
         id="g2297">
        <path
           sodipodi:type="arc"
           style="opacity:1;color:#000000;fill:none;fill-opacity:1;fill-rule:nonzero;stroke:#000000;stroke-width:4.24578094;stroke-linecap:round;stroke-linejoin:round;marker:none;marker-start:none;marker-mid:none;marker-end:none;stroke-miterlimit:4;stroke-dasharray:none;stroke-dashoffset:0;stroke-opacity:1;visibility:visible;display:inline;overflow:visible"
           id="path2289"
           sodipodi:cx="341.31946"
           sodipodi:cy="100.62607"
           sodipodi:rx="21.180555"
           sodipodi:ry="28.819445"
           d="M 362.50001 100.62607 A 21.180555 28.819445 0 1 1  320.1389,100.62607 A 21.180555 28.819445 0 1 1  362.50001 100.62607 z"
           transform="matrix(0.630435,0,0,0.630435,112.1573,25.38234)" />
        <path
           sodipodi:type="arc"
           style="opacity:1;color:#000000;fill:#000000;fill-opacity:1;fill-rule:nonzero;stroke:#800000;stroke-width:10.61445522;stroke-linecap:round;stroke-linejoin:round;marker:none;marker-start:none;marker-mid:none;marker-end:none;stroke-miterlimit:4;stroke-dasharray:none;stroke-dashoffset:0;stroke-opacity:1;visibility:visible;display:inline;overflow:visible"
           id="path2291"
           sodipodi:cx="342.36111"
           sodipodi:cy="101.66774"
           sodipodi:rx="9.0277777"
           sodipodi:ry="11.805555"
           d="M 351.38889 101.66774 A 9.0277777 11.805555 0 1 1  333.33334,101.66774 A 9.0277777 11.805555 0 1 1  351.38889 101.66774 z"
           transform="matrix(0.630435,0,0,0.630435,111.5006,27.22563)" />
        <path
           sodipodi:type="arc"
           style="opacity:1;color:#000000;fill:none;fill-opacity:1;fill-rule:nonzero;stroke:#000000;stroke-width:4.24578094;stroke-linecap:round;stroke-linejoin:round;marker:none;marker-start:none;marker-mid:none;marker-end:none;stroke-miterlimit:4;stroke-dasharray:none;stroke-dashoffset:0;stroke-opacity:1;visibility:visible;display:inline;overflow:visible"
           id="path2293"
           sodipodi:cx="341.31946"
           sodipodi:cy="100.62607"
           sodipodi:rx="21.180555"
           sodipodi:ry="28.819445"
           d="M 362.50001 100.62607 A 21.180555 28.819445 0 1 1  320.1389,100.62607 A 21.180555 28.819445 0 1 1  362.50001 100.62607 z"
           transform="matrix(0.630435,0,0,0.630435,157.1573,25.38234)" />
        <path
           sodipodi:type="arc"
           style="opacity:1;color:#000000;fill:#000000;fill-opacity:1;fill-rule:nonzero;stroke:#800000;stroke-width:10.61445522;stroke-linecap:round;stroke-linejoin:round;marker:none;marker-start:none;marker-mid:none;marker-end:none;stroke-miterlimit:4;stroke-dasharray:none;stroke-dashoffset:0;stroke-opacity:1;visibility:visible;display:inline;overflow:visible"
           id="path2295"
           sodipodi:cx="342.36111"
           sodipodi:cy="101.66774"
           sodipodi:rx="9.0277777"
           sodipodi:ry="11.805555"
           d="M 351.38889 101.66774 A 9.0277777 11.805555 0 1 1  333.33334,101.66774 A 9.0277777 11.805555 0 1 1  351.38889 101.66774 z"
           transform="matrix(0.630435,0,0,0.630435,156.5006,27.22563)" />
      </g>
    </g>
  </g>
</svg>
