<?xml version="1.0" encoding="UTF-8" standalone="no"?>
<!-- Created with Inkscape (http://www.inkscape.org/) -->
<svg
   xmlns:dc="http://purl.org/dc/elements/1.1/"
   xmlns:cc="http://web.resource.org/cc/"
   xmlns:rdf="http://www.w3.org/1999/02/22-rdf-syntax-ns#"
   xmlns:svg="http://www.w3.org/2000/svg"
   xmlns="http://www.w3.org/2000/svg"
   xmlns:xlink="http://www.w3.org/1999/xlink"
   xmlns:sodipodi="http://inkscape.sourceforge.net/DTD/sodipodi-0.dtd"
   xmlns:inkscape="http://www.inkscape.org/namespaces/inkscape"
   width="1024px"
   height="768px"
   id="svg2315"
   sodipodi:version="0.32"
   inkscape:version="0.43"
   sodipodi:docbase="/home/bjmey/arch/src/eruta_rubyforge/eruta/main/share/image"
   sodipodi:docname="scetches.svg">
  <defs
     id="defs2317">
    <linearGradient
       inkscape:collect="always"
       id="linearGradient2347">
      <stop
         style="stop-color:#7fff00;stop-opacity:1;"
         offset="0"
         id="stop2349" />
      <stop
         style="stop-color:#ffff00;stop-opacity:0.41860464"
         offset="1"
         id="stop2351" />
    </linearGradient>
    <linearGradient
       id="linearGradient2335">
      <stop
         style="stop-color:#7fff00;stop-opacity:0.50196081;"
         offset="0"
         id="stop2337" />
      <stop
         style="stop-color:#ffff00;stop-opacity:0.25098041;"
         offset="1"
         id="stop2339" />
    </linearGradient>
    <linearGradient
       inkscape:collect="always"
       xlink:href="#linearGradient2347"
       id="linearGradient2353"
       x1="646"
       y1="218"
       x2="382"
       y2="434"
       gradientUnits="userSpaceOnUse" />
    <linearGradient
       inkscape:collect="always"
       xlink:href="#linearGradient2347"
       id="linearGradient2369"
       x1="0.97359002"
       y1="58.366032"
       x2="37.024353"
       y2="58.366032"
       gradientUnits="userSpaceOnUse" />
    <linearGradient
       inkscape:collect="always"
       xlink:href="#linearGradient2347"
       id="linearGradient2383"
       gradientUnits="userSpaceOnUse"
       x1="283.1344"
       y1="308.18982"
       x2="743.31885"
       y2="372.18982" />
  </defs>
  <sodipodi:namedview
     id="base"
     pagecolor="#ffffff"
     bordercolor="#666666"
     borderopacity="1.0"
     inkscape:pageopacity="0.0"
     inkscape:pageshadow="2"
     inkscape:zoom="0.5"
     inkscape:cx="512"
     inkscape:cy="382"
     inkscape:current-layer="layer1"
     inkscape:document-units="px"
     inkscape:window-width="1280"
     inkscape:window-height="967"
     inkscape:window-x="0"
     inkscape:window-y="0" />
  <metadata
     id="metadata2320">
    <rdf:RDF>
      <cc:Work
         rdf:about="">
        <dc:format>image/svg+xml</dc:format>
        <dc:type
           rdf:resource="http://purl.org/dc/dcmitype/StillImage" />
      </cc:Work>
    </rdf:RDF>
  </metadata>
  <g
     id="layer1"
     inkscape:label="Layer 1"
     inkscape:groupmode="layer">
    <path
       sodipodi:type="arc"
       style="opacity:1;color:#000000;fill:url(#linearGradient2353);fill-opacity:1;fill-rule:nonzero;stroke:none;stroke-width:2.5;stroke-linecap:round;stroke-linejoin:round;marker:none;marker-start:none;marker-mid:none;marker-end:none;stroke-miterlimit:4;stroke-dasharray:none;stroke-dashoffset:0;stroke-opacity:1;visibility:visible;display:inline;overflow:visible"
       id="path2345"
       sodipodi:cx="502"
       sodipodi:cy="320"
       sodipodi:rx="200"
       sodipodi:ry="200"
       d="M 702 320 A 200 200 0 1 1  302,320 A 200 200 0 1 1  702 320 z"
       transform="matrix(0.75,0,0,0.75,123.5,118)" />
    <path
       style="fill:url(#linearGradient2369);fill-opacity:1.0;fill-rule:nonzero;stroke:none;stroke-width:1px;stroke-linecap:butt;stroke-linejoin:miter;stroke-opacity:1"
       id="path2355"
       d="M 18.89013,7.53872 C 17.43787,8.362013 21.13481,-0.2369214 15.76168,16.950985 C 14.84068,25.765254 20.13667,33.097158 24.49856,40.426903 C 29.26703,47.224691 31.9897,54.791483 34.56217,62.607951 C 38.03623,70.817294 37.70883,78.306067 34.36752,86.318286 C 32.09175,93.5514 27.27965,99.11891 22.50793,104.65606 C -6.23626,123.28419 30.29651,98.06524 12.10842,111.96026 L 0.97359,116.27078 C 6.70429,112.06788 33.06495,95.51621 11.41535,109.05203 C 16.44044,103.87582 21.23132,98.4378 23.50935,91.24946 C 27.06209,83.564432 27.51089,76.432915 24.1512,68.40841 C 21.57401,60.677539 18.94639,53.148643 14.19512,46.423406 C 9.69536,38.850962 4.34988,31.261426 5.07487,22.183718 C 7.91053,9.564383 15.25385,3.275487 28.6314,0.46128 L 18.89013,7.53872 z "
       inkscape:export-filename="/home/bjmey/work/image/sdecoration.png"
       inkscape:export-xdpi="74.894394"
       inkscape:export-ydpi="74.894394" />
    <path
       sodipodi:type="arc"
       style="opacity:1;color:#000000;fill:none;fill-opacity:0.75;fill-rule:evenodd;stroke:url(#linearGradient2383);stroke-width:5.21170425;stroke-linecap:butt;stroke-linejoin:miter;marker:none;marker-start:none;marker-mid:none;marker-end:none;stroke-miterlimit:4;stroke-dasharray:none;stroke-dashoffset:0;stroke-opacity:1;visibility:visible;display:inline;overflow:visible"
       id="path2381"
       sodipodi:cx="502"
       sodipodi:cy="320"
       sodipodi:rx="200"
       sodipodi:ry="200"
       d="M 702,320 A 200,200 0 0 1 302.04164,324.08079"
       sodipodi:start="0"
       sodipodi:end="3.1211873"
       sodipodi:open="true"
       transform="matrix(1.48453,0,0,0.96875,-295.2649,11.125)" />
    <path
       style="fill:#000000;fill-opacity:1;fill-rule:nonzero;stroke:none;stroke-width:1px;stroke-linecap:butt;stroke-linejoin:miter;stroke-opacity:1"
       id="path3340"
       d="M 717.10987,100.46128 C 725.10319,106.14262 733.76224,107.87335 743.41914,108.42045 C 755.6636,107.71617 768.62633,108.05819 779.81787,103.04099 C 789.72741,95.72087 797.31792,85.87079 806.48445,77.7093 C 816.73213,67.77013 825.23214,56.39067 835.29154,46.26861 C 856.39897,34.27193 837.16057,38.66219 867.49028,27.67124 C 875.43076,24.2393 883.94544,24.52791 892.43141,24.47868 C 890.52635,30.55544 890.96093,29.42706 889.00733,30.74683 C 883.42864,36.40453 878.76189,42.94182 873.95781,49.26954 C 869.72852,56.76834 867.04386,64.55349 865.54969,72.96342 C 864.55666,83.40799 869.59103,86.23907 878.54091,89.32591 C 886.70696,93.11436 895.66135,92.51148 904.43884,92.52639 C 913.11045,92.50086 921.7821,92.50275 930.45374,92.50248 L 920.82644,99.49713 C 912.15517,99.4976 903.4839,99.49751 894.81265,99.5226 C 885.9341,99.48682 876.97535,99.90039 868.7221,96.04892 C 859.40488,92.62874 854.02611,89.15144 854.89799,78.26902 C 856.02318,69.58762 859.05946,61.8191 863.0238,54.03732 C 867.75643,47.55851 872.69767,41.22987 877.89555,35.12402 C 894.00406,24.02939 905.63437,22.03573 882.80431,31.47389 C 874.33776,31.55918 865.98839,31.51402 858.07615,34.99204 C 853.47316,36.72977 851.01733,36.34193 846.28384,41.75696 C 836.21691,51.88601 827.39359,62.97326 817.4569,73.24169 C 808.12683,81.27735 800.62314,91.19625 790.84032,98.72359 C 772.0107,110.14883 756.37338,118.06064 733.84127,115.31275 C 724.18849,114.69563 715.6272,112.53215 707.3686,107.53872 L 717.10987,100.46128 z " />
    <g
       id="g3557">
      <path
         d="M 904.89013,253.53872 C 898.29084,256.35268 908.63658,248.58915 893.20629,262.77851 C 886.00426,271.33797 885.46701,282.21005 885.26204,292.91879 C 883.91623,303.1619 888.39983,310.02785 893.96915,318.07617 C 901.02044,325.33654 902.41744,334.24204 904.51301,343.6202 C 906.64489,353.165 903.47408,359.23503 897.77541,366.45819 C 890.45556,374.4941 880.50013,379.0947 870.22386,382.02063 L 879.64726,374.7163 C 897.53892,369.35554 871.91181,381.6904 886.76505,371.02279 C 892.55369,364.21679 896.02387,358.58863 893.99317,349.22835 C 891.93023,339.98792 890.73453,331.25414 883.71662,324.11847 C 878.07105,315.89994 873.3013,308.76712 874.65894,298.31249 C 874.84063,287.40642 875.36223,276.34673 882.22173,267.35157 C 891.57442,258.61438 901.77734,249.16602 914.6314,246.46128 L 904.89013,253.53872 z "
         id="path3346"
         style="fill:#000000;fill-opacity:1;fill-rule:nonzero;stroke:none;stroke-width:1px;stroke-linecap:butt;stroke-linejoin:miter;stroke-opacity:1" />
      <path
         d="M 854.89013,333.53872 C 858.6858,331.97451 859.19745,327.28976 853.94901,341.58576 C 852.34713,351.07865 852.94113,358.90615 857.66832,367.17918 C 861.13863,371.70631 865.67343,372.83613 870.83429,374.2109 L 861.08981,381.06774 C 855.73299,379.39259 850.93884,378.02818 847.3838,373.20405 C 842.52649,364.63193 841.67575,356.62975 843.22076,346.78515 C 846.80761,335.56531 851.95704,330.22099 864.6314,326.46128 L 854.89013,333.53872 z "
         id="path3348"
         style="fill:#000000;fill-opacity:1;fill-rule:nonzero;stroke:none;stroke-width:1px;stroke-linecap:butt;stroke-linejoin:miter;stroke-opacity:1" />
      <path
         d="M 919.36424,323.50602 C 924.58202,329.36729 929.24468,335.6311 933.37252,342.37774 C 938.51421,350.4901 937.05062,356.94192 933.24581,364.94762 C 929.97904,370.99893 924.86119,375.31135 919.69503,379.59938 C 907.00054,383.44974 916.87414,387.85716 893.52655,389.48583 L 903.13352,382.45424 C 926.09113,380.24775 894.75921,391.02172 917.45911,378.70799 C 920.48228,377.06805 911.53257,382.19971 908.56931,383.94557 C 913.7982,379.84257 918.9154,375.74274 922.36031,369.85538 C 926.31245,362.30778 928.00576,356.23378 923.10199,348.37857 C 918.84693,341.40211 913.8823,335.15159 908.63576,328.97245 L 919.36424,323.50602 z "
         id="path3350"
         style="fill:#000000;fill-opacity:1;fill-rule:nonzero;stroke:none;stroke-width:1px;stroke-linecap:butt;stroke-linejoin:miter;stroke-opacity:1" />
    </g>
    <path
       style="fill:#000000;fill-opacity:1;fill-rule:nonzero;stroke:none;stroke-width:1px;stroke-linecap:butt;stroke-linejoin:miter;stroke-opacity:1"
       id="path3420"
       d="M 104.89013,579.53872 C 85.933912,585.89081 107.32478,571.4891 94.635799,584.95155 C 88.883748,592.90492 88.669956,600.89241 91.480047,609.76438 C 97.769349,618.58465 106.0455,620.10254 116.16104,620.24104 C 106.92095,628.24816 118.14781,619.23264 123.57502,606.94784 C 125.52397,597.36438 121.77698,590.3934 114.76789,584.32143 C 111.31019,581.11187 106.80899,579.9355 102.56103,578.2761 L 112.39507,571.52894 C 116.73018,573.28982 121.26096,574.67327 124.80742,577.92582 C 131.91946,584.33113 136.28811,591.84713 134.32765,601.86469 C 128.9404,615.41533 120.83749,622.38293 106.59847,627.35342 C 96.250545,626.84178 87.333432,624.91484 81.14341,615.67904 C 78.085842,606.46374 78.034746,598.13767 83.674967,589.60259 C 91.623698,580.6705 102.44033,573.01928 114.6314,572.46128 L 104.89013,579.53872 z " />
    <path
       style="fill:#000000;fill-opacity:1;fill-rule:nonzero;stroke:none;stroke-width:1px;stroke-linecap:butt;stroke-linejoin:miter;stroke-opacity:1"
       id="path3422"
       d="M 109.36424,551.50602 C 109.58758,552.7966 109.0115,554.00413 108.83745,555.23671 L 98.023608,560.36131 C 98.230089,559.21823 98.972007,558.19191 98.635757,556.97245 L 109.36424,551.50602 z " />
    <path
       style="fill:#000000;fill-opacity:1;fill-rule:nonzero;stroke:none;stroke-width:1px;stroke-linecap:butt;stroke-linejoin:miter;stroke-opacity:1"
       id="path3424"
       d="M 134.89013,565.53872 C 133.21223,565.01194 131.88083,566.46541 130.48012,566.89675 L 139.79773,559.39313 C 141.37563,559.08894 142.90831,558.05066 144.6314,558.46128 L 134.89013,565.53872 z " />
    <path
       style="fill:#000000;fill-opacity:1;fill-rule:nonzero;stroke:none;stroke-width:1px;stroke-linecap:butt;stroke-linejoin:miter;stroke-opacity:1"
       id="path3426"
       d="M 163.36424,599.50602 C 162.18607,607.5902 152.22677,605.20192 147.19832,607.32098 L 156.78965,600.229 C 155.25013,601.65977 154.5748,604.16168 152.63576,604.97245 L 163.36424,599.50602 z " />
    <path
       style="fill:#000000;fill-opacity:1;fill-rule:nonzero;stroke:none;stroke-width:1px;stroke-linecap:butt;stroke-linejoin:miter;stroke-opacity:1"
       id="path3428"
       d="M 140.89013,639.53872 C 138.20877,639.69743 136.06476,638.00272 133.72662,636.94845 L 143.68023,630.34144 C 145.98132,631.10989 147.98623,633.05522 150.6314,632.46128 L 140.89013,639.53872 z " />
    <path
       style="fill:#000000;fill-opacity:1;fill-rule:nonzero;stroke:none;stroke-width:1px;stroke-linecap:butt;stroke-linejoin:miter;stroke-opacity:1"
       id="path3430"
       d="M 104.89013,651.53872 C 103.30782,649.92914 103.24968,647.48573 102.42857,645.45705 L 112.88252,639.66985 C 113.42497,641.15601 113.87341,643.40508 114.6314,644.46128 L 104.89013,651.53872 z " />
    <path
       style="fill:#000000;fill-opacity:1;fill-rule:nonzero;stroke:none;stroke-width:1px;stroke-linecap:butt;stroke-linejoin:miter;stroke-opacity:1"
       id="path3432"
       d="M 70.635757,636.49398 C 70.379567,635.24987 71.327488,634.25639 71.660282,633.17988 L 82.629594,628.37304 C 82.230688,629.20988 81.214161,629.99245 81.364243,631.02755 L 70.635757,636.49398 z " />
    <path
       style="fill:#000000;fill-opacity:1;fill-rule:nonzero;stroke:none;stroke-width:1px;stroke-linecap:butt;stroke-linejoin:miter;stroke-opacity:1"
       id="path3434"
       d="M 65.109865,604.46128 C 65.992659,604.47725 66.875639,604.47641 67.758511,604.48398 L 58.079737,611.51602 C 57.176035,611.52359 56.272231,611.52295 55.368604,611.53872 L 65.109865,604.46128 z " />
    <path
       style="fill:#000000;fill-opacity:1;fill-rule:nonzero;stroke:none;stroke-width:1px;stroke-linecap:butt;stroke-linejoin:miter;stroke-opacity:1"
       id="path3436"
       d="M 73.109865,568.46128 C 74.207464,569.48342 75.685891,569.97695 76.994797,570.74708 L 66.979588,577.29057 C 65.818261,576.72716 64.521731,575.85011 63.368604,575.53872 L 73.109865,568.46128 z " />
    <path
       style="fill:#000000;fill-opacity:1;fill-rule:nonzero;stroke:none;stroke-width:1px;stroke-linecap:butt;stroke-linejoin:miter;stroke-opacity:1"
       id="path3458"
       d="M 298.89013,45.53872 C 289.74173,44.996209 280.88558,45.667732 271.97282,47.630324 C 278.52763,42.503953 270.52676,45.231862 267.32896,61.572002 C 263.45683,74.519259 268.13185,80.71031 277.46159,88.88523 C 283.425,93.832162 289.17453,96.991498 296.71625,98.333659 C 302.61636,98.638917 308.52949,98.534298 314.4354,98.518266 L 304.81035,105.51526 C 298.87703,105.52958 292.93163,105.65316 287.00886,105.24107 C 279.39886,103.57832 273.33983,100.29742 267.33673,95.153778 C 257.85976,86.768394 252.7986,79.97386 256.65059,66.758411 C 259.36894,51.526511 265.90043,45.911517 281.40108,40.407321 C 290.42418,38.606453 299.41794,38.134599 308.6314,38.46128 L 298.89013,45.53872 z " />
    <path
       style="fill:#000000;fill-opacity:1;fill-rule:nonzero;stroke:none;stroke-width:1px;stroke-linecap:butt;stroke-linejoin:miter;stroke-opacity:1"
       id="path3460"
       d="M 311.36424,37.506016 C 307.78724,42.667964 303.27391,47.663493 299.39469,52.837675 C 294.19981,61.528065 295.43897,68.655227 299.35748,77.304329 C 302.76992,83.855789 305.93806,89.696411 311.4694,94.413575 L 301.45986,100.88384 C 295.92114,95.893017 292.46295,90.016597 289.04903,83.239745 C 284.60995,74.458169 283.60539,66.660183 288.48544,57.668562 C 292.15082,52.586035 296.04616,46.869765 300.63576,42.972453 L 311.36424,37.506016 z " />
    <path
       style="fill:#000000;fill-opacity:1;fill-rule:nonzero;stroke:none;stroke-width:1px;stroke-linecap:butt;stroke-linejoin:miter;stroke-opacity:1"
       id="path3470"
       d="M 616.89013,33.53872 C 605.92441,32.671468 595.72677,35.34001 585.84019,39.789312 C 597.26329,31.226033 576.81805,48.441697 575.45775,60.644444 C 577.11183,70.245908 583.69916,76.811609 591.02479,82.65136 C 598.62221,87.368181 607.12253,89.520077 615.70701,91.494105 C 619.37817,91.923398 622.94911,92.777118 626.57694,93.460389 L 616.80977,100.26149 C 613.16533,99.602447 609.54676,98.836508 605.88766,98.265627 C 597.17756,96.300024 588.60769,93.884833 580.98631,89.015261 C 573.43456,82.927658 566.74157,76.01835 564.88656,66.148372 C 566.32888,48.319775 579.822,40.594327 595.06056,32.404797 C 605.16111,28.093625 615.57444,25.791362 626.6314,26.46128 L 616.89013,33.53872 z " />
    <path
       style="fill:#000000;fill-opacity:1;fill-rule:nonzero;stroke:none;stroke-width:1px;stroke-linecap:butt;stroke-linejoin:miter;stroke-opacity:1"
       id="path3472"
       d="M 614.89013,35.53872 C 635.10491,21.378793 614.57219,41.085846 610.48659,48.092632 C 606.81105,56.242149 607.80548,62.404245 610.96157,70.339057 C 613.40536,78.228393 618.99895,83.836539 624.59676,89.570383 L 614.44699,95.833529 C 608.7654,89.981345 603.10744,84.210395 600.58201,76.210133 C 597.32122,68.076289 595.93725,61.537877 599.67732,53.130409 C 605.58482,42.233971 612.86411,33.574115 624.6314,28.46128 L 614.89013,35.53872 z " />
    <path
       style="fill:#000000;fill-opacity:1;fill-rule:nonzero;stroke:none;stroke-width:1px;stroke-linecap:butt;stroke-linejoin:miter;stroke-opacity:1"
       id="path3480"
       d="M 222.89013,213.53872 C 231.74148,207.07156 217.75575,217.18492 203.35878,226.17421 C 187.66356,234.63875 168.5929,251.62741 150.87176,240.47299 C 141.80248,230.85131 144.94139,220.65474 152.35109,211.27295 C 169.15536,197.65674 177.84303,201.58371 195.80874,207.28663 C 210.08203,212.95339 224.87503,217.10256 239.49206,221.72092 C 249.17349,225.54306 259.70741,227.01538 269.81888,227.25197 C 269.10006,229.78087 271.40622,230.62255 271.79212,215.14801 C 269.96091,205.22333 264.12034,203.43716 255.18907,201.73706 C 245.13008,200.46651 235.35253,202.47235 225.45189,203.6895 C 220.08588,204.3633 214.99937,205.78621 209.89571,207.42224 L 219.35355,200.1009 C 224.48719,198.53198 229.62096,197.26696 234.95964,196.52537 C 244.93354,195.30444 254.79936,193.53315 264.90705,194.84238 C 274.14287,196.90655 280.48572,199.23451 282.33235,209.61956 C 282.46426,224.42408 274.57458,228.41347 260.3294,234.46744 C 250.00785,233.67191 239.42878,232.32627 229.65271,228.35358 C 215.06291,223.70292 200.31014,219.51335 186.0323,213.91953 C 171.28443,209.20407 154.86716,205.66524 163.312,206.73567 C 155.93411,215.28295 152.12785,224.91409 160.90777,234.11714 C 174.53916,242.11113 194.92871,230.94652 192.49607,230.39866 C 205.57881,222.13371 218.41905,212.10607 232.6314,206.46128 L 222.89013,213.53872 z " />
    <path
       style="fill:#000000;fill-opacity:1;fill-rule:nonzero;stroke:none;stroke-width:1px;stroke-linecap:butt;stroke-linejoin:miter;stroke-opacity:1"
       id="path3482"
       d="M 213.36424,157.50602 C 213.23578,167.81569 213.27418,178.12691 213.27148,188.43726 C 213.22771,203.15017 213.24631,217.86303 213.28969,232.5759 C 213.30451,239.37094 213.30167,246.16601 213.30181,252.96106 L 202.69819,258.36388 C 202.69833,251.56471 202.6955,244.76552 202.71031,237.96636 C 202.75357,223.24731 202.77237,208.52826 202.72852,193.80917 C 202.72582,183.53033 202.76465,173.2506 202.63576,162.97245 L 213.36424,157.50602 z " />
    <path
       style="fill:#000000;fill-opacity:1;fill-rule:nonzero;stroke:none;stroke-width:1px;stroke-linecap:butt;stroke-linejoin:miter;stroke-opacity:1"
       id="path3484"
       d="M 246.63576,404.49398 C 245.86248,394.64032 247.78454,386.10742 252.65537,377.61318 C 260.58447,366.75359 272.32852,360.1371 285.4138,361.77552 C 293.07805,368.62722 291.34268,376.04152 287.15009,384.33028 C 269.50881,402.50245 277.90835,393.697 259.38298,403.27808 C 258.44062,403.7968 257.37443,404.00208 256.37496,404.36235 L 265.79242,397.03624 C 265.80698,397.03056 268.75556,395.9788 268.74805,395.88398 C 285.20351,388.19792 240.63435,411.73243 276.21524,392.39618 C 279.16058,390.79555 270.45507,395.82696 267.55673,397.51118 C 264.07283,399.53566 280.22423,389.00751 276.19511,389.05524 C 280.37027,381.67253 282.86985,374.70395 275.51154,368.44389 C 255.57379,367.32615 277.92723,361.6539 263.54955,372.83054 C 258.47616,381.05705 256.34297,389.2833 257.36424,399.02755 L 246.63576,404.49398 z " />
    <path
       style="fill:#000000;fill-opacity:1;fill-rule:nonzero;stroke:none;stroke-width:1px;stroke-linecap:butt;stroke-linejoin:miter;stroke-opacity:1"
       id="path3486"
       d="M 246.89013,407.53872 C 239.71717,404.25719 234.98798,396.77109 229.64027,390.9432 C 219.21452,378.09615 216.61525,380.7829 223.77312,379.37353 C 222.22267,388.26499 224.08993,394.03475 231.18128,399.04448 C 238.7237,401.11089 246.68111,400.55418 254.43951,400.52676 L 244.81522,407.52471 C 236.92869,407.5465 228.81152,408.1292 221.23688,405.61566 C 213.9699,400.04395 211.53295,394.06042 213.02889,384.5567 C 224.84544,374.48725 230.1618,369.6475 239.81386,384.81805 C 244.9604,390.38853 249.50547,397.90441 256.6314,400.46128 L 246.89013,407.53872 z " />
    <path
       style="fill:#000000;fill-opacity:1;fill-rule:nonzero;stroke:none;stroke-width:1px;stroke-linecap:butt;stroke-linejoin:miter;stroke-opacity:1"
       id="path3488"
       d="M 244.89013,403.53872 C 237.84338,398.95729 234.0208,391.45819 229.83387,384.44451 C 225.00282,375.18411 224.50856,365.38415 225.20267,355.21024 C 227.04944,342.85025 239.87348,332.47959 248.96815,344.17507 C 252.10625,352.6446 251.2402,361.94739 252.17839,370.84128 C 252.91908,374.83104 253.02078,378.88357 253.22758,382.92182 L 242.64161,388.35729 C 242.4149,384.36974 242.41373,380.35762 241.66721,376.41491 C 240.32999,367.66892 241.71093,358.54676 238.64627,350.1547 C 230.49181,339.98489 243.36101,335.48446 235.87387,349.97361 C 235.01519,359.90239 235.46996,369.46307 240.17166,378.52373 C 244.12068,385.15565 247.69178,392.67518 254.6314,396.46128 L 244.89013,403.53872 z " />
    <path
       style="fill:#000000;fill-opacity:1;fill-rule:nonzero;stroke:none;stroke-width:1px;stroke-linecap:butt;stroke-linejoin:miter;stroke-opacity:1"
       id="path3490"
       d="M 430.89013,109.53872 C 418.45183,115.26707 434.87042,98.565665 428.63391,115.16677 C 425.77984,124.33777 423.88354,131.75829 429.79609,139.24729 C 438.13982,144.18716 446.84048,147.48413 456.46736,148.41915 C 474.48382,142.63492 454.41594,157.95455 468.92506,141.6421 C 475.83706,135.27941 476.40423,127.97623 476.52661,119.15488 C 474.87888,109.56881 467.77556,107.66621 459.37072,105.4437 C 450.99448,102.33354 442.39472,101.69499 433.55839,101.48046 L 443.19246,94.49552 C 452.11014,94.707152 460.76076,95.66645 469.21907,98.712754 C 478.06881,101.19774 485.25769,103.59443 487.06915,113.63746 C 487.28063,122.5754 486.77167,130.47196 479.91516,137.00938 C 471.67347,146.69776 460.0208,155.4891 446.79405,155.34872 C 437.07228,154.19023 428.20146,150.7108 419.7602,145.70345 C 413.60725,137.58751 414.66264,130.1325 417.88139,120.27973 C 421.36621,109.85438 429.29226,103.43733 440.6314,102.46128 L 430.89013,109.53872 z " />
    <path
       style="fill:#000000;fill-opacity:1;fill-rule:nonzero;stroke:none;stroke-width:1px;stroke-linecap:butt;stroke-linejoin:miter;stroke-opacity:1"
       id="path3492"
       d="M 449.36424,147.50602 C 449.27399,155.3045 449.30124,163.10417 449.30103,170.90313 C 449.27907,172.28946 448.94945,173.64277 448.77407,175.0094 L 438.087,180.23714 C 438.29099,178.92648 438.57914,177.6289 438.69897,176.30515 C 438.69876,168.52766 438.72628,160.74945 438.63576,152.97245 L 449.36424,147.50602 z " />
    <path
       style="fill:#000000;fill-opacity:1;fill-rule:nonzero;stroke:none;stroke-width:1px;stroke-linecap:butt;stroke-linejoin:miter;stroke-opacity:1"
       id="path3494"
       d="M 421.10987,180.46128 C 429.68523,177.3109 439.22399,179.60098 448.20528,180.29791 C 457.43193,180.73122 466.6912,180.67301 475.82644,179.83426 C 476.38029,179.72127 476.93414,179.60828 477.48799,179.49529 L 467.98312,186.69568 C 467.42842,186.80735 466.87371,186.91902 466.31901,187.0307 C 457.10252,187.61623 447.80563,187.72061 438.54582,187.22373 C 429.4537,186.4379 420.22972,184.5576 411.3686,187.53872 L 421.10987,180.46128 z " />
    <g
       id="g3552"
       transform="translate(466,-480)">
      <path
         d="M 517.36424,625.50602 C 517.17174,636.9808 515.36712,648.26472 515.65371,659.77053 C 515.61434,667.45678 515.37274,675.15488 515.11483,682.82465 L 504.42179,688.08605 C 504.77007,680.47149 505.04992,672.7901 505.13892,665.13966 C 504.81754,653.66803 506.61575,642.40845 506.63576,630.97245 L 517.36424,625.50602 z "
         id="path3518"
         style="fill:#000000;fill-opacity:1;fill-rule:nonzero;stroke:none;stroke-width:1px;stroke-linecap:butt;stroke-linejoin:miter;stroke-opacity:1" />
      <path
         d="M 491.10987,656.46128 C 499.59954,660.08168 506.45282,666.93358 512.83626,673.56723 C 513.3123,674.12386 513.78834,674.6805 514.26438,675.23714 L 504.08462,681.37003 C 503.60716,680.81705 503.1297,680.26407 502.65225,679.71109 C 496.47524,673.33996 489.86365,666.30074 481.3686,663.53872 L 491.10987,656.46128 z "
         id="path3520"
         style="fill:#000000;fill-opacity:1;fill-rule:nonzero;stroke:none;stroke-width:1px;stroke-linecap:butt;stroke-linejoin:miter;stroke-opacity:1" />
      <path
         d="M 534.89013,659.53872 C 526.11141,663.51397 541.79339,649.29337 526.93037,666.05313 C 523.4597,670.14263 519.28233,673.56214 515.33811,677.18275 L 504.35148,681.71497 C 508.26727,678.07357 512.41729,674.65359 516.04652,670.72359 C 523.30196,661.98143 532.82352,653.66119 544.6314,652.46128 L 534.89013,659.53872 z "
         id="path3522"
         style="fill:#000000;fill-opacity:1;fill-rule:nonzero;stroke:none;stroke-width:1px;stroke-linecap:butt;stroke-linejoin:miter;stroke-opacity:1" />
    </g>
    <path
       style="fill:#000000;fill-opacity:1;fill-rule:nonzero;stroke:none;stroke-width:1px;stroke-linecap:butt;stroke-linejoin:miter;stroke-opacity:1"
       id="path3528"
       d="M 980.89013,41.53872 C 983.46551,42.91087 982.46765,33.64299 977.80289,48.92341 C 985.48033,60.67645 984.78243,56.00971 981.61919,56.56519 C 983.41259,53.11937 980.94574,51.46355 980.01193,48.6643 L 990.23465,42.54728 C 991.35495,45.65015 994.13314,47.70286 992.42641,51.53541 C 984.07713,58.20326 972.19745,70.73205 967.16753,54.34157 C 969.75191,42.64525 978.87161,38.46709 990.6314,34.46128 L 980.89013,41.53872 z " />
    <path
       style="fill:#000000;fill-opacity:1;fill-rule:nonzero;stroke:none;stroke-width:1px;stroke-linecap:butt;stroke-linejoin:miter;stroke-opacity:1"
       id="path3534"
       d="M 42.890135,407.53872 C 44.533018,405.6978 43.20589,405.17573 33.600074,419.48152 C 30.62613,429.66719 28.684338,439.59825 38.978632,444.23894 C 58.851666,438.74846 38.34258,453.18164 51.763428,435.95709 C 57.06689,427.67095 56.26049,424.7647 48.449447,420.02669 C 41.882728,417.85593 35.059683,416.45865 28.369836,414.65608 L 38.206189,407.92142 C 44.950496,409.71208 51.871687,411.04329 58.408801,413.46579 C 66.590072,418.41571 68.12935,422.50745 62.661548,431.16543 C 54.575184,441.90309 43.545546,452.02054 29.21891,451.04529 C 18.692586,445.28281 19.712668,435.72747 22.765849,424.39929 C 29.13955,412.67293 40.435826,405.49658 52.631396,400.46128 L 42.890135,407.53872 z " />
    <path
       style="fill:#000000;fill-opacity:1;fill-rule:nonzero;stroke:none;stroke-width:1px;stroke-linecap:butt;stroke-linejoin:miter;stroke-opacity:1"
       id="path3536"
       d="M 78.890135,277.53872 C 64.711969,285.68594 87.041,269.44685 69.674472,283.8477 C 61.095456,291.00317 57.229941,299.16767 60.343946,309.45213 C 70.671001,316.10979 88.119641,306.64689 72.471228,314.69408 C 78.274399,308.43953 78.456445,301.16968 78.722345,293.08347 C 78.918574,291.09739 78.586773,289.12223 78.519309,287.15102 L 89.05485,281.62144 C 89.146518,283.63529 89.573513,285.6517 89.33105,287.68929 C 89.122149,295.90188 89.125963,303.53284 83.481003,310.05903 C 71.428078,317.82048 63.140909,323.45136 50.092842,315.53047 C 46.587273,304.76675 49.609292,296.10047 58.693776,288.32648 C 67.459978,280.76749 77.52979,273.68921 88.631396,270.46128 L 78.890135,277.53872 z " />
    <path
       style="fill:#000000;fill-opacity:1;fill-rule:nonzero;stroke:none;stroke-width:1px;stroke-linecap:butt;stroke-linejoin:miter;stroke-opacity:1"
       id="path3538"
       d="M 115.36424,401.50602 C 111.73842,410.72819 108.84229,419.8109 107.58343,429.67244 C 106.553,441.07975 105.98701,449.8145 114.71004,457.08832 C 112.6722,462.80686 116.40852,457.96598 118.50645,441.86938 C 119.9122,431.59378 116.45586,422.4993 112.39513,413.28437 C 110.56621,410.13916 110.06238,406.60337 109.23579,403.14571 L 119.74793,397.57297 C 120.50936,400.93624 120.94937,404.3686 122.73135,407.42234 C 126.89099,416.78898 130.48886,426.09985 129.12845,436.56155 C 127.30614,452.44519 121.54878,459.71401 104.84715,463.76377 C 95.062041,456.59937 96.164549,446.39434 96.977566,434.96161 C 98.14898,425.20322 100.55276,415.86885 104.63576,406.97245 L 115.36424,401.50602 z " />
    <path
       style="fill:#000000;fill-opacity:1;fill-rule:nonzero;stroke:none;stroke-width:1px;stroke-linecap:butt;stroke-linejoin:miter;stroke-opacity:1"
       id="path3540"
       d="M 102.89013,481.53872 C 118.60678,469.64009 110.68218,484.40122 110.05896,495.05842 C 110.81217,504.83203 111.87553,509.53216 121.86471,509.84571 C 122.50498,516.348 122.34964,511.146 118.29085,498.80693 C 114.16564,491.80842 111.65395,484.09219 108.46524,476.65662 C 107.95388,475.66774 107.48568,474.65771 106.99589,473.65826 L 117.36799,467.7724 C 117.87132,468.80301 118.34902,469.84614 118.87799,470.86425 C 122.0749,478.26511 124.55031,485.96084 128.65088,492.94327 C 133.69446,507.59024 128.26783,512.24564 112.31045,516.99629 C 102.00488,515.79128 100.22643,510.85258 99.504169,500.57405 C 99.892055,487.85201 99.056634,479.83385 112.6314,474.46128 L 102.89013,481.53872 z " />
    <path
       style="fill:#000000;fill-opacity:1;fill-rule:nonzero;stroke:none;stroke-width:1px;stroke-linecap:butt;stroke-linejoin:miter;stroke-opacity:1"
       id="path3542"
       d="M 114.89013,337.53872 C 125.03116,329.8353 115.54703,337.92232 110.1919,349.2392 C 108.1909,359.24312 107.95205,367.17533 113.32941,375.95277 C 124.85402,380.05638 110.52165,389.82894 116.07393,374.45867 C 117.28776,365.35951 116.8732,356.2049 115.63913,347.21168 C 114.20313,342.31403 112.15282,337.62675 110.31223,332.87116 L 120.74018,327.12349 C 122.58366,331.89666 124.63445,336.60265 126.08021,341.51663 C 127.906,350.61462 127.57874,359.99087 126.79861,369.25077 C 123.67807,379.36451 112.92456,392.14952 103.08627,381.99426 C 97.522583,372.86219 97.470736,364.78519 99.447234,354.36493 C 104.54653,342.21668 111.38483,335.10281 124.6314,330.46128 L 114.89013,337.53872 z " />
    <path
       style="fill:#000000;fill-opacity:1;fill-rule:nonzero;stroke:none;stroke-width:1px;stroke-linecap:butt;stroke-linejoin:miter;stroke-opacity:1"
       id="path3614"
       d="M 785.35572,449.74959 C 785.19625,461.94463 785.26539,474.14194 785.28865,486.33784 C 785.28945,498.23224 785.27409,510.12667 785.27386,522.02109 C 785.23716,531.28509 782.33264,540.16974 780.20091,549.11343 L 769.49525,554.31659 C 771.6088,545.41868 774.39579,536.56694 774.72614,527.39543 C 774.72591,515.50603 774.71055,503.61662 774.71135,491.72724 C 774.73452,479.55413 774.80421,467.37957 774.64428,455.20734 L 785.35572,449.74959 z " />
    <path
       style="fill:#000000;fill-opacity:1;fill-rule:nonzero;stroke:none;stroke-width:1px;stroke-linecap:butt;stroke-linejoin:miter;stroke-opacity:1"
       id="path3616"
       d="M 772.89013,487.53872 C 779.44535,482.93276 767.86887,490.36252 754.66324,497.76193 C 769.93528,485.26699 749.72628,507.17472 745.21531,512.75641 L 734.20176,517.35071 C 743.21477,506.56563 749.80289,495.72161 763.91499,490.32871 C 761.89727,491.56815 755.79639,495.20521 757.86183,494.04704 C 761.8748,491.7968 765.79,489.37555 769.79395,487.10931 C 772.63347,485.50214 764.15635,490.39601 761.35548,492.06963 C 754.42036,496.21363 779.32884,473.08823 782.6314,480.46128 L 772.89013,487.53872 z " />
    <path
       style="fill:#000000;fill-opacity:1;fill-rule:nonzero;stroke:none;stroke-width:1px;stroke-linecap:butt;stroke-linejoin:miter;stroke-opacity:1"
       id="path3618"
       d="M 783.10987,482.46128 C 790.40674,487.06219 795.94007,493.51999 801.76124,499.74082 C 806.17524,505.88563 812.70723,509.30424 818.97505,513.20349 L 808.93121,519.61837 C 802.58767,515.6833 796.06066,512.17442 791.61979,505.94202 C 786.04586,499.95084 780.66797,493.37671 773.3686,489.53872 L 783.10987,482.46128 z " />
    <path
       style="fill:#000000;fill-opacity:1;fill-rule:nonzero;stroke:none;stroke-width:1px;stroke-linecap:butt;stroke-linejoin:miter;stroke-opacity:1"
       id="path3663"
       d="M 389.43552,567.4697 C 389.28871,581.5397 389.29544,595.61155 389.26139,609.68235 C 389.25263,628.83386 389.33365,647.98507 389.31285,667.13658 C 389.31146,669.40439 389.32246,671.67218 389.32726,673.93998 L 378.67274,679.36874 C 378.67754,677.09604 378.68852,674.82335 378.68715,672.55064 C 378.66631,653.38166 378.74743,634.21296 378.73861,615.04397 C 378.70462,601.03233 378.71172,587.01961 378.56448,573.00877 L 389.43552,567.4697 z " />
    <path
       style="fill:#000000;fill-opacity:1;fill-rule:nonzero;stroke:none;stroke-width:1px;stroke-linecap:butt;stroke-linejoin:miter;stroke-opacity:1"
       id="path3665"
       d="M 350.56267,656.94616 C 346.21197,646.53746 348.78494,638.80561 354.39008,629.60028 C 368.97657,613.24737 389.6526,609.59867 410.34647,611.0475 C 424.54269,615.09926 423.22475,629.7661 423.38607,642.18881 C 423.41286,645.62362 423.39742,649.05852 423.39625,652.49337 L 412.67163,657.95229 C 412.6918,654.51228 412.72235,651.0723 412.72037,647.6322 C 412.61572,635.96887 414.26332,621.41771 400.61062,617.98849 C 374.23366,616.38332 372.62293,618.15576 365.39042,624.83505 C 359.81061,633.5035 356.89601,640.49648 360.95886,650.57537 L 350.56267,656.94616 z " />
    <path
       style="fill:#000000;fill-opacity:1;fill-rule:nonzero;stroke:none;stroke-width:1px;stroke-linecap:butt;stroke-linejoin:miter;stroke-opacity:1"
       id="path3667"
       d="M 587.43552,555.4697 C 584.6231,578.49535 585.18124,601.85047 585.27971,625.02623 C 585.37739,636.33158 585.83505,647.5856 584.2009,658.78738 C 583.12814,667.37209 583.34716,676.0494 583.3569,684.68314 L 572.6216,690.15442 C 572.62471,681.47106 572.38182,672.74651 573.38984,664.10646 C 575.07805,652.92838 574.64276,641.71328 574.69373,630.41851 C 574.87518,607.29667 574.39558,584.00988 576.56448,561.00877 L 587.43552,555.4697 z " />
    <path
       style="fill:#000000;fill-opacity:1;fill-rule:nonzero;stroke:none;stroke-width:1px;stroke-linecap:butt;stroke-linejoin:miter;stroke-opacity:1"
       id="path3669"
       d="M 515.17459,624.41426 C 522.63202,627.093 530.7064,626.82871 538.37913,625.19291 C 528.1866,633.58192 538.94485,622.89828 540.75953,610.9115 C 543.71274,595.66576 558.05163,591.13764 571.96056,592.07295 C 583.05108,594.52575 593.91773,598.22084 603.28797,604.70749 C 609.5487,610.3041 612.3301,617.76277 615.60311,625.22902 C 620.38739,634.79622 626.27934,638.83005 636.47298,640.10411 C 645.08471,638.65632 653.80626,638.51136 662.5124,638.4454 L 652.76003,645.53692 C 644.05462,645.62393 635.36643,645.91745 626.74276,647.23082 C 616.17654,645.89665 609.98682,640.60325 605.05397,631.0975 C 601.86091,623.83167 599.20124,616.56748 593.07666,611.13609 C 583.83438,604.8829 573.10424,601.18418 562.17232,599.08777 C 542.83583,597.88592 561.83333,588.57852 551.60329,605.62117 C 549.51199,620.66455 544.19642,626.11394 528.82915,632.54556 C 520.97663,633.80941 513.00214,633.92055 505.30388,631.58574 L 515.17459,624.41426 z " />
    <path
       style="fill:#000000;fill-opacity:1;fill-rule:nonzero;stroke:none;stroke-width:1px;stroke-linecap:butt;stroke-linejoin:miter;stroke-opacity:1"
       id="path3671"
       d="M 829.43552,599.4697 C 829.89829,615.63752 828.76538,631.59178 826.87655,647.635 C 825.14044,662.6463 825.29934,677.76493 825.35563,692.84755 C 825.67401,694.75662 825.02544,696.6158 824.86173,698.4841 L 813.99193,703.7611 C 814.20026,701.95536 814.99416,700.1849 814.61961,698.32062 C 814.61442,683.15639 814.52504,667.95915 816.30458,652.87136 C 818.20883,636.93358 819.35991,621.074 818.56448,605.00877 L 829.43552,599.4697 z " />
    <path
       style="fill:#000000;fill-opacity:1;fill-rule:nonzero;stroke:none;stroke-width:1px;stroke-linecap:butt;stroke-linejoin:miter;stroke-opacity:1"
       id="path3673"
       d="M 770.60683,634.09378 C 781.36802,626.0127 790.56422,616.70559 799.18557,628.89219 C 801.74864,637.69221 806.54843,642.58192 814.01206,647.34716 C 824.56832,655.38438 843.9069,646.14963 828.33063,654.79368 C 835.49142,648.95343 839.6688,640.62617 846.48944,634.5198 C 858.7616,625.4184 870.98143,623.01683 885.68099,623.26683 C 886.67838,623.31963 887.6675,623.15325 888.65863,623.09659 L 878.91,630.26918 C 877.88724,630.26503 876.86404,630.42501 875.84172,630.25674 C 860.94021,630.47002 847.26638,635.04908 857.73034,630.1501 C 850.49334,635.87293 846.44999,644.17049 839.55195,650.34893 C 825.57252,658.7307 818.3195,662.11415 803.85108,653.87941 C 796.27658,648.94483 791.31272,643.79808 788.68345,634.84332 C 780.80247,624.018 786.30089,626.86993 781.87164,629.42775 L 770.60683,634.09378 z " />
    <path
       style="fill:#000000;fill-opacity:1;fill-rule:nonzero;stroke:none;stroke-width:1px;stroke-linecap:butt;stroke-linejoin:miter;stroke-opacity:1"
       id="path3675"
       d="M 638.56448,684.5303 C 639.32698,675.59565 646.23463,670.26146 652.5873,664.63128 C 665.29133,656.68276 677.84926,643.78209 689.96286,654.98474 C 693.35131,664.64709 688.74,671.10577 684.24764,679.31462 C 679.24198,687.42525 675.02637,695.67529 671.55625,704.54949 C 666.95753,711.55938 666.03339,719.79849 664.22606,727.77284 C 663.33671,734.10531 664.75976,740.50265 665.21291,746.86219 L 654.49405,752.38905 C 653.99483,745.94967 652.72011,739.46399 653.35728,733.04777 C 655.25572,725.05216 655.87537,716.59974 660.58442,709.59607 C 664.067,700.70216 668.10866,692.32487 673.2619,684.27088 C 677.44265,676.41785 682.49844,670.23792 679.47312,660.96975 C 667.66859,650.96868 663.74784,660.13926 663.7616,660.14502 C 657.59693,665.43828 650.5468,670.56944 649.43552,678.99123 L 638.56448,684.5303 z " />
    <path
       style="fill:#000000;fill-opacity:1;fill-rule:nonzero;stroke:none;stroke-width:1px;stroke-linecap:butt;stroke-linejoin:miter;stroke-opacity:1"
       id="path3677"
       d="M 654.56448,542.5303 C 652.34301,532.21423 652.855,521.88759 654.046,511.49071 C 654.88671,495.02561 666.53257,492.89789 679.9729,487.3763 C 689.19866,490.02872 693.72361,494.16834 696.86964,502.9081 C 699.07282,512.31531 699.3476,521.86368 699.37784,531.47638 C 699.4324,541.30117 697.664,549.98565 692.55283,558.19026 C 700.35583,555.58521 707.39843,556.95841 714.567,560.57727 C 723.59888,566.28927 725.98216,574.35071 726.54376,584.32792 C 719.8415,594.97298 706.40482,599.43392 695.31309,604.7895 C 686.90895,608.28242 678.18778,607.72727 669.43366,606.29339 L 679.29438,599.35349 C 687.95928,600.72113 696.56661,600.99593 704.76058,597.29304 C 723.36334,588.11026 699.63116,603.15303 715.65081,589.5428 C 715.48201,580.06083 713.17604,572.47542 704.43477,567.18012 C 696.92799,563.65561 689.67181,564.15914 681.87345,564.02449 C 685.74152,556.04208 689.08202,546.7833 688.65646,536.94051 C 688.60477,527.4048 688.43435,517.9096 686.21721,508.58234 C 683.37509,500.35623 678.93301,496.55388 670.16666,494.45024 C 667.47071,497.77902 666.26319,502.10335 664.82615,506.13867 C 663.6101,516.47096 662.79871,526.78387 665.43552,536.99123 L 654.56448,542.5303 z " />
    <path
       style="fill:#000000;fill-opacity:1;fill-rule:nonzero;stroke:none;stroke-width:1px;stroke-linecap:butt;stroke-linejoin:miter;stroke-opacity:1"
       id="path3679"
       d="M 880.56448,466.5303 C 879.63244,451.2991 884.03227,450.76524 898.55778,443.28248 C 908.48024,442.64249 912.7072,448.29171 915.12014,457.04482 C 915.68482,463.9311 909.50241,470.69899 906.62956,474.03466 C 915.67444,475.53846 921.07868,481.47087 926.4591,488.32334 C 930.36916,500.7458 913.99974,504.69113 903.50832,505.54505 C 909.00864,496.69223 918.32717,497.81559 931.65246,502.72204 C 945.99553,514.82441 932.27121,520.59025 919.55239,526.97728 C 909.54802,527.88767 899.37434,527.98831 889.41093,526.89888 C 889.41567,526.83628 885.434,526.26984 885.41857,526.2674 L 895.27876,519.32619 C 896.6129,519.54205 897.95345,519.72085 899.28158,519.97384 C 909.17784,520.6134 919.264,521.1102 929.12762,519.63355 C 916.40105,528.30194 934.59881,519.0112 921.58526,509.34462 C 909.66158,505.20757 891.02888,508.27727 913.24093,498.41461 C 928.74098,496.60117 911.54724,508.12558 916.05781,494.46343 C 910.71734,487.69557 905.39859,482.25482 896.48197,480.71763 C 897.99288,477.462 903.19571,468.93562 904.43023,462.65905 C 902.3232,454.42875 898.28348,449.32128 889.00423,450.6618 C 899.58513,443.6746 890.12014,447.84175 891.43552,460.99123 L 880.56448,466.5303 z " />
    <path
       style="fill:#000000;fill-opacity:1;fill-rule:nonzero;stroke:none;stroke-width:1px;stroke-linecap:butt;stroke-linejoin:miter;stroke-opacity:1"
       id="path3681"
       d="M 904.56448,596.5303 C 903.64123,581.06097 908.42889,578.6642 922.64681,571.06405 C 933.04819,570.16949 941.4496,575.53392 948.8834,582.0745 C 952.15242,590.45993 952.89424,599.86365 953.31726,608.87569 C 954.68185,617.78982 950.35922,623.3848 945.69183,630.28026 C 951.19957,632.62212 956.35855,636.88587 960.34453,642.85173 C 964.66608,652.26261 965.51885,662.02015 964.56027,672.10329 C 961.29163,685.30806 951.01308,690.31688 938.75095,694.85075 C 936.33956,695.40416 933.85274,695.28641 931.40937,695.50374 L 941.13818,688.36461 C 943.5347,688.0778 946.00277,688.20674 948.34612,687.50198 C 956.4807,684.2068 942.82944,695.30274 953.68932,677.3784 C 954.88092,667.53677 954.08697,658.04106 949.8644,648.81935 C 945.48593,642.34235 939.45309,639.71445 934.66674,635.29939 C 939.00834,628.44093 943.83745,623.16401 942.58721,614.38013 C 942.12697,605.61268 941.54113,596.49856 938.51422,588.27535 C 931.1502,581.97927 923.20538,577.10965 913.10648,578.46462 C 924.70621,570.94322 913.90781,577.90849 915.43552,590.99123 L 904.56448,596.5303 z " />
    <path
       style="fill:#000000;fill-opacity:1;fill-rule:nonzero;stroke:none;stroke-width:1px;stroke-linecap:butt;stroke-linejoin:miter;stroke-opacity:1"
       id="path3683"
       d="M 228.56448,566.5303 C 227.79613,557.51466 229.034,550.08991 233.02671,542.08947 C 241.51863,528.99409 256.34664,524.29224 271.09534,524.68254 C 282.74577,526.71395 288.83347,533.72547 291.49235,544.61315 C 294.70481,553.99349 290.93813,560.32293 284.78038,567.0251 C 278.93115,570.83783 246.66329,589.98969 267.34602,575.52866 C 276.15164,573.27508 283.83418,575.49034 292.07005,578.43522 C 300.16106,582.98994 303.71303,588.10637 305.26221,596.97673 C 306.11848,607.25073 306.27485,614.65434 299.60542,622.31642 C 286.64051,632.43379 274.60905,631.61785 259.39402,631.55457 C 253.42187,631.5408 247.4497,631.54326 241.47754,631.54348 L 251.23223,624.4567 C 257.19205,624.46285 263.15188,624.47047 269.11166,624.49891 C 277.14979,624.51044 307.71721,619.91244 288.38441,626.736 C 295.75664,619.68821 295.30547,612.75722 294.5474,602.5349 C 293.21369,594.08228 289.81232,589.32521 282.02514,585.13452 C 273.87388,582.30857 266.27902,580.44903 257.67505,582.91706 C 263.36788,578.00116 274.34151,570.22249 273.55467,571.48907 C 279.82488,565.34131 283.9836,559.5412 280.85804,550.34796 C 278.4308,539.84128 272.60947,533.26178 261.29547,531.66194 C 238.41477,531.67636 256.02157,526.8317 244.03498,537.16472 C 239.8367,544.96115 238.43296,552.0527 239.43552,560.99123 L 228.56448,566.5303 z " />
    <path
       style="fill:#000000;fill-opacity:1;fill-rule:nonzero;stroke:none;stroke-width:1px;stroke-linecap:butt;stroke-linejoin:miter;stroke-opacity:1"
       id="path3685"
       d="M 224.82541,687.58574 C 206.25594,694.02898 224.98028,679.52586 213.38305,695.17427 C 207.08254,705.6309 210.83693,712.3933 218.25778,720.65837 C 223.92011,728.01353 231.81487,730.79026 240.55277,731.97299 C 240.80051,731.83514 239.42034,737.4055 244.22352,720.64876 C 243.58897,711.74561 237.09672,709.25929 229.21214,707.71412 C 227.59846,707.42895 226.47449,708.72869 225.11376,709.23297 L 234.57565,701.68286 C 236.02752,701.37142 237.42666,700.1847 239.05579,700.72183 C 247.53884,702.77998 254.1078,705.76095 255.06114,715.31821 C 251.87929,728.50111 245.06132,735.46161 230.80834,739.08679 C 221.86598,737.45718 213.74878,734.52482 207.97356,726.92704 C 200.321,718.33631 196.19717,711.0141 202.36427,700.01349 C 209.91877,689.21128 221.30357,681.40492 234.69612,680.41426 L 224.82541,687.58574 z " />
    <path
       style="fill:#000000;fill-opacity:1;fill-rule:nonzero;stroke:none;stroke-width:1px;stroke-linecap:butt;stroke-linejoin:miter;stroke-opacity:1"
       id="path3687"
       d="M 304.56448,724.5303 C 301.90178,714.6931 301.68918,707.52197 309.27948,700.5551 C 324.47751,690.30221 335.6833,690.91906 347.4876,703.62479 C 356.09881,712.8765 360.28868,720.29135 356.35406,732.39807 C 347.56429,747.40989 331.4477,754.81339 314.77435,757.24128 C 302.38345,758.25555 290.20815,756.71385 279.65574,750.18176 C 269.61653,741.63585 263.09998,731.07306 259.50292,718.55142 C 257.73907,706.37451 264.11724,697.66866 272.20316,689.38975 C 282.98772,679.3777 294.64477,676.49199 308.50247,676.40764 C 317.61196,675.32617 325.05921,677.90797 333.09567,681.67969 C 336.04318,683.05596 339.26318,683.5821 342.37484,684.41474 L 332.40557,691.22806 C 329.25929,690.34663 325.99198,689.84707 323.04163,688.3518 C 315.07969,684.68502 307.70739,682.46229 298.74648,683.49732 C 276.18882,683.94855 292.77081,680.54162 283.37824,684.9265 C 275.23021,692.62585 268.71481,701.04833 270.0958,712.88263 C 273.50319,725.19706 279.92886,735.48344 289.86047,743.76248 C 300.65799,749.31611 312.04715,751.64783 324.41754,750.07536 C 347.60321,746.25066 327.8177,755.25133 345.40665,737.35735 C 349.7453,725.77306 345.50748,718.77166 337.1912,709.81482 C 327.82841,700.06022 307.98835,701.66285 320.51561,696.23689 C 312.25729,702.42206 312.53214,709.35619 315.43552,718.99123 L 304.56448,724.5303 z " />
    <path
       style="fill:#000000;fill-opacity:1;fill-rule:nonzero;stroke:none;stroke-width:1px;stroke-linecap:butt;stroke-linejoin:miter;stroke-opacity:1"
       id="path3689"
       d="M 456.56448,704.5303 C 456.30056,690.11884 463.35501,688.90861 476.18945,683.30169 C 485.20014,687.57802 488.08334,695.45581 489.25483,704.81583 C 489.89389,714.25972 489.43558,723.52952 487.76305,732.80596 C 486.90697,738.26355 484.26619,742.85777 481.80134,747.55443 L 470.60299,752.15592 C 473.26351,747.75631 476.13168,743.4871 476.86169,737.99627 C 478.65158,728.85316 479.18067,719.7226 478.54882,710.36656 C 477.26584,701.47987 475.27596,694.13418 466.37184,690.38225 C 474.21263,684.07618 468.25762,685.61009 467.43552,698.99123 L 456.56448,704.5303 z " />
    <path
       style="fill:#000000;fill-opacity:1;fill-rule:nonzero;stroke:none;stroke-width:1px;stroke-linecap:butt;stroke-linejoin:miter;stroke-opacity:1"
       id="path3691"
       d="M 530.82541,705.58574 C 522.13844,708.21599 517.81807,705.90665 513.42587,698.64902 C 510.41368,681.83361 515.03315,680.02491 530.63347,671.96361 C 541.29422,669.05243 547.93045,672.14979 554.27587,680.71007 C 559.37321,690.73562 556.27884,697.89073 549.86562,706.12415 C 543.12518,714.14349 541.7279,722.85612 541.33255,732.90083 C 541.90531,740.42881 540.56907,747.74789 539.62215,755.16463 L 528.82729,760.56559 C 529.67603,753.15301 531.17316,745.87976 530.58201,738.36564 C 530.80029,728.14686 532.15631,719.14726 538.78794,710.87646 C 544.99544,703.07369 548.76478,696.55909 543.86436,686.77296 C 537.67476,678.54115 531.20262,676.2874 521.10771,679.38094 C 527.63425,674.68603 522.34516,676.85903 524.02914,692.8464 C 528.81208,699.21831 532.14712,700.90429 540.69612,698.41426 L 530.82541,705.58574 z " />
    <path
       style="fill:#000000;fill-opacity:1;fill-rule:nonzero;stroke:none;stroke-width:1px;stroke-linecap:butt;stroke-linejoin:miter;stroke-opacity:1"
       id="path3693"
       d="M 789.39317,679.90622 C 782.89554,691.2754 770.93917,695.34677 759.63733,700.83197 C 749.13109,701.97806 746.26826,696.42339 744.72082,687.0631 C 743.54214,670.31368 752.02617,666.43332 765.98022,658.56629 C 775.43098,655.34527 785.39966,656.90308 794.45428,660.33734 C 803.94929,665.72566 803.39659,675.17847 803.43678,684.87429 C 802.95444,694.22217 797.93471,701.41521 792.91959,708.89474 C 786.04766,717.27514 775.65193,721.84702 766.64574,726.43632 C 777.39942,716.59028 788.76574,716.59427 802.45559,716.43889 C 814.5834,715.18514 817.40829,722.33113 816.68909,732.95859 C 813.42811,747.65688 805.40804,753.16837 792.60799,760.39974 C 784.56863,764.26887 776.08235,763.82935 767.41511,763.62492 C 765.43985,763.58559 763.46413,763.58384 761.48867,763.56329 L 771.25155,756.48164 C 773.23074,756.5051 775.2102,756.50925 777.18915,756.55204 C 785.79314,756.73861 794.17517,756.94525 802.06036,752.86573 C 784.88371,763.07105 805.15192,749.39702 805.81059,738.15248 C 806.32298,727.87617 804.57674,722.32325 792.70664,723.53078 C 783.70967,723.66553 755.41886,731.12911 776.69205,719.48713 C 765.23209,726.06424 773.88059,721.64062 781.83733,713.66846 C 786.80898,706.40205 791.95715,699.47228 792.6898,690.34537 C 792.62242,680.86115 793.51533,672.25139 784.35228,666.92268 C 775.15972,664.46781 765.85354,662.04876 756.57524,666.08913 C 770.9533,657.54792 752.77183,668.25908 755.4376,681.51124 C 756.74929,690.33255 759.32244,695.23183 769.20929,693.50509 C 772.6755,691.11963 775.43988,687.80909 778.12836,684.57225 L 789.39317,679.90622 z " />
    <path
       style="fill:#000000;fill-opacity:1;fill-rule:nonzero;stroke:none;stroke-width:1px;stroke-linecap:butt;stroke-linejoin:miter;stroke-opacity:1"
       id="path3695"
       d="M 888.82541,699.58574 C 881.47352,698.15724 878.14022,691.15264 874.48652,685.03626 C 871.76277,676.37291 871.86245,667.67479 875.03023,659.37039 C 888.39508,648.74805 895.02567,650.28559 907.39209,659.21245 C 915.11804,665.31536 920.07366,673.58335 923.0234,682.86341 C 926.51185,692.80475 925.22839,701.54569 921.15044,710.93413 C 901.8408,730.13214 910.62543,722.36742 889.32545,732.87475 C 905.18741,721.3915 888.61406,735.4994 885.29961,742.93631 C 882.98149,749.31874 883.40432,756.1881 883.34736,762.87681 L 872.60183,768.35195 C 872.6413,761.53949 872.23506,754.56183 874.30701,747.98944 C 879.11657,736.34552 887.05028,731.02265 898.72856,725.32808 C 902.95401,723.22738 914.91489,716.96259 896.79017,727.0409 C 921.10896,713.31666 891.24038,732.64279 910.14531,715.86543 C 914.39805,706.80694 915.84066,698.41676 912.44823,688.65754 C 909.30332,679.69094 904.97862,671.50315 897.21063,665.61249 C 886.92873,658.45928 872.10897,660.00723 886.13067,654.54306 C 882.96256,662.54609 882.28153,670.4647 884.98883,679.10411 C 888.79153,684.90105 891.31791,691.53662 898.69612,692.41426 L 888.82541,699.58574 z " />
    <path
       style="fill:#000000;fill-opacity:1;fill-rule:nonzero;stroke:none;stroke-width:1px;stroke-linecap:butt;stroke-linejoin:miter;stroke-opacity:1"
       id="path3697"
       d="M 878.82541,757.58574 C 869.96323,758.33002 862.54488,755.93723 855.17029,751.31727 C 846.42125,745.38804 842.20314,739.96093 846.94821,730.59334 C 859.41731,721.60217 867.00155,720.64306 876.91535,730.93193 C 881.61476,737.72447 888.80324,740.15566 896.07768,743.19779 C 904.89074,745.20663 913.75399,744.92563 922.39334,742.54748 C 935.93932,736.8531 940.37,734.86994 927.35915,739.01458 C 918.94471,736.93675 910.06793,737.09577 901.55837,738.51766 C 874.93475,749.43298 906.04863,733.53885 878.84471,748.72485 C 878.26121,748.98204 877.67771,749.23923 877.09421,749.49643 L 886.54302,741.99025 C 887.11527,741.71737 887.68751,741.4445 888.25976,741.17162 C 869.95129,752.28632 900.38283,732.61899 911.19249,731.26791 C 919.90143,730.07344 929.00623,729.76218 937.48593,732.34962 C 937.01638,732.92598 924.32026,748.76529 912.8646,749.92654 C 904.03182,752.04889 894.89952,752.28787 886.03756,749.94018 C 878.64713,746.79965 871.40378,744.13195 866.60609,737.25249 C 858.41475,728.93382 843.68577,732.72911 858.15945,726.08526 C 852.28182,734.34716 857.31702,739.30627 865.34841,744.8405 C 872.8028,748.99667 879.92323,751.41797 888.69612,750.41426 L 878.82541,757.58574 z " />
    <path
       style="fill:#000000;fill-opacity:1;fill-rule:nonzero;stroke:none;stroke-width:1px;stroke-linecap:butt;stroke-linejoin:miter;stroke-opacity:1"
       id="path3737"
       d="M 135.43552,11.469697 C 135.64671,21.469305 135.58082,31.166969 133.07967,40.870437 C 126.3275,56.254071 110.13035,64.646923 96.074275,72.254949 C 84.301351,75.098649 79.529164,67.368822 83.348585,57.077877 C 96.953462,41.611318 108.85192,44.597365 125.41118,49.241912 C 138.26592,51.698564 150.98457,54.620137 163.78908,57.336384 C 180.89102,59.483142 180.76646,57.185689 172.14765,58.003837 C 166.39372,52.238478 158.02299,50.640489 150.47708,48.279848 C 146.29109,47.531787 142.20497,46.05174 137.95875,45.824114 C 129.88832,53.380121 125.33296,62.273576 123.49071,72.938327 C 123.57137,80.37773 121.58069,87.478557 119.51646,94.526452 L 108.5638,99.615293 C 110.71244,92.682 112.80292,85.702598 112.70501,78.331556 C 114.0006,67.316182 118.95099,58.305733 126.83205,50.418476 C 139.02404,42.373511 146.69503,34.802339 160.57247,41.619577 C 168.49722,43.930715 176.98774,45.723723 182.69214,52.073363 C 175.87703,59.890422 169.35344,69.07364 153.92025,64.214613 C 141.10401,61.544298 128.40002,58.50594 115.55435,55.993833 C 94.234768,50.004762 95.176473,50.657336 94.390135,52.244182 C 90.954931,61.749456 94.060364,68.119437 105.52061,64.8187 C 92.485762,73.388068 117.96961,57.312655 122.21022,46.052614 C 124.84705,36.479161 125.06733,26.91853 124.56448,17.008772 L 135.43552,11.469697 z " />
    <path
       style="fill:#000000;fill-opacity:1;fill-rule:nonzero;stroke:none;stroke-width:1px;stroke-linecap:butt;stroke-linejoin:miter;stroke-opacity:1"
       id="path3739"
       d="M 98.564477,242.5303 C 91.095035,230.47226 81.589102,219.75383 73.315259,208.22658 C 65.434961,197.1771 60.857941,184.41363 59.181618,171.07255 C 63.719582,155.68441 84.040051,153.47776 97.856962,150.18951 C 107.09687,147.90905 115.34621,147.28674 123.17378,152.50496 C 126.78938,161.95778 125.5319,172.51141 124.19509,182.40125 C 123.29801,194.06632 120.31803,205.35505 119.22359,216.9915 C 117.71671,223.58067 115.18034,229.88751 113.26813,236.38446 L 102.33885,241.50905 C 104.29521,235.08053 106.71237,228.78809 108.40082,222.30061 C 109.55647,210.67698 112.48705,199.38142 113.42741,187.72772 C 114.71001,178.17589 116.02945,167.98413 112.81345,158.76855 C 104.90497,154.93689 97.196413,154.90019 88.309302,157.50291 C 64.265168,163.10455 76.242935,154.50637 69.929194,165.6082 C 71.313251,178.74597 75.933961,191.29626 83.536233,202.22578 C 91.928405,213.98933 101.70922,224.77587 109.43552,236.99123 L 98.564477,242.5303 z " />
    <path
       style="fill:#000000;fill-opacity:1;fill-rule:nonzero;stroke:none;stroke-width:1px;stroke-linecap:butt;stroke-linejoin:miter;stroke-opacity:1"
       id="path3741"
       d="M 743.39317,243.90622 C 730.9372,253.40731 722.83083,251.43807 710.00399,246.14611 C 700.50785,237.75753 697.54314,226.12715 697.97569,213.90819 C 697.77288,199.92578 705.4395,190.90206 716.38066,183.42886 C 729.1279,175.04968 739.66951,170.62787 750.96022,181.16234 C 754.43136,189.92402 753.43475,199.61597 753.39155,208.8997 C 753.79105,219.09531 747.0625,224.23059 741.02877,231.39023 C 734.7911,238.99634 732.51274,247.40453 731.46611,256.91934 C 731.21481,266.13855 731.32255,275.38559 731.58156,284.58656 C 732.98041,289.94056 733.09045,295.4333 733.34219,300.91744 L 722.60492,306.41564 C 722.37806,300.97582 722.31195,295.52068 720.89541,290.21507 C 720.57072,280.95422 720.47239,271.63129 720.69299,262.34147 C 721.42371,252.6253 723.81209,243.96376 729.98406,236.17509 C 735.62219,229.10142 742.79848,224.2125 742.64413,214.37051 C 742.68582,205.32644 743.67825,195.8604 740.54618,187.26545 C 731.52697,179.3692 712.99857,186.07527 727.62224,179.10575 C 716.63364,186.07607 708.58674,194.71681 708.73443,208.51644 C 708.17504,220.31014 710.74603,231.6689 720.15626,239.61446 C 730.17122,243.41189 749.73057,241.58079 732.12836,248.57225 L 743.39317,243.90622 z " />
    <path
       style="fill:#000000;fill-opacity:1;fill-rule:nonzero;stroke:none;stroke-width:1px;stroke-linecap:butt;stroke-linejoin:miter;stroke-opacity:1"
       id="path3743"
       d="M 697.17459,306.41426 C 708.62733,305.60244 720.07481,303.60502 731.42809,301.72958 C 742.36073,300.06976 753.45213,300.43253 764.47444,300.44752 C 767.82795,300.45258 771.18146,300.45315 774.53498,300.45486 L 764.77787,307.54319 C 761.42525,307.54057 758.07262,307.53975 754.72001,307.53189 C 743.75617,307.50778 732.72426,307.17905 721.85847,308.91619 C 710.40931,310.82126 698.87484,312.82398 687.30388,313.58574 L 697.17459,306.41426 z " />
    <path
       style="fill:#000000;fill-opacity:1;fill-rule:nonzero;stroke:none;stroke-width:1px;stroke-linecap:butt;stroke-linejoin:miter;stroke-opacity:1"
       id="path3745"
       d="M 836.82541,213.58574 C 829.03353,212.55354 825.18385,207.65454 821.07607,201.45494 C 815.47164,193.03237 816.47411,182.82101 816.80484,173.11296 C 819.9596,158.3332 834.65033,150.3855 848.81269,148.48456 C 858.16054,150.86905 863.63977,156.31257 866.94969,164.99724 C 868.44144,177.56257 861.79486,187.50431 854.77009,197.21329 C 845.14252,206.05067 841.14106,217.70997 837.17275,229.7891 C 834.11366,239.16001 833.42808,248.5826 833.3432,258.35936 C 833.07066,262.54574 833.52116,266.66389 833.88867,270.8063 L 823.23748,276.45391 C 822.81618,272.24789 822.29399,268.08353 822.61241,263.82331 C 822.6836,253.93934 823.16069,244.38911 826.33143,234.92857 C 830.31102,222.82738 833.94924,210.74982 843.73515,201.95949 C 850.62145,192.51071 857.56779,182.99073 856.29488,170.67158 C 853.31124,162.48555 847.92086,157.36116 839.04021,155.54901 C 830.87152,157.11936 837.27849,148.27563 827.60894,167.76893 C 827.17175,177.14636 826.11213,187.12758 831.45874,195.30665 C 835.45415,201.27407 839.03212,205.92323 846.69612,206.41426 L 836.82541,213.58574 z " />
    <path
       style="fill:#000000;fill-opacity:1;fill-rule:nonzero;stroke:none;stroke-width:1px;stroke-linecap:butt;stroke-linejoin:miter;stroke-opacity:1"
       id="path3747"
       d="M 805.17459,268.41426 C 818.40537,268.53058 831.63729,268.50457 844.86849,268.47615 C 850.10756,268.46188 855.34666,268.45921 860.58575,268.4561 L 850.83023,275.5439 C 845.60954,275.5408 840.38885,275.53815 835.16817,275.52385 C 821.88017,275.49514 808.59148,275.47043 795.30388,275.58574 L 805.17459,268.41426 z " />
    <path
       style="fill:#000000;fill-opacity:1;fill-rule:nonzero;stroke:none;stroke-width:1px;stroke-linecap:butt;stroke-linejoin:miter;stroke-opacity:1"
       id="path3749"
       d="M 538.56448,180.5303 C 536.0605,172.39723 536.53423,163.78174 537.15057,155.41181 C 538.3245,142.04166 549.98814,136.12079 562.5891,134.49662 C 572.63224,133.65566 577.04321,135.14294 577.55995,145.17478 C 577.36049,154.41524 577.37293,163.658 577.37142,172.90005 C 577.37275,182.23419 577.37275,191.56832 577.37278,200.90246 C 577.48274,209.81171 574.93003,218.42902 573.61589,227.16818 C 572.75487,231.05722 572.32545,235.01049 571.74149,238.94062 L 560.94449,244.31282 C 561.42959,240.37152 561.85002,236.42829 562.81748,232.56185 C 563.97554,223.80816 566.62131,215.26509 566.62724,206.37758 C 566.62722,197.04343 566.62723,187.70928 566.62604,178.37512 C 566.62731,169.13337 566.61529,159.89102 566.79151,150.6505 C 566.18542,141.14698 562.48312,140.92312 552.87194,141.65634 C 544.71238,143.16547 555.64161,131.65698 547.96003,150.10483 C 547.221,158.36263 546.63854,167.04693 549.43552,174.99123 L 538.56448,180.5303 z " />
    <path
       style="fill:#000000;fill-opacity:1;fill-rule:nonzero;stroke:none;stroke-width:1px;stroke-linecap:butt;stroke-linejoin:miter;stroke-opacity:1"
       id="path3751"
       d="M 554.56448,338.5303 C 547.39004,336.65581 540.13458,335.87404 532.73215,335.57209 C 519.66618,335.43158 506.5989,335.52163 493.53243,335.54124 C 491.50127,331.2039 487.7473,335.96323 495.40658,347.01546 C 504.85601,355.56915 516.61953,356.0128 528.6434,357.44345 C 546.66986,358.89922 564.79054,358.52185 582.86195,358.51873 C 592.81903,357.96023 602.6641,359.16262 612.54222,360.13963 L 602.73803,367.13525 C 592.93044,366.07635 583.15146,364.9475 573.25664,365.49837 C 555.14342,365.51986 536.97754,365.91777 518.91444,364.35025 C 506.57586,362.89669 494.73739,362.22329 485.13957,353.33214 C 474.28799,339.60449 488.24785,331.6798 503.28149,328.45778 C 516.34361,328.46799 529.40649,328.42446 542.468,328.53423 C 550.17112,328.89716 558.87596,329.18907 565.43552,332.99123 L 554.56448,338.5303 z " />
    <path
       style="fill:#000000;fill-opacity:1;fill-rule:nonzero;stroke:none;stroke-width:1px;stroke-linecap:butt;stroke-linejoin:miter;stroke-opacity:1"
       id="path3753"
       d="M 556.82541,431.58574 C 545.5577,427.56319 533.3136,426.3172 521.37296,425.69784 C 510.08038,425.37944 498.74005,425.40606 487.48014,425.84016 C 478.97406,425.82446 447.34913,441.01387 465.81685,430.81731 C 463.14003,438.27191 470.33394,439.15564 477.34718,441.66998 C 486.32697,442.9114 495.46262,442.47987 504.51193,442.46213 C 505.17928,442.46135 505.84663,442.46057 506.51398,442.45979 L 496.75825,449.54962 C 496.09101,449.55052 495.42376,449.55142 494.75651,449.55232 C 485.64142,449.57125 476.40524,450.06957 467.39542,448.51977 C 459.99518,445.78043 451.62743,443.88314 454.61488,435.21713 C 467.74839,427.41803 481.88971,420.91624 497.15067,418.63467 C 508.43593,418.28403 519.75728,418.38819 531.0506,418.731 C 543.08904,419.41175 555.12454,420.98461 566.69612,424.41426 L 556.82541,431.58574 z " />
    <path
       style="fill:#000000;fill-opacity:1;fill-rule:nonzero;stroke:none;stroke-width:1px;stroke-linecap:butt;stroke-linejoin:miter;stroke-opacity:1"
       id="path3755"
       d="M 666.56448,446.5303 C 666.42848,434.32346 668.08074,422.22765 668.52988,410.03728 C 668.03156,399.61541 669.89647,389.41085 670.55342,379.05763 C 671.09267,370.07595 675.22781,363.04621 681.01482,356.68587 C 697.77578,344.40527 701.98295,350.39126 704.82298,366.56821 C 704.37451,370.08931 704.04153,373.62487 703.65154,377.15236 L 692.85823,382.55515 C 693.21781,379.04632 693.43642,375.52263 694.05674,372.04212 C 691.76875,357.3781 681.16476,357.22913 692.26359,352.27662 C 686.02468,358.00578 682.24137,364.87718 681.31661,373.616 C 680.8379,384.00562 678.70566,394.18856 679.21137,404.63583 C 678.77497,416.77944 677.0283,428.83408 677.43552,440.99123 L 666.56448,446.5303 z " />
    <path
       style="fill:#000000;fill-opacity:1;fill-rule:nonzero;stroke:none;stroke-width:1px;stroke-linecap:butt;stroke-linejoin:miter;stroke-opacity:1"
       id="path3767"
       d="M 52.825414,-236.41426 C 45.425901,-249.23933 44.360683,-265.46409 43.248136,-280.09742 C 41.922322,-295.39586 41.930797,-310.06165 46.908211,-324.61486 C 54.692488,-337.61557 69.023892,-349.08632 84.573521,-348.56505 C 97.10516,-342.89628 100.69393,-331.88485 103.71724,-319.45937 C 107.74683,-304.74129 107.36321,-289.37128 107.37918,-274.2455 C 107.36976,-266.59271 107.36218,-258.94 107.36801,-251.2872 L 96.63177,-245.81697 C 96.64108,-253.47597 96.635919,-261.13501 96.674112,-268.79393 C 96.717896,-283.82008 97.215927,-299.11402 93.20529,-313.73563 C 90.081418,-325.64385 87.164164,-336.61305 74.68065,-341.67611 C 60.869146,-340.10958 74.458537,-348.3898 57.822156,-329.64806 C 52.588918,-315.2869 52.558953,-300.72856 53.736186,-285.52592 C 54.767726,-271.50227 56.047632,-255.75954 62.696118,-243.58574 L 52.825414,-236.41426 z " />
    <path
       style="fill:#000000;fill-opacity:1;fill-rule:nonzero;stroke:none;stroke-width:1px;stroke-linecap:butt;stroke-linejoin:miter;stroke-opacity:1"
       id="path3769"
       d="M 216.56267,-253.05384 C 207.67909,-266.396 207.22772,-283.06255 206.73686,-298.63938 C 206.09729,-312.96057 207.43432,-327.36807 213.28852,-340.48948 C 221.36314,-352.32404 234.30068,-364.13256 248.87268,-358.1671 C 259.06868,-352.21053 266.10722,-342.51481 268.98596,-331.21103 C 270.14401,-320.79746 263.66247,-315.97209 256.14981,-310.29427 C 259.85777,-309.4631 272.26178,-305.58114 278.42081,-302.20918 C 289.38496,-295.5296 290.1671,-288.41149 283.27826,-278.51586 C 273.73061,-267.05422 262.13914,-258.25805 247.47062,-254.73462 L 257.12767,-261.96384 C 264.91463,-264.24405 254.50219,-256.55152 272.21265,-273.80475 C 279.19404,-283.10179 278.99627,-289.27434 268.26199,-295.74227 C 261.1142,-299.42777 248.12914,-301.11209 244.89773,-305.86271 C 252.37034,-311.21832 258.8162,-315.5263 258.33216,-325.56882 C 255.70878,-336.6172 248.76318,-345.93079 238.78133,-351.59513 C 221.24623,-355.84548 240.17123,-360.61012 224.29388,-345.40253 C 218.00418,-332.62474 216.83858,-318.21545 217.32171,-304.0623 C 217.74132,-288.84491 217.95584,-272.28909 226.95886,-259.42463 L 216.56267,-253.05384 z " />
    <path
       style="fill:#000000;fill-opacity:1;fill-rule:nonzero;stroke:none;stroke-width:1px;stroke-linecap:butt;stroke-linejoin:miter;stroke-opacity:1"
       id="path3771"
       d="M 401.17459,-281.58574 C 387.06154,-270.72817 413.76995,-294.77694 422.08742,-304.29524 C 431.78024,-314.58998 438.96477,-326.81395 447.94997,-337.65715 C 471.81202,-354.78236 484.41042,-314.04071 497.40209,-295.21781 C 501.60576,-288.12487 506.77665,-282.50057 513.27764,-277.63603 L 503.05125,-271.1552 C 496.50838,-276.18005 491.31786,-281.9326 487.14291,-289.18993 C 475.83819,-306.06644 447.6558,-339.31707 459.0551,-342.32535 C 449.87328,-331.5836 442.78202,-319.24239 433.01778,-308.94597 C 420.94702,-294.9968 408.59272,-281.55715 391.30388,-274.41426 L 401.17459,-281.58574 z " />
    <path
       style="fill:#000000;fill-opacity:1;fill-rule:nonzero;stroke:none;stroke-width:1px;stroke-linecap:butt;stroke-linejoin:miter;stroke-opacity:1"
       id="path3773"
       d="M 120.82541,-90.414257 C 115.85944,-101.50235 113.99117,-113.95473 112.87371,-126.01922 C 113.40717,-144.39171 115.33385,-151.36388 132.43386,-159.27027 C 141.70621,-149.82018 143.11685,-136.24094 143.21388,-123.53631 C 113.13857,-103.12224 147.12198,-136.06097 155.53337,-143.36983 C 165.75633,-151.56849 189.7944,-167.59445 184.76195,-144.60675 C 179.1481,-129.00156 165.10206,-120.08008 153.46507,-109.21359 C 149.24184,-103.44347 114.52049,-84.632253 137.47987,-97.61943 L 126.23032,-93.20793 C 147.7718,-105.9736 119.67421,-88.37628 142.44634,-104.70245 C 153.92925,-115.46618 167.97537,-124.30533 173.8866,-139.50727 C 178.22513,-155.62924 166.80112,-149.62148 166.55249,-147.81292 C 155.40252,-138.27343 139.5817,-119.45796 132.41209,-118.17372 C 132.58085,-130.33087 131.42295,-143.22422 122.60684,-152.1863 C 136.91419,-162.09384 122.10787,-146.39334 123.53107,-131.52883 C 124.52282,-120.02429 126.35041,-108.25328 130.69612,-97.585743 L 120.82541,-90.414257 z " />
    <path
       style="fill:#000000;fill-opacity:1;fill-rule:nonzero;stroke:none;stroke-width:1px;stroke-linecap:butt;stroke-linejoin:miter;stroke-opacity:1"
       id="path3775"
       d="M 326.82541,-92.414257 C 314.32744,-93.919947 306.44719,-105.65789 298.42943,-114.52524 C 289.90111,-123.50541 285.96105,-132.8343 287.42201,-145.00658 C 288.236,-160.47389 295.27999,-162.49343 308.97236,-168.54773 C 320.44546,-166.06356 324.80194,-157.56432 329.89229,-147.94525 C 340.44273,-134.51979 318.5493,-124.4944 330.51527,-142.33358 C 338.69153,-153.16626 350.84957,-160.34054 363.95298,-162.54701 C 373.3474,-157.71598 371.60618,-147.26447 370.88291,-137.84952 C 368.05429,-126.87484 360.45618,-118.72346 352.74253,-110.84536 C 345.58949,-105.05985 336.8971,-101.54739 328.53256,-97.909509 L 338.022,-105.38114 C 354.36034,-112.54286 333.73181,-102.0153 341.59825,-106.26573 C 349.23839,-113.99885 356.92692,-121.81942 360.08266,-132.54425 C 360.8807,-141.41586 362.76394,-151.05786 354.1598,-155.46075 C 334.82344,-150.85096 359.70068,-162.21299 341.57476,-147.03159 C 334.41006,-136.99939 323.76137,-121.7975 319.45933,-141.97887 C 314.54075,-151.26124 310.44082,-159.54166 299.19294,-161.44545 C 307.92697,-168.62099 299.66622,-164.44314 298.25373,-150.30551 C 297.13392,-138.40147 299.95447,-129.61782 308.61616,-120.69373 C 316.43838,-111.96718 324.22029,-100.35084 336.69612,-99.585743 L 326.82541,-92.414257 z " />
    <path
       style="fill:#000000;fill-opacity:1;fill-rule:nonzero;stroke:none;stroke-width:1px;stroke-linecap:butt;stroke-linejoin:miter;stroke-opacity:1"
       id="path3777"
       d="M 464.82541,-162.41426 C 473.07903,-168.34155 465.95352,-165.47799 467.22812,-152.85789 C 479.19178,-139.90914 478.03921,-143.64955 473.81341,-143.15689 C 476.02582,-152.84826 477.39594,-157.2592 468.20087,-161.4351 C 465.98756,-161.6711 463.93379,-162.48291 461.79269,-163.00868 L 471.7801,-169.82463 C 473.92431,-169.29083 476.04129,-168.66414 478.20958,-168.22401 C 487.95722,-163.83063 486.9417,-158.25207 484.72653,-148.32687 C 472.30769,-137.6332 467.32823,-131.49063 456.75438,-146.82285 C 453.44127,-160.44512 461.30897,-164.27287 474.69612,-169.58574 L 464.82541,-162.41426 z " />
    <path
       style="fill:#000000;fill-opacity:1;fill-rule:nonzero;stroke:none;stroke-width:1px;stroke-linecap:butt;stroke-linejoin:miter;stroke-opacity:1"
       id="path3779"
       d="M 473.43552,-130.5303 C 470.93573,-122.35684 471.38247,-113.61713 471.35744,-105.13611 C 471.35896,-102.45452 471.36292,-99.772942 471.36617,-97.091358 L 460.62145,-91.615172 C 460.61871,-94.2977 460.6152,-96.980227 460.61422,-99.662757 C 460.63778,-108.06127 460.06311,-117.01209 462.56448,-124.99123 L 473.43552,-130.5303 z " />
    <path
       style="fill:#000000;fill-opacity:1;fill-rule:nonzero;stroke:none;stroke-width:1px;stroke-linecap:butt;stroke-linejoin:miter;stroke-opacity:1"
       id="path3781"
       d="M 471.39317,-120.09378 C 459.58079,-111.59791 452.41848,-108.48648 459.1346,-111.93963 L 447.91222,-107.46113 C 473.58016,-123.17044 447.41845,-107.05061 460.12836,-115.42775 L 471.39317,-120.09378 z " />
    <path
       style="fill:#000000;fill-opacity:1;fill-rule:nonzero;stroke:none;stroke-width:1px;stroke-linecap:butt;stroke-linejoin:miter;stroke-opacity:1"
       id="path3783"
       d="M 471.17459,-119.58574 C 477.69712,-115.59764 484.3198,-111.59662 490.80578,-107.46996 C 491.31956,-107.11263 491.83334,-106.7553 492.34712,-106.39797 L 482.16791,-99.91354 C 481.65215,-100.27758 481.13639,-100.64162 480.62062,-101.00566 C 474.34183,-105.00774 467.89352,-109.19506 461.30388,-112.41426 L 471.17459,-119.58574 z " />
    <path
       style="fill:#000000;fill-opacity:1;fill-rule:nonzero;stroke:none;stroke-width:1px;stroke-linecap:butt;stroke-linejoin:miter;stroke-opacity:1"
       id="path3785"
       d="M 471.43552,-102.5303 C 469.45149,-99.199523 466.14343,-96.229546 463.41618,-93.276807 L 452.23617,-88.661566 C 454.86258,-91.477396 457.58007,-94.853893 460.56448,-96.991228 L 471.43552,-102.5303 z " />
    <path
       style="fill:#000000;fill-opacity:1;fill-rule:nonzero;stroke:none;stroke-width:1px;stroke-linecap:butt;stroke-linejoin:miter;stroke-opacity:1"
       id="path3787"
       d="M 469.17459,-99.585743 C 474.27843,-95.421694 478.80345,-90.61186 484.07348,-86.597721 L 473.80742,-80.190393 C 468.80528,-84.051701 464.41439,-89.010947 459.30388,-92.414257 L 469.17459,-99.585743 z " />
    <path
       style="fill:#000000;fill-opacity:1;fill-rule:nonzero;stroke:none;stroke-width:1px;stroke-linecap:butt;stroke-linejoin:miter;stroke-opacity:1"
       id="path3789"
       d="M 576.82541,-108.41426 C 557.21004,-103.48009 575.79572,-113.715 567.37475,-103.71337 C 564.03684,-94.259236 570.16018,-92.541433 578.30493,-91.893791 C 593.14541,-100.4147 572.75096,-82.134393 585.11524,-99.929626 C 586.57353,-106.99446 583.76355,-108.21976 578.0648,-111.30929 L 588.10965,-118.04791 C 594.17465,-114.82433 597.48153,-112.38553 596.09566,-104.9622 C 589.70022,-95.00302 580.59829,-87.278718 568.58037,-84.715391 C 559.6271,-85.95823 553.4205,-88.555144 556.34251,-98.801929 C 563.6859,-108.50547 574.30452,-115.406 586.69612,-115.58574 L 576.82541,-108.41426 z " />
    <path
       style="fill:#000000;fill-opacity:1;fill-rule:nonzero;stroke:none;stroke-width:1px;stroke-linecap:butt;stroke-linejoin:miter;stroke-opacity:1"
       id="path3791"
       d="M 579.43552,-86.530303 C 577.05158,-78.997822 577.56851,-70.969721 576.49205,-63.186809 L 565.66998,-57.889487 C 566.85593,-65.553539 566.13542,-73.691655 568.56448,-80.991228 L 579.43552,-86.530303 z " />
    <path
       style="fill:#000000;fill-opacity:1;fill-rule:nonzero;stroke:none;stroke-width:1px;stroke-linecap:butt;stroke-linejoin:miter;stroke-opacity:1"
       id="path3793"
       d="M 715.43552,-226.5303 C 715.27994,-213.57079 715.31317,-200.60932 715.3022,-187.64895 C 715.29186,-175.62184 715.32913,-163.59457 715.38656,-151.56771 L 704.61344,-146.07854 C 704.67072,-158.13405 704.70813,-170.18998 704.6978,-182.24574 C 704.68686,-195.16081 704.72059,-208.07702 704.56448,-220.99123 L 715.43552,-226.5303 z " />
    <path
       style="fill:#000000;fill-opacity:1;fill-rule:nonzero;stroke:none;stroke-width:1px;stroke-linecap:butt;stroke-linejoin:miter;stroke-opacity:1"
       id="path3795"
       d="M 696.82541,-204.41426 C 716.24641,-218.36422 689.62955,-194.62163 684.41817,-188.80678 C 683.81598,-188.09195 683.21378,-187.37711 682.61159,-186.66227 L 671.56997,-181.97631 C 672.17502,-182.69814 672.78007,-183.41996 673.38512,-184.14179 C 683.38306,-195.25565 692.58491,-205.68696 706.69612,-211.58574 L 696.82541,-204.41426 z " />
    <path
       style="fill:#000000;fill-opacity:1;fill-rule:nonzero;stroke:none;stroke-width:1px;stroke-linecap:butt;stroke-linejoin:miter;stroke-opacity:1"
       id="path3797"
       d="M 715.43552,-208.5303 C 719.81477,-201.19259 726.97018,-195.54782 732.86226,-189.28916 C 737.50476,-184.58962 741.77496,-179.53208 746.16783,-174.62226 L 735.8295,-168.47376 C 731.51004,-173.39088 727.31096,-178.45233 722.69937,-183.12084 C 716.4532,-189.4889 709.03715,-195.26144 704.56448,-202.99123 L 715.43552,-208.5303 z " />
    <path
       style="fill:#000000;fill-opacity:1;fill-rule:nonzero;stroke:none;stroke-width:1px;stroke-linecap:butt;stroke-linejoin:miter;stroke-opacity:1"
       id="path3799"
       d="M 798.573,-59.713276 C 796.97242,-76.925041 795.31685,-94.539101 798.93655,-111.56579 C 803.63885,-125.46133 814.55346,-132.30705 828.32445,-136.66412 C 838.89866,-137.25733 846.20308,-132.40895 854.08311,-125.98585 C 864.15897,-118.26143 865.39785,-108.87738 865.45523,-97.091793 C 865.71579,-87.644131 865.34626,-78.363462 863.9552,-69.031737 L 853.1449,-63.688305 C 854.48684,-72.985376 855.05088,-82.202183 854.7071,-91.621896 C 854.61296,-103.1075 853.87673,-112.13376 843.90274,-119.65932 C 836.15069,-125.77201 829.02639,-130.4363 818.751,-129.33395 C 809.21626,-125.88298 822.82317,-136.20186 809.7362,-116.7049 C 805.72728,-99.889838 807.28622,-82.264977 809.427,-65.243662 L 798.573,-59.713276 z " />
    <path
       style="fill:#000000;fill-opacity:1;fill-rule:nonzero;stroke:none;stroke-width:1px;stroke-linecap:butt;stroke-linejoin:miter;stroke-opacity:1"
       id="path3801"
       d="M 754.56448,-111.4697 C 766.31378,-120.93404 776.13692,-117.68039 790.14391,-114.89113 C 813.82928,-109.73635 838.23635,-107.01228 862.47936,-108.09319 C 878.80612,-108.08839 894.67015,-111.07552 910.49431,-114.69486 C 916.21632,-116.75633 921.87884,-118.82117 927.60927,-120.78552 L 918.14013,-113.27659 C 912.34559,-111.43967 906.72042,-109.17539 900.89251,-107.42367 C 885.10059,-103.79049 869.23272,-101.12926 852.95871,-101.09862 C 828.59703,-100.22215 804.18014,-103.05062 780.34045,-108.02166 C 770.4946,-109.88925 745.15338,-108.13682 765.43552,-117.00877 L 754.56448,-111.4697 z " />
    <path
       style="fill:#000000;fill-opacity:1;fill-rule:nonzero;stroke:none;stroke-width:1px;stroke-linecap:butt;stroke-linejoin:miter;stroke-opacity:1"
       id="path3803"
       d="M 812.56267,-227.05384 C 805.14327,-239.85802 804.85912,-254.16119 804.66694,-268.55807 C 803.88856,-285.16047 805.08472,-301.48698 811.52562,-316.83413 C 821.21771,-331.3204 837.97855,-338.05776 854.56401,-341.22317 C 868.28474,-344.58735 878.70718,-335.86181 882.91058,-323.30233 C 884.94796,-309.48339 876.40805,-301.18505 866.92784,-292.65851 C 853.43086,-283.61502 839.67343,-277.41624 823.54271,-276.46052 C 812.47811,-275.30139 803.93998,-279.76915 796.00813,-286.94721 C 789.46854,-298.37476 798.41215,-306.87847 806.04108,-315.0246 C 820.28232,-326.45603 837.71966,-335.07203 855.70247,-338.69481 C 868.37883,-341.25414 875.47498,-338.48657 882.65341,-328.03055 C 886.63264,-318.57576 885.67801,-308.04669 884.50827,-298.04461 C 881.24543,-286.45542 881.35303,-274.50779 881.32904,-262.5878 C 881.61285,-254.65139 881.39628,-246.85536 880.20488,-239.01613 L 869.38534,-233.69995 C 870.61247,-241.49243 870.97492,-249.23034 870.62555,-257.1333 C 870.63699,-269.08992 870.39525,-281.11917 873.72038,-292.73683 C 874.97898,-302.43057 875.86295,-312.71673 872.22841,-321.95226 C 864.88972,-331.8276 858.61559,-334.15076 846.14549,-331.484 C 820.8856,-325.89888 824.81744,-324.22033 817.15176,-319.57868 C 809.63497,-311.83716 800.89014,-304.26467 806.32839,-293.15391 C 814.19232,-286.24528 822.50339,-282.36517 833.26798,-283.58307 C 844.66943,-284.43113 869.00065,-294.01155 855.78548,-288.21139 C 865.0566,-296.31314 874.04356,-304.14167 872.28372,-317.61351 C 868.38895,-329.95108 858.16679,-337.49239 845.02546,-333.99365 C 820.27745,-329.14386 840.73908,-338.46013 822.49042,-321.73317 C 815.62637,-306.7093 814.51992,-290.41677 815.26939,-273.97198 C 815.45062,-259.93078 815.49912,-245.82219 822.95886,-233.42463 L 812.56267,-227.05384 z " />
    <path
       style="fill:#000000;fill-opacity:1;fill-rule:nonzero;stroke:none;stroke-width:1px;stroke-linecap:butt;stroke-linejoin:miter;stroke-opacity:1"
       id="path3805"
       d="M 602.56448,-303.4697 C 594.59359,-310.5767 591.15385,-320.28702 587.99272,-330.1889 C 583.65737,-345.25518 583.17173,-361.1248 589.39659,-375.5674 C 595.98081,-391.91228 606.64865,-404.88968 620.62349,-415.38853 C 633.45843,-422.92862 644.81575,-432.74199 655.97486,-420.75901 C 660.38304,-411.80248 659.95209,-403.27686 656.59904,-394.2911 C 647.97484,-381.7406 634.90815,-374.70661 621.93469,-367.38493 C 610.73558,-363.07785 609.24917,-373.7745 609.86377,-382.85523 C 611.86289,-393.56678 620.02273,-400.001 627.47668,-407.16644 C 639.38137,-417.28082 650.62601,-426.46825 664.42123,-416.42879 C 671.95461,-408.87402 673.01266,-399.31142 673.38975,-389.15452 C 672.70419,-377.54225 664.42818,-370.69625 656.22275,-363.52009 C 652.94143,-361.55971 651.81226,-357.15501 650.58354,-353.53556 C 661.25839,-353.91756 669.27766,-354.9302 676.22193,-346.81237 C 678.05047,-337.56649 678.45933,-328.08409 674.84038,-319.38632 C 640.27386,-298.11037 672.6086,-316.40887 641.49894,-300.73671 C 639.09572,-300.0074 636.85705,-298.8584 634.52924,-297.91646 L 644.02817,-305.3759 C 646.35562,-306.30064 648.58272,-307.48418 651.00909,-308.14954 C 655.25978,-310.29748 668.28569,-316.12881 663.81717,-314.4813 C 667.19638,-322.9842 667.62618,-331.68263 665.68495,-340.90041 C 659.09798,-348.23565 650.59025,-346.54374 640.78469,-346.47134 C 628.59117,-349.80242 639.30336,-352.02604 645.09248,-358.95743 C 653.0829,-365.85584 661.54678,-372.50458 662.65606,-383.66317 C 662.35499,-393.50455 661.54343,-402.76648 654.17814,-410.07144 C 637.61883,-420.2672 652.57631,-420.08019 638.57397,-411.75437 C 631.29119,-404.82014 623.09915,-398.44954 620.66077,-388.22365 C 620.19887,-379.85784 620.67687,-369.75705 631.31398,-374.96233 C 616.36546,-365.85851 640.10001,-380.25636 645.60149,-389.33853 C 649.19537,-397.8792 649.73436,-405.97137 645.55282,-414.6639 C 636.07531,-424.32129 621.6871,-413.81597 631.75198,-419.7687 C 617.68029,-409.50108 606.84249,-396.77523 600.1963,-380.49029 C 593.78412,-366.42482 594.31647,-350.74942 598.49393,-335.95724 C 601.71423,-325.87921 605.33314,-316.23459 613.43552,-309.00877 L 602.56448,-303.4697 z " />
    <path
       style="fill:#000000;fill-opacity:1;fill-rule:nonzero;stroke:none;stroke-width:1px;stroke-linecap:butt;stroke-linejoin:miter;stroke-opacity:1"
       id="path3807"
       d="M 978.82541,-274.41426 C 969.15732,-277.74564 965.0132,-287.73001 961.60655,-296.95674 C 957.5087,-309.32687 958.63918,-322.15928 960.05546,-334.85512 C 961.13847,-345.12 965.30444,-353.17266 972.58527,-360.11265 C 984.79722,-368.55274 994.07531,-374.04653 1003.9383,-362.43497 C 1009.3512,-347.28894 992.32563,-342.0486 979.67018,-340.56835 C 970.81107,-341.76203 967.59787,-347.52252 965.61302,-355.33945 C 969.81495,-369.01269 982.4459,-374.11761 994.40378,-380.39408 C 1004.7483,-383.18634 1011.6243,-381.04426 1019.0509,-373.98143 C 1025.2986,-366.06685 1027.1999,-356.50551 1029.0244,-346.87417 C 1029.6357,-337.14897 1029.3725,-327.38648 1029.3669,-317.6456 C 1029.3822,-307.64353 1029.3596,-297.64149 1029.3641,-287.63943 C 1029.6355,-280.32699 1029.3749,-273.11119 1028.5316,-265.8901 L 1017.657,-260.61997 C 1018.6497,-267.77296 1018.914,-274.90218 1018.6359,-282.17312 C 1018.6402,-292.17547 1018.6142,-302.17781 1018.6384,-312.18018 C 1018.652,-321.87705 1018.8469,-331.59136 1018.3326,-341.27612 C 1016.6343,-350.73466 1014.8405,-360.09802 1008.6519,-367.82296 C 1001.3667,-374.50888 994.70161,-375.83429 984.89853,-372.98002 C 998.89538,-382.17338 979.60527,-371.16401 976.39024,-360.80449 C 978.56547,-353.75197 980.66607,-348.26091 989.36526,-347.73452 C 1004.0762,-349.9187 991.67313,-339.23688 993.42552,-356.46786 C 984.97798,-366.06997 970.12819,-357.82247 983.79183,-364.63519 C 976.27861,-358.11271 972.07145,-350.31715 970.7994,-340.20504 C 969.42241,-327.66509 968.11957,-314.9986 972.11157,-302.74877 C 975.30106,-293.9855 979.14123,-284.00366 988.69612,-281.58574 L 978.82541,-274.41426 z " />
    <path
       style="fill:#000000;fill-opacity:1;fill-rule:nonzero;stroke:none;stroke-width:1px;stroke-linecap:butt;stroke-linejoin:miter;stroke-opacity:1"
       id="path3809"
       d="M 958.56448,-73.469697 C 958.75085,-84.388642 958.0361,-95.271788 960.08623,-106.03297 C 964.10184,-123.65505 980.52345,-130.79014 996.78305,-134.6453 C 1007.7344,-132.0755 1040.6506,-144.08643 1022.5772,-133.93714 C 1030.475,-138.69946 1031.9545,-145.37938 1031.8839,-153.86101 C 1028.0045,-160.79818 1021.0268,-163.80339 1014.1241,-167.08148 C 994.09464,-168.73271 1004.2675,-169.95984 1000.5823,-166.51206 C 995.67841,-157.89696 991.87786,-150.39717 999.19574,-143.11539 C 1008.8655,-138.76275 1019.1401,-135.71674 1028.7161,-131.37277 C 1035.51,-123.90779 1035.4527,-114.60763 1035.2069,-105.05118 C 1033.6566,-95.931339 1029.5838,-87.332488 1025.2654,-79.207147 C 1023.7082,-77.15537 1023.003,-74.700726 1021.9328,-72.409909 L 1010.931,-67.375448 C 1011.9561,-69.697226 1012.5892,-72.217667 1014.2473,-74.222688 C 1018.5856,-82.225752 1022.644,-90.725815 1024.3989,-99.704237 C 1024.6078,-108.78373 1025.1398,-117.7566 1018.5497,-124.86184 C 1008.8943,-129.00563 998.6671,-132.10035 989.06951,-136.53431 C 981.43893,-144.70899 984.24255,-152.08504 989.51513,-161.75928 C 999.52313,-172.22318 1010.2984,-178.10206 1024.175,-173.78898 C 1031.3493,-170.27729 1038.5152,-167.02734 1042.4711,-159.71759 C 1042.8639,-150.9566 1041.8967,-143.58467 1033.8235,-138.32786 C 1018.0738,-129.0986 1005.3183,-127.51756 987.20626,-127.40214 C 970.05707,-122.93358 983.17189,-133.61536 970.86411,-111.23744 C 968.67312,-100.60755 969.36889,-89.822751 969.43552,-79.008772 L 958.56448,-73.469697 z " />
    <path
       style="fill:#000000;fill-opacity:1;fill-rule:nonzero;stroke:none;stroke-width:1px;stroke-linecap:butt;stroke-linejoin:miter;stroke-opacity:1"
       id="path3811"
       d="M -79.174586,-72.414257 C -87.114147,-84.006286 -81.917657,-102.00294 -79.031947,-115.72019 C -76.078632,-133.1298 -59.516972,-139.81878 -44.035161,-143.89452 C -33.389016,-145.37565 -23.069221,-143.75805 -12.341477,-145.33662 C -8.4700863,-147.72428 -13.446839,-139.3181 -2.7194548,-156.01039 C 1.3989806,-164.98841 0.62844823,-169.11479 -6.7486216,-174.64334 C -14.682951,-177.30801 -22.826992,-177.0375 -30.585943,-174.47797 C -15.240355,-186.42778 -30.641861,-166.01268 -32.355952,-155.29677 C -33.785168,-145.10137 -36.950267,-139.30557 -25.457097,-137.52334 C -14.38315,-137.73225 -5.2498653,-139.07192 3.0365524,-131.09837 C 7.8146858,-122.13411 8.8606233,-112.18814 4.7498212,-103.46991 C -23.231117,-84.456318 -16.747628,-108.93206 -3.2459576,-99.09998 C 4.8175714,-92.905192 8.7302299,-86.187774 3.5058073,-77.55951 C -8.1111851,-67.27726 -18.818965,-69.329004 -32.44695,-67.156374 C -34.420416,-66.576851 -36.434486,-66.156349 -38.427465,-65.656534 L -28.840091,-72.965086 C -26.824815,-73.438079 -24.829527,-73.994461 -22.795243,-74.383835 C -13.949763,-75.755356 10.49903,-79.038594 -7.6929143,-72.994868 C -2.6303702,-81.003409 -5.0655126,-86.421897 -13.40693,-92.620595 C -28.442681,-103.01444 16.512298,-110.26424 -6.5244619,-99.066536 C -2.6974763,-107.00423 -2.1461524,-115.86084 -7.2887133,-124.88898 C -15.344771,-132.31919 -24.748183,-130.37971 -35.270551,-130.49574 C -47.050531,-133.10229 -45.053564,-139.11885 -43.145191,-149.93668 C -40.936549,-165.1539 -35.839767,-175.3198 -21.114169,-182.00564 C -13.009742,-183.99981 -4.5665169,-184.43156 3.4046131,-181.23005 C 10.977582,-175.25885 12.513741,-170.58473 8.2496185,-161.08029 C 1.4993091,-149.68853 -8.2301695,-141.21617 -21.935436,-138.07506 C -32.630722,-136.64957 -43.033035,-138.58718 -53.581098,-136.56125 C -72.962359,-131.32141 -56.629811,-142.58464 -68.336915,-120.85816 C -71.131774,-108.10413 -76.261798,-90.243864 -69.303882,-79.585743 L -79.174586,-72.414257 z " />
    <path
       style="fill:#000000;fill-opacity:1;fill-rule:nonzero;stroke:none;stroke-width:1px;stroke-linecap:butt;stroke-linejoin:miter;stroke-opacity:1"
       id="path3813"
       d="M 1154.8254,353.58574 C 1146.096,349.99141 1137.2634,346.7699 1129.096,341.95724 C 1121.5742,333.24889 1126.501,323.65459 1131.9491,315.04122 C 1140.4529,304.12353 1153.2684,297.69001 1166.8918,296.36598 C 1156.1552,306.35123 1150.5476,303.04263 1140.0487,295.25847 C 1133.5817,288.07965 1134.6679,280.05252 1136.1995,271.2246 C 1142.5274,260.15709 1156.3487,255.63228 1168.451,254.53161 C 1177.1211,256.62984 1185.7037,256.53202 1194.4443,255.48343 C 1199.1167,250.02596 1191.7798,264.32516 1202.1752,244.84512 C 1206.485,236.03423 1207.1504,232.55972 1198.5299,228.29502 C 1189.6743,226.4714 1181.6224,227.68922 1173.2706,230.5126 C 1184.6561,222.40442 1169.7065,233.19324 1167.4703,245.03692 C 1166.4561,256.48208 1171.6542,258.90544 1181.3238,261.81268 C 1190.3349,262.83753 1199.4536,262.47597 1208.5121,262.46097 C 1219.9314,262.32785 1220.8282,269.03494 1221.4193,278.84361 C 1220.4049,292.91288 1205.8989,298.28083 1193.6149,301.05528 C 1190.2054,291.8704 1204.2107,296.61114 1214.3452,302.99142 C 1221.0024,310.44845 1220.0174,319.83867 1217.7138,329.05205 C 1213.0148,345.43735 1204.2838,351.91761 1189.6302,360.05974 C 1188.0952,361.15124 1186.2383,361.57787 1184.5547,362.3314 L 1194.0616,354.88201 C 1195.7267,354.10994 1197.4671,353.48623 1199.064,352.56257 C 1182.964,362.20841 1205.7387,346.29219 1206.8114,334.18796 C 1209.164,325.60818 1210.4475,316.51882 1204.2036,309.4975 C 1191.0728,301.12667 1185.4014,300.68443 1203.2453,293.79957 C 1219.2472,289.54375 1201.562,301.91411 1210.6802,284.33689 C 1210.1976,274.96361 1209.7134,269.07094 1198.7565,269.5509 C 1189.6423,269.56702 1180.4416,269.98895 1171.3999,268.70392 C 1161.3503,265.55732 1155.817,262.17181 1156.6781,250.43617 C 1159.006,235.28461 1168.8182,229.90314 1182.7381,223.03813 C 1191.2697,220.44079 1199.6292,219.43112 1208.5127,221.47248 C 1217.5586,226.06273 1217.7527,230.67533 1213.1387,239.84275 C 1207.3497,251.49256 1197.6003,258.8993 1184.808,262.73152 C 1176.0431,263.88714 1167.4338,263.23982 1158.74,261.68147 C 1136.5577,264.88141 1155.9352,258.97565 1147.1014,266.03586 C 1145.501,274.39473 1144.1101,282.05071 1150.3299,288.90663 C 1160.017,295.79373 1173.5526,294.07941 1157.1132,303.57658 C 1136.313,305.94263 1159.304,297.71133 1143.0022,310.26608 C 1137.5642,318.39883 1132.5921,326.91459 1139.2706,335.44022 C 1147.2851,340.08026 1155.897,343.5515 1164.6961,346.41426 L 1154.8254,353.58574 z " />
  </g>
</svg>
