<?xml version="1.0" encoding="UTF-8" standalone="no"?>
<!-- Created with Inkscape (http://www.inkscape.org/) -->

<svg
   xmlns:dc="http://purl.org/dc/elements/1.1/"
   xmlns:cc="http://creativecommons.org/ns#"
   xmlns:rdf="http://www.w3.org/1999/02/22-rdf-syntax-ns#"
   xmlns:svg="http://www.w3.org/2000/svg"
   xmlns="http://www.w3.org/2000/svg"
   xmlns:xlink="http://www.w3.org/1999/xlink"
   xmlns:sodipodi="http://sodipodi.sourceforge.net/DTD/sodipodi-0.dtd"
   xmlns:inkscape="http://www.inkscape.org/namespaces/inkscape"
   width="744.09448819"
   height="1052.3622047"
   id="svg5221"
   version="1.1"
   inkscape:version="0.47 r22583"
   sodipodi:docname="try_face.svg">
  <defs
     id="defs5223">
    <inkscape:perspective
       sodipodi:type="inkscape:persp3d"
       inkscape:vp_x="0 : 526.18109 : 1"
       inkscape:vp_y="0 : 1000 : 0"
       inkscape:vp_z="744.09448 : 526.18109 : 1"
       inkscape:persp3d-origin="372.04724 : 350.78739 : 1"
       id="perspective5229" />
    <inkscape:perspective
       id="perspective5299"
       inkscape:persp3d-origin="0.5 : 0.33333333 : 1"
       inkscape:vp_z="1 : 0.5 : 1"
       inkscape:vp_y="0 : 1000 : 0"
       inkscape:vp_x="0 : 0.5 : 1"
       sodipodi:type="inkscape:persp3d" />
  </defs>
  <sodipodi:namedview
     id="base"
     pagecolor="#ffffff"
     bordercolor="#666666"
     borderopacity="1.0"
     inkscape:pageopacity="0.0"
     inkscape:pageshadow="2"
     inkscape:zoom="1.979899"
     inkscape:cx="427.83318"
     inkscape:cy="627.48259"
     inkscape:document-units="px"
     inkscape:current-layer="layer2"
     showgrid="false"
     inkscape:window-width="1366"
     inkscape:window-height="746"
     inkscape:window-x="0"
     inkscape:window-y="0"
     inkscape:window-maximized="1" />
  <metadata
     id="metadata5226">
    <rdf:RDF>
      <cc:Work
         rdf:about="">
        <dc:format>image/svg+xml</dc:format>
        <dc:type
           rdf:resource="http://purl.org/dc/dcmitype/StillImage" />
        <dc:title></dc:title>
      </cc:Work>
    </rdf:RDF>
  </metadata>
  <g
     inkscape:label="Layer 1"
     inkscape:groupmode="layer"
     id="layer1"
     sodipodi:insensitive="true"
     style="display:inline">
    <image
       y="294.36218"
       x="0"
       id="image5301"
       height="478"
       width="720"
       xlink:href="file:///home/bjorn/Desktop/dl/image/example/blonde-brown-eyes-girl-hair-Favim.com-351349.jpg" />
  </g>
  <g
     inkscape:groupmode="layer"
     id="layer2"
     inkscape:label="drawing_1"
     style="opacity:0.8;display:inline">
    <path
       style="color:#000000;fill:#cc9a81;fill-opacity:1;fill-rule:nonzero;stroke:none;stroke-width:0.30000001;marker:none;visibility:visible;display:inline;overflow:visible;enable-background:accumulate"
       d="m 359.61431,510.92042 c 10.95574,4.76372 21.02513,5.98205 29.29442,0 0,0 28.26756,-15.5899 37.37564,-28.28427 15.51833,-21.62865 25.25382,-75.76144 25.25382,-75.76144 l -3.03046,-69.70053 c -1.83062,-21.20016 -17.05556,-37.37744 -40.4061,-50.50763 -21.88664,-6.37842 -43.77327,-7.08264 -65.65991,0 -28.34327,14.06299 -36.83181,32.09693 -38.3858,51.51778 l -2.02031,71.72083 c 0,0 4.77644,50.39908 18.18275,70.71068 9.12652,13.82738 39.39595,30.30458 39.39595,30.30458 z"
       id="path5306"
       sodipodi:nodetypes="ccaccccccac" />
    <path
       style="color:#000000;fill:#e86565;fill-opacity:1;fill-rule:nonzero;stroke:none;stroke-width:0.30000001;marker:none;visibility:visible;display:inline;overflow:visible;enable-background:accumulate"
       d="m 349.51278,467.98894 c 16.54429,1.8849 33.62785,2.15202 51.51778,0 -4.43686,-1.84579 -9.31324,-3.80145 -16.41498,-6.31346 -5.06698,-0.17484 -7.0815,0.87129 -8.83883,2.02031 l -7.32361,-1.76777 c -7.83878,0.49498 -12.95783,3.70969 -18.94036,6.06092 z"
       id="path5818"
       sodipodi:nodetypes="cccccc" />
    <path
       style="color:#000000;fill:#e86565;fill-opacity:1;fill-rule:nonzero;stroke:none;stroke-width:0.30000001;marker:none;visibility:visible;display:inline;overflow:visible;enable-background:accumulate"
       d="m 348.75517,468.24147 c 17.26262,2.72532 34.84446,2.57762 52.78047,-0.75761 -6.57329,3.53006 -11.70389,8.14214 -20.70813,9.84899 -4.54569,1.34687 -8.75466,1.34687 -12.62691,0 -9.06388,-1.99763 -13.44846,-5.86699 -19.44543,-9.09138 z"
       id="path5820"
       sodipodi:nodetypes="ccccc" />
    <path
       style="color:#000000;fill:#7f5649;fill-opacity:1;fill-rule:nonzero;stroke:none;stroke-width:0.30000001;marker:none;visibility:visible;display:inline;overflow:visible;enable-background:accumulate"
       d="m 378.8072,443.74527 c 1.22888,-1.49004 1.61155,-3.40319 4.04062,-4.29314 l 2.52538,1.01015 c -0.31849,2.43017 -4.13727,2.36013 -6.566,3.28299 z"
       id="path5822"
       sodipodi:nodetypes="cccc" />
    <path
       sodipodi:nodetypes="cccc"
       id="path5824"
       d="m 378.8072,443.74527 c 1.22888,-1.49004 1.61155,-3.40319 4.04062,-4.29314 1.30293,0.06 2.83973,-0.0203 2.52538,1.01015 -0.31849,2.43017 -4.13727,2.36013 -6.566,3.28299 z"
       style="color:#000000;fill:#7f5649;fill-opacity:1;fill-rule:nonzero;stroke:none;stroke-width:0.30000001;marker:none;visibility:visible;display:inline;overflow:visible;enable-background:accumulate" />
    <path
       style="color:#000000;fill:#7f5649;fill-opacity:1;fill-rule:nonzero;stroke:none;stroke-width:0.30000001;marker:none;visibility:visible;display:inline;overflow:visible;enable-background:accumulate"
       d="m 370.15191,443.74527 c -1.22888,-1.49004 -1.61155,-3.40319 -4.04062,-4.29314 -1.30293,0.06 -2.83973,-0.0203 -2.52538,1.01015 0.31849,2.43017 4.13727,2.36013 6.566,3.28299 z"
       id="path5826"
       sodipodi:nodetypes="cccc" />
    <path
       style="color:#000000;fill:#7f5649;fill-opacity:1;fill-rule:nonzero;stroke:none;stroke-width:0.30000001;marker:none;visibility:visible;display:inline;overflow:visible;enable-background:accumulate"
       d="m 384.74185,446.01812 c 2.08086,-1.29041 3.82839,-0.18377 5.93465,-3.283 0.82574,-1.24342 1.54163,-2.29343 2.65164,-5.05076 0.55485,-2.82862 0.53878,-5.79996 -0.25253,-8.96511 -1.4729,-2.06167 -3.39378,-5.46728 -5.17704,-8.46002 l -3.28299,-9.84899 c -1.24266,-10.47083 -0.27099,-12.74607 0.12627,-16.03618 3.64695,-4.27953 6.28924,-8.24064 11.23795,-11.86929 -4.77366,2.18079 -8.69273,6.28443 -12.12183,11.49049 -1.28499,5.71388 -0.49263,11.27095 0.12626,16.66752 0.7817,6.98238 4.97059,12.0785 8.08123,18.05648 1.02609,3.0828 1.61183,6.09033 0.63135,8.83883 -1.12486,2.80428 -1.84488,3.58434 -2.65166,4.79822 -2.34705,2.08953 -3.55719,2.4737 -5.3033,3.66181 z"
       id="path5828"
       sodipodi:nodetypes="cccccccccccccc" />
    <path
       sodipodi:nodetypes="cccccccccccccc"
       id="path5851"
       d="m 366.40683,446.01812 c -2.08086,-1.29041 -3.82839,-0.18377 -5.93465,-3.283 -0.82574,-1.24342 -1.54163,-2.29343 -2.65164,-5.05076 -0.55485,-2.82862 -0.53878,-5.79996 0.25253,-8.96511 1.4729,-2.06167 3.39378,-5.46728 5.17704,-8.46002 l 3.28299,-9.84899 c 1.24266,-10.47083 0.27099,-12.74607 -0.12627,-16.03618 -3.64695,-4.27953 -6.28924,-8.24064 -11.23795,-11.86929 4.77366,2.18079 8.69273,6.28443 12.12183,11.49049 1.28499,5.71388 0.49263,11.27095 -0.12626,16.66752 -0.7817,6.98238 -4.97059,12.0785 -8.08123,18.05648 -1.02609,3.0828 -1.61183,6.09033 -0.63135,8.83883 1.12486,2.80428 1.84488,3.58434 2.65166,4.79822 2.34705,2.08953 3.55719,2.4737 5.3033,3.66181 z"
       style="color:#000000;fill:#7f5649;fill-opacity:1;fill-rule:nonzero;stroke:none;stroke-width:0.30000001;marker:none;visibility:visible;display:inline;overflow:visible;enable-background:accumulate" />
    <path
       style="color:#000000;fill:#e0ff09;fill-opacity:1;fill-rule:nonzero;stroke:#641313;stroke-width:0.30000001;stroke-opacity:1;marker:none;visibility:visible;display:inline;overflow:visible;enable-background:accumulate"
       d="m 394.96965,378.08536 c 3.45192,0.33636 4.05531,2.45306 12.37437,-0.25254 3.50618,-2.71526 6.67516,-5.55699 15.40482,-6.31345 5.91311,-0.41895 10.85691,3.03936 16.16244,5.05076 -3.45743,-3.19882 -5.70388,-5.89256 -11.11168,-9.09137 -6.23405,-2.53734 -10.66213,-0.55973 -15.65736,0 -8.16847,2.92446 -11.48094,7.06293 -17.17259,10.6066 z"
       id="path5853"
       sodipodi:nodetypes="ccccccc" />
    <path
       sodipodi:nodetypes="ccccccc"
       id="path5868"
       d="m 354.38588,378.08536 c -3.45192,0.33636 -4.05531,2.45306 -12.37437,-0.25254 -3.50618,-2.71526 -6.67516,-5.55699 -15.40482,-6.31345 -5.91311,-0.41895 -10.85691,3.03936 -16.16244,5.05076 3.45743,-3.19882 5.70388,-5.89256 11.11168,-9.09137 6.23405,-2.53734 10.66213,-0.55973 15.65736,0 8.16847,2.92446 11.48094,7.06293 17.17259,10.6066 z"
       style="color:#000000;fill:#e0ff09;fill-opacity:1;fill-rule:nonzero;stroke:#641313;stroke-width:0.30000001;stroke-opacity:1;marker:none;visibility:visible;display:inline;overflow:visible;enable-background:accumulate" />
    <path
       style="color:#000000;fill:#ffffff;fill-opacity:1;fill-rule:nonzero;stroke:#ffffff;stroke-width:0.30000001;stroke-linecap:butt;stroke-linejoin:miter;stroke-miterlimit:4;stroke-opacity:1;stroke-dasharray:none;stroke-dashoffset:0;marker:none;visibility:visible;display:inline;overflow:visible;enable-background:accumulate"
       d="m 356.83639,395.51049 c -8.15126,-9.2744 -18.13592,-12.85297 -27.02158,-1.51523 4.81311,7.44731 14.13879,8.17544 27.02158,1.51523 z"
       id="path5872"
       sodipodi:nodetypes="ccc" />
    <path
       sodipodi:nodetypes="ccc"
       id="path5887"
       d="m 395.81481,395.51049 c 8.15126,-9.2744 18.13592,-12.85297 27.02158,-1.51523 -4.81311,7.44731 -14.13879,8.17544 -27.02158,1.51523 z"
       style="color:#000000;fill:#ffffff;fill-opacity:1;fill-rule:nonzero;stroke:#ffffff;stroke-width:0.30000001;stroke-linecap:butt;stroke-linejoin:miter;stroke-miterlimit:4;stroke-opacity:1;stroke-dasharray:none;stroke-dashoffset:0;marker:none;visibility:visible;display:inline;overflow:visible;enable-background:accumulate" />
    <g
       id="g5913">
      <path
         transform="matrix(1.3199327,0,0,1.5839192,-110.56898,-229.40834)"
         d="m 348.50264,393.11139 a 5.3033009,4.4194174 0 1 1 -10.6066,0 5.3033009,4.4194174 0 1 1 10.6066,0 z"
         sodipodi:ry="4.4194174"
         sodipodi:rx="5.3033009"
         sodipodi:cy="393.11139"
         sodipodi:cx="343.19934"
         id="path5889"
         style="color:#000000;fill:#b05a40;fill-opacity:1;fill-rule:nonzero;stroke:none;stroke-width:0.30000001;marker:none;visibility:visible;display:inline;overflow:visible;enable-background:accumulate"
         sodipodi:type="arc" />
      <path
         sodipodi:type="arc"
         style="color:#000000;fill:#000000;fill-opacity:1;fill-rule:nonzero;stroke:none;stroke-width:0.30000000999999998;marker:none;visibility:visible;display:inline;overflow:visible;enable-background:accumulate"
         id="path5891"
         sodipodi:cx="343.19934"
         sodipodi:cy="393.11139"
         sodipodi:rx="5.3033009"
         sodipodi:ry="4.4194174"
         d="m 348.50264,393.11139 a 5.3033009,4.4194174 0 1 1 -10.6066,0 5.3033009,4.4194174 0 1 1 10.6066,0 z"
         transform="matrix(0.56568543,0,0,0.67882249,148.3288,126.35488)" />
      <path
         transform="matrix(0.28284273,0,0,0.33941126,243.90023,258.77622)"
         d="m 348.50264,393.11139 a 5.3033009,4.4194174 0 1 1 -10.6066,0 5.3033009,4.4194174 0 1 1 10.6066,0 z"
         sodipodi:ry="4.4194174"
         sodipodi:rx="5.3033009"
         sodipodi:cy="393.11139"
         sodipodi:cx="343.19934"
         id="path5893"
         style="color:#000000;fill:#ffffff;fill-opacity:1;fill-rule:nonzero;stroke:none;stroke-width:0.30000001;marker:none;visibility:visible;display:inline;overflow:visible;enable-background:accumulate"
         sodipodi:type="arc" />
      <path
         sodipodi:type="arc"
         style="color:#000000;fill:#ffffff;fill-opacity:1;fill-rule:nonzero;stroke:none;stroke-width:0.30000001;marker:none;visibility:visible;display:inline;overflow:visible;enable-background:accumulate"
         id="path5895"
         sodipodi:cx="343.19934"
         sodipodi:cy="393.11139"
         sodipodi:rx="5.3033009"
         sodipodi:ry="4.4194174"
         d="m 348.50264,393.11139 a 5.3033009,4.4194174 0 1 1 -10.6066,0 5.3033009,4.4194174 0 1 1 10.6066,0 z"
         transform="matrix(0.28284273,0,0,0.33941126,240.11213,257.76606)" />
    </g>
    <g
       id="g5919"
       transform="translate(68,0)">
      <path
         sodipodi:type="arc"
         style="color:#000000;fill:#b05a40;fill-opacity:1;fill-rule:nonzero;stroke:none;stroke-width:0.30000001;marker:none;visibility:visible;display:inline;overflow:visible;enable-background:accumulate"
         id="path5921"
         sodipodi:cx="343.19934"
         sodipodi:cy="393.11139"
         sodipodi:rx="5.3033009"
         sodipodi:ry="4.4194174"
         d="m 348.50264,393.11139 c 0,2.44078 -2.37437,4.41942 -5.3033,4.41942 -2.92893,0 -5.3033,-1.97864 -5.3033,-4.41942 0,-2.44078 2.37437,-4.41942 5.3033,-4.41942 2.92893,0 5.3033,1.97864 5.3033,4.41942 z"
         transform="matrix(1.3199327,0,0,1.5839192,-110.56898,-229.40834)" />
      <path
         transform="matrix(0.56568543,0,0,0.67882249,148.3288,126.35488)"
         d="m 348.50264,393.11139 c 0,2.44078 -2.37437,4.41942 -5.3033,4.41942 -2.92893,0 -5.3033,-1.97864 -5.3033,-4.41942 0,-2.44078 2.37437,-4.41942 5.3033,-4.41942 2.92893,0 5.3033,1.97864 5.3033,4.41942 z"
         sodipodi:ry="4.4194174"
         sodipodi:rx="5.3033009"
         sodipodi:cy="393.11139"
         sodipodi:cx="343.19934"
         id="path5923"
         style="color:#000000;fill:#000000;fill-opacity:1;fill-rule:nonzero;stroke:none;stroke-width:0.30000001;marker:none;visibility:visible;display:inline;overflow:visible;enable-background:accumulate"
         sodipodi:type="arc" />
      <path
         sodipodi:type="arc"
         style="color:#000000;fill:#ffffff;fill-opacity:1;fill-rule:nonzero;stroke:none;stroke-width:0.30000001;marker:none;visibility:visible;display:inline;overflow:visible;enable-background:accumulate"
         id="path5925"
         sodipodi:cx="343.19934"
         sodipodi:cy="393.11139"
         sodipodi:rx="5.3033009"
         sodipodi:ry="4.4194174"
         d="m 348.50264,393.11139 c 0,2.44078 -2.37437,4.41942 -5.3033,4.41942 -2.92893,0 -5.3033,-1.97864 -5.3033,-4.41942 0,-2.44078 2.37437,-4.41942 5.3033,-4.41942 2.92893,0 5.3033,1.97864 5.3033,4.41942 z"
         transform="matrix(0.28284273,0,0,0.33941126,243.90023,258.77622)" />
      <path
         transform="matrix(0.28284273,0,0,0.33941126,240.11213,257.76606)"
         d="m 348.50264,393.11139 c 0,2.44078 -2.37437,4.41942 -5.3033,4.41942 -2.92893,0 -5.3033,-1.97864 -5.3033,-4.41942 0,-2.44078 2.37437,-4.41942 5.3033,-4.41942 2.92893,0 5.3033,1.97864 5.3033,4.41942 z"
         sodipodi:ry="4.4194174"
         sodipodi:rx="5.3033009"
         sodipodi:cy="393.11139"
         sodipodi:cx="343.19934"
         id="path5927"
         style="color:#000000;fill:#ffffff;fill-opacity:1;fill-rule:nonzero;stroke:none;stroke-width:0.30000001;marker:none;visibility:visible;display:inline;overflow:visible;enable-background:accumulate"
         sodipodi:type="arc" />
    </g>
  </g>
</svg>
