<?xml version="1.0" encoding="UTF-8" standalone="no"?>
<!-- Created with Inkscape (http://www.inkscape.org/) -->
<svg
   xmlns:dc="http://purl.org/dc/elements/1.1/"
   xmlns:cc="http://creativecommons.org/ns#"
   xmlns:rdf="http://www.w3.org/1999/02/22-rdf-syntax-ns#"
   xmlns:svg="http://www.w3.org/2000/svg"
   xmlns="http://www.w3.org/2000/svg"
   xmlns:xlink="http://www.w3.org/1999/xlink"
   xmlns:sodipodi="http://sodipodi.sourceforge.net/DTD/sodipodi-0.dtd"
   xmlns:inkscape="http://www.inkscape.org/namespaces/inkscape"
   width="640px"
   height="480px"
   id="svg2383"
   sodipodi:version="0.32"
   inkscape:version="0.46"
   sodipodi:docname="base_female.svg"
   inkscape:output_extension="org.inkscape.output.svg.inkscape">
  <defs
     id="defs2385">
    <inkscape:perspective
       sodipodi:type="inkscape:persp3d"
       inkscape:vp_x="0 : 240 : 1"
       inkscape:vp_y="0 : 1000 : 0"
       inkscape:vp_z="640 : 240 : 1"
       inkscape:persp3d-origin="320 : 160 : 1"
       id="perspective2391" />
    <inkscape:perspective
       id="perspective2433"
       inkscape:persp3d-origin="372.04724 : 350.78739 : 1"
       inkscape:vp_z="744.09448 : 526.18109 : 1"
       inkscape:vp_y="0 : 1000 : 0"
       inkscape:vp_x="0 : 526.18109 : 1"
       sodipodi:type="inkscape:persp3d" />
  </defs>
  <sodipodi:namedview
     id="base"
     pagecolor="#ffffff"
     bordercolor="#666666"
     borderopacity="1.0"
     inkscape:pageopacity="0.0"
     inkscape:pageshadow="2"
     inkscape:zoom="5.6568542"
     inkscape:cx="100.91175"
     inkscape:cy="32.897697"
     inkscape:current-layer="layer1"
     inkscape:document-units="px"
     showgrid="false"
     inkscape:window-width="1024"
     inkscape:window-height="569"
     inkscape:window-x="0"
     inkscape:window-y="0"
     showguides="true"
     inkscape:guide-bbox="true"
     inkscape:snap-bbox="true"
     inkscape:object-paths="true"
     inkscape:object-nodes="true"
     inkscape:bbox-paths="true"
     inkscape:bbox-nodes="true">
    <sodipodi:guide
       orientation="0,1"
       position="64,0"
       id="guide2439" />
    <sodipodi:guide
       orientation="0,1"
       position="0,64"
       id="guide2441" />
    <sodipodi:guide
       orientation="1,0"
       position="64,0"
       id="guide2443" />
    <sodipodi:guide
       orientation="1,0"
       position="32,32"
       id="guide2445" />
  </sodipodi:namedview>
  <metadata
     id="metadata2388">
    <rdf:RDF>
      <cc:Work
         rdf:about="">
        <dc:format>image/svg+xml</dc:format>
        <dc:type
           rdf:resource="http://purl.org/dc/dcmitype/StillImage" />
      </cc:Work>
    </rdf:RDF>
  </metadata>
  <g
     id="layer1"
     inkscape:label="Layer 1"
     inkscape:groupmode="layer">
    <image
       y="416"
       x="0"
       id="image2435"
       height="59"
       width="33"
       sodipodi:absref="/home/bjorn/eruta/share/image/vector/pastedpic_03302010_023640.png"
       xlink:href="pastedpic_03302010_023640.png"
       style="fill:#f2c09d;fill-opacity:1" />
    <rect
       style="fill:#f2c09d;fill-opacity:1;stroke:#805333;stroke-width:1;stroke-linejoin:round;stroke-miterlimit:4;stroke-dasharray:none;stroke-opacity:1"
       id="rect3420"
       width="12"
       height="10.000001"
       x="52.5"
       y="431.5"
       ry="3.0000002"
       rx="2" />
    <rect
       style="fill:#f2c09d;fill-opacity:1;stroke:#805333;stroke-width:1;stroke-linejoin:round;stroke-miterlimit:4;stroke-dasharray:none;stroke-opacity:1"
       id="rect3418"
       width="5.9999995"
       height="5"
       x="13.5"
       y="428.5"
       ry="0.74852651"
       rx="1.9967257" />
    <path
       sodipodi:type="arc"
       style="fill:#f2c09d;fill-opacity:1;stroke:#805333;stroke-width:4.51197147;stroke-linejoin:round;stroke-miterlimit:4;stroke-dasharray:none;stroke-opacity:1"
       id="path3430"
       sodipodi:cx="16.625"
       sodipodi:cy="423.625"
       sodipodi:rx="6.625"
       sodipodi:ry="7.125"
       d="M 23.25,423.625 A 6.625,7.125 0 1 1 10,423.625 A 6.625,7.125 0 1 1 23.25,423.625 z"
       transform="matrix(0.1549332,0,0,0.2844115,19.924236,305.01618)" />
    <path
       sodipodi:type="arc"
       style="fill:#f2c09d;fill-opacity:1;stroke:#805333;stroke-width:4.51197147;stroke-linejoin:round;stroke-miterlimit:4;stroke-dasharray:none;stroke-opacity:1"
       id="path3432"
       sodipodi:cx="16.625"
       sodipodi:cy="423.625"
       sodipodi:rx="6.625"
       sodipodi:ry="7.125"
       d="M 23.25,423.625 A 6.625,7.125 0 1 1 10,423.625 A 6.625,7.125 0 1 1 23.25,423.625 z"
       transform="matrix(0.1549332,0,0,0.2844115,7.9242358,305.01618)" />
    <path
       sodipodi:type="arc"
       style="fill:#f2c09d;fill-opacity:1;stroke:#805333;stroke-width:1;stroke-linejoin:round;stroke-miterlimit:4;stroke-dasharray:none;stroke-opacity:1"
       id="path3263"
       sodipodi:cx="16.625"
       sodipodi:cy="423.625"
       sodipodi:rx="6.625"
       sodipodi:ry="7.125"
       d="M 23.25,423.625 A 6.625,7.125 0 1 1 10,423.625 A 6.625,7.125 0 1 1 23.25,423.625 z"
       transform="matrix(0.9096501,0,0,0.9861659,1.3770668,5.7354634)" />
    <rect
       style="fill:#f2c09d;fill-opacity:1;stroke:#805333;stroke-width:1;stroke-linejoin:round;stroke-miterlimit:4;stroke-dasharray:none;stroke-opacity:1"
       id="rect3416"
       width="6"
       height="20"
       x="62.5"
       y="448.25"
       ry="3"
       rx="2" />
    <rect
       style="fill:#f2c09d;fill-opacity:1;stroke:#805333;stroke-width:1.00000012;stroke-linejoin:round;stroke-miterlimit:4;stroke-dasharray:none;stroke-opacity:1"
       id="rect3422"
       width="3.9999986"
       height="20"
       x="-93.039429"
       y="424.02011"
       ry="3"
       rx="1.9999993"
       transform="matrix(0.9659258,-0.258819,0.258819,0.9659258,0,0)" />
    <rect
       style="fill:#f2c09d;fill-opacity:1;stroke:#805333;stroke-width:1.00000012;stroke-linejoin:round;stroke-miterlimit:4;stroke-dasharray:none;stroke-opacity:1"
       id="rect3424"
       width="3.9999974"
       height="20"
       x="-124.71274"
       y="415.53329"
       ry="3"
       rx="1.9999987"
       transform="matrix(-0.9659258,-0.258819,-0.258819,0.9659258,0,0)" />
    <path
       sodipodi:type="arc"
       style="fill:#000000;fill-opacity:1;stroke:#ffffff;stroke-width:5.19868708;stroke-linejoin:round;stroke-miterlimit:4;stroke-dasharray:none;stroke-opacity:1"
       id="path3434"
       sodipodi:cx="16.625"
       sodipodi:cy="423.625"
       sodipodi:rx="6.625"
       sodipodi:ry="7.125"
       d="M 23.25,423.625 A 6.625,7.125 0 1 1 10,423.625 A 6.625,7.125 0 1 1 23.25,423.625 z"
       transform="matrix(0.1549332,0,0,0.2142361,15.924236,333.24423)" />
    <path
       sodipodi:type="arc"
       style="fill:#000000;fill-opacity:1;stroke:#ffffff;stroke-width:5.19868708;stroke-linejoin:round;stroke-miterlimit:4;stroke-dasharray:none;stroke-opacity:1"
       id="path3436"
       sodipodi:cx="16.625"
       sodipodi:cy="423.625"
       sodipodi:rx="6.625"
       sodipodi:ry="7.125"
       d="M 23.25,423.625 A 6.625,7.125 0 1 1 10,423.625 A 6.625,7.125 0 1 1 23.25,423.625 z"
       transform="matrix(0.1549332,0,0,0.2142361,11.924236,333.24423)" />
    <path
       style="fill:#f2c09d;fill-opacity:1;stroke:#805333;stroke-width:0.99999982;stroke-linejoin:round;stroke-miterlimit:4;stroke-opacity:1"
       d="M 18.900002,446.49998 L 20.100002,446.49998 C 21.429602,446.49998 22.500003,448.17248 22.500003,450.25 L 21,467.74998 C 21,469.82748 20.3296,471.49998 19,471.49998 L 19,471.5 C 17.670399,471.5 16.500002,469.82748 16.500002,467.74998 L 16.500002,450.25 C 16.500002,448.17248 17.570402,446.49998 18.900002,446.49998 z"
       id="rect3447"
       sodipodi:nodetypes="ccccccccc" />
    <path
       style="fill:#f2c09d;fill-opacity:1;stroke:#805333;stroke-width:0.99999982;stroke-linejoin:round;stroke-miterlimit:4;stroke-opacity:1"
       d="M 14.100001,446.49998 L 12.900001,446.49998 C 11.570401,446.49998 10.5,448.17248 10.5,450.25 L 12.000003,467.74998 C 12.000003,469.82748 12.670403,471.49998 14.000003,471.49998 L 14.000003,471.5 C 15.329604,471.5 16.500001,469.82748 16.500001,467.74998 L 16.500001,450.25 C 16.500001,448.17248 15.429601,446.49998 14.100001,446.49998 z"
       id="path3452"
       sodipodi:nodetypes="ccccccccc" />
    <path
       style="fill:#f2c09d;fill-opacity:1;stroke:#805333;stroke-width:1;stroke-linejoin:round;stroke-miterlimit:4;stroke-opacity:1"
       d="M 12.524852,433.5 C 11.42147,433.5 10.319565,434.85083 10.524852,436.5 L 11.024852,440.5 C 11.120539,441.2687 11.765357,441.96752 12.524852,442.5 C 11.765357,443.03248 11.120539,443.7313 11.024852,444.5 L 10.524852,448.5 C 10.319565,450.14917 11.42147,451.5 12.524852,451.5 L 20.462352,451.5 C 21.565734,451.5 22.667638,450.14917 22.462352,448.5 L 21.962352,444.5 C 21.866665,443.7313 21.221847,443.03248 20.462352,442.5 C 21.221847,441.96752 21.866665,441.2687 21.962352,440.5 L 22.462352,436.5 C 22.667638,434.85083 21.565734,433.5 20.462352,433.5 L 12.524852,433.5 z"
       id="rect3438" />
    <path
       sodipodi:type="arc"
       style="fill:#f2c09d;fill-opacity:1;stroke:#805333;stroke-width:2.15013933;stroke-linejoin:round;stroke-miterlimit:4;stroke-dasharray:none;stroke-opacity:1"
       id="path3426"
       sodipodi:cx="16.625"
       sodipodi:cy="423.625"
       sodipodi:rx="6.625"
       sodipodi:ry="7.125"
       d="M 23.25,423.625 A 6.625,7.125 0 1 1 10,423.625 A 6.625,7.125 0 1 1 23.25,423.625 z"
       transform="matrix(0.4568199,0,0,0.4247624,5.9053688,258.56003)" />
    <path
       sodipodi:type="arc"
       style="fill:#f2c09d;fill-opacity:1;stroke:#805333;stroke-width:2.15013933;stroke-linejoin:round;stroke-miterlimit:4;stroke-dasharray:none;stroke-opacity:1"
       id="path3428"
       sodipodi:cx="16.625"
       sodipodi:cy="423.625"
       sodipodi:rx="6.625"
       sodipodi:ry="7.125"
       d="M 23.25,423.625 A 6.625,7.125 0 1 1 10,423.625 A 6.625,7.125 0 1 1 23.25,423.625 z"
       transform="matrix(0.4568199,0,0,0.4247624,11.905369,258.56003)" />
    <path
       style="fill:#f2c09d;fill-opacity:1;stroke:#805333;stroke-width:1;stroke-linejoin:round;stroke-miterlimit:4;stroke-opacity:1"
       d="M 70.016674,423 L 77.983325,423 C 79.086706,423 80.180274,424.35083 79.974988,426 L 79.477072,430 C 79.271785,431.64917 76.597127,433 75.493746,433 L 72.506252,433 C 71.402871,433 68.728213,431.64917 68.522926,430 L 68.025011,426 C 67.819724,424.35083 68.913292,423 70.016674,423 z"
       id="path3443"
       sodipodi:nodetypes="cssssssss" />
    <path
       style="fill:#f2c09d;fill-opacity:1;stroke:#805333;stroke-width:1;stroke-linejoin:round;stroke-miterlimit:4;stroke-opacity:1"
       d="M 79.75,448.5 L 80.75,448.5 C 81.858,448.5 82.75,449.838 82.75,451.5 L 81.75,465.5 C 81.75,467.162 81.358,468.5 80.25,468.5 L 79.25,468.5 C 78.142,468.5 77.75,467.162 77.75,465.5 L 77.75,451.5 C 77.75,449.838 78.642,448.5 79.75,448.5 z"
       id="path3450"
       sodipodi:nodetypes="ccccccccc" />
    <path
       sodipodi:type="arc"
       style="fill:#800000;fill-opacity:1;stroke:#ff0000;stroke-width:6.33967972;stroke-linejoin:round;stroke-miterlimit:4;stroke-dasharray:none;stroke-opacity:1"
       id="path3454"
       sodipodi:cx="16.625"
       sodipodi:cy="423.625"
       sodipodi:rx="6.625"
       sodipodi:ry="7.125"
       d="M 23.25,423.625 A 6.625,7.125 0 1 1 10,423.625 L 16.625,423.625 z"
       transform="matrix(0.1549332,0,0,0.1440606,13.924236,366.47233)"
       sodipodi:start="0"
       sodipodi:end="3.1415927" />
    <path
       style="fill:#f2c09d;fill-opacity:1;stroke:#805333;stroke-width:1;stroke-linejoin:round;stroke-miterlimit:4;stroke-dasharray:none;stroke-opacity:1"
       d="M 103.5,428.5 C 102.39381,428.5 101.5,428.83531 101.5,429.25 L 101.5,432.75 C 101.5,433.16468 101.89381,433.5 103,433.5 L 100.53125,433.5 C 98.736699,433.70777 97.541616,434.20912 96.28125,435.5 L 94.65625,449.03125 C 94.226093,450.63661 92.742255,452.18198 93.8125,452.46875 C 94.882742,452.75552 96.069843,451.66787 96.5,450.0625 L 99.0625,440.5625 C 99.186321,441.30456 99.79406,441.98316 100.53125,442.5 C 99.771755,443.03248 99.126937,443.7313 99.03125,444.5 L 98.53125,448.5 C 98.487095,448.85472 98.498697,449.18336 98.5625,449.5 C 98.530634,449.74456 98.5,449.99031 98.5,450.25 L 100,467.75 C 99.999999,469.82751 100.6704,471.5 102,471.5 C 103.32961,471.5 104.5,452.0775 104.5,450 C 104.5,452.0775 105.6704,471.5 107,471.5 C 108.3296,471.5 109,469.82751 109,467.75 L 110.5,450.25 C 110.5,449.99031 110.46937,449.74456 110.4375,449.5 C 110.50119,449.18355 110.51287,448.85447 110.46875,448.5 L 109.96875,444.5 C 109.87307,443.7313 109.22825,443.03248 108.46875,442.5 C 109.07952,442.0718 109.576,441.53068 109.8125,440.9375 L 112.28125,450.0625 C 112.71141,451.66787 113.89851,452.75553 114.96875,452.46875 C 116.039,452.18198 114.55516,450.63662 114.125,449.03125 L 112.5,435.5 C 111.70564,433.83372 110.07299,433.81336 108.46875,433.5 L 106,433.5 C 107.10619,433.5 107.5,433.16469 107.5,432.75 L 107.5,429.25 C 107.5,428.83532 106.60619,428.5 105.5,428.5 L 103.5,428.5 z"
       id="rect3456"
       sodipodi:nodetypes="cccccccsccccccccsssccccccccscccccccc" />
    <path
       sodipodi:type="arc"
       style="fill:#f2c09d;fill-opacity:1;stroke:#805333;stroke-width:4.51197147;stroke-linejoin:round;stroke-miterlimit:4;stroke-dasharray:none;stroke-opacity:1"
       id="path3458"
       sodipodi:cx="16.625"
       sodipodi:cy="423.625"
       sodipodi:rx="6.625"
       sodipodi:ry="7.125"
       d="M 23.25,423.625 A 6.625,7.125 0 1 1 10,423.625 A 6.625,7.125 0 1 1 23.25,423.625 z"
       transform="matrix(0.1549332,0,0,0.2844115,107.92427,306.01618)" />
    <path
       sodipodi:type="arc"
       style="fill:#f2c09d;fill-opacity:1;stroke:#805333;stroke-width:4.51197147;stroke-linejoin:round;stroke-miterlimit:4;stroke-dasharray:none;stroke-opacity:1"
       id="path3460"
       sodipodi:cx="16.625"
       sodipodi:cy="423.625"
       sodipodi:rx="6.625"
       sodipodi:ry="7.125"
       d="M 23.25,423.625 A 6.625,7.125 0 1 1 10,423.625 A 6.625,7.125 0 1 1 23.25,423.625 z"
       transform="matrix(0.1549332,0,0,0.2844115,95.924263,306.01618)" />
    <path
       sodipodi:type="arc"
       style="fill:#f2c09d;fill-opacity:1;stroke:#805333;stroke-width:1;stroke-linejoin:round;stroke-miterlimit:4;stroke-dasharray:none;stroke-opacity:1"
       id="path3462"
       sodipodi:cx="16.625"
       sodipodi:cy="423.625"
       sodipodi:rx="6.625"
       sodipodi:ry="7.125"
       d="M 23.25,423.625 A 6.625,7.125 0 1 1 10,423.625 A 6.625,7.125 0 1 1 23.25,423.625 z"
       transform="matrix(0.9096501,0,0,0.9861659,89.377094,6.7354708)" />
    <path
       sodipodi:type="arc"
       style="fill:#000000;fill-opacity:1;stroke:#ffffff;stroke-width:5.19868708;stroke-linejoin:round;stroke-miterlimit:4;stroke-dasharray:none;stroke-opacity:1"
       id="path3468"
       sodipodi:cx="16.625"
       sodipodi:cy="423.625"
       sodipodi:rx="6.625"
       sodipodi:ry="7.125"
       d="M 23.25,423.625 A 6.625,7.125 0 1 1 10,423.625 A 6.625,7.125 0 1 1 23.25,423.625 z"
       transform="matrix(0.1549332,0,0,0.2142361,103.92427,334.24423)" />
    <path
       sodipodi:type="arc"
       style="fill:#000000;fill-opacity:1;stroke:#ffffff;stroke-width:5.19868708;stroke-linejoin:round;stroke-miterlimit:4;stroke-dasharray:none;stroke-opacity:1"
       id="path3470"
       sodipodi:cx="16.625"
       sodipodi:cy="423.625"
       sodipodi:rx="6.625"
       sodipodi:ry="7.125"
       d="M 23.25,423.625 A 6.625,7.125 0 1 1 10,423.625 A 6.625,7.125 0 1 1 23.25,423.625 z"
       transform="matrix(0.1549332,0,0,0.2142361,99.924263,334.24423)" />
    <path
       sodipodi:type="arc"
       style="fill:#f2c09d;fill-opacity:1;stroke:#805333;stroke-width:2.15013933;stroke-linejoin:round;stroke-miterlimit:4;stroke-dasharray:none;stroke-opacity:1"
       id="path3478"
       sodipodi:cx="16.625"
       sodipodi:cy="423.625"
       sodipodi:rx="6.625"
       sodipodi:ry="7.125"
       d="M 23.024259,421.78091 A 6.625,7.125 0 1 1 10.887582,420.0625"
       transform="matrix(0.4568199,0,0,0.4247624,93.905396,258.56003)"
       sodipodi:start="6.0213859"
       sodipodi:end="9.9483767"
       sodipodi:open="true" />
    <path
       sodipodi:type="arc"
       style="fill:#f2c09d;fill-opacity:1;stroke:#805333;stroke-width:2.15013933;stroke-linejoin:round;stroke-miterlimit:4;stroke-dasharray:none;stroke-opacity:1"
       id="path3480"
       sodipodi:cx="16.625"
       sodipodi:cy="423.625"
       sodipodi:rx="6.625"
       sodipodi:ry="7.125"
       d="M 22.362418,420.0625 A 6.625,7.125 0 1 1 10,423.625"
       transform="matrix(0.4568199,0,0,0.4247624,99.905396,258.56003)"
       sodipodi:start="5.7595865"
       sodipodi:end="9.424778"
       sodipodi:open="true" />
    <path
       sodipodi:type="arc"
       style="fill:#800000;fill-opacity:1;stroke:#ff0000;stroke-width:6.33967972;stroke-linejoin:round;stroke-miterlimit:4;stroke-dasharray:none;stroke-opacity:1"
       id="path3482"
       sodipodi:cx="16.625"
       sodipodi:cy="423.625"
       sodipodi:rx="6.625"
       sodipodi:ry="7.125"
       d="M 23.25,423.625 A 6.625,7.125 0 1 1 10,423.625 L 16.625,423.625 z"
       transform="matrix(0.1549332,0,0,0.1440606,101.92427,367.47233)"
       sodipodi:start="0"
       sodipodi:end="3.1415927" />
  </g>
</svg>
