/* XPM */
static char * armorboss_xpm[] = {
"8 24 3 1",
" 	c None",
".	c #000000",
"+	c #FFFFFF",
"....+...",
"....+...",
"...+....",
"...++...",
"....+...",
"..++++..",
"..++++..",
"+.++++.+",
"++++++++",
".++..++.",
".+.++.+.",
"++++++++",
"+++..+++",
"++.++.++",
".++++++.",
".++++++.",
"++++++++",
"+.++++.+",
"..++++..",
"...++...",
".++++++.",
".+.++.+.",
"..++++..",
"...++..."};
