/* XPM */
static char * boss1_xpm[] = {
"8 24 3 1",
" 	c None",
".	c #000000",
"+	c #FFFFFF",
"...+....",
"...+....",
"...+.+..",
"..+++...",
".++++...",
"..+++...",
"+.+++.+.",
".+++++..",
".+++++..",
".+++++..",
".+++++.+",
"+++++++.",
"+.+++.+.",
"++.+.++.",
"+++++++.",
".+++++..",
"..+++...",
"..+.+...",
"........",
".+...+..",
".+...+..",
"+.+.+.+.",
"+.+.+.+.",
".+...+.."};
