/* XPM */
static char * fish_xpm[] = {
"8 8 3 1",
" 	c None",
".	c #FFFFFF",
"+	c #000000",
".+++..++",
"..+....+",
".....+..",
"........",
".......+",
"......+.",
"..+....+",
".+++..++"};
