/* XPM */
static char * scorpio_xpm[] = {
"8 8 2 1",
" 	c #000000",
".	c #FFFFFF",
" ..     ",
".  .   .",
".     . ",
" ..  . .",
"  ....  ",
"   .....",
"   .  . ",
"  . .   "};
