/* XPM */
static char * shield_xpm[] = {
"8 8 2 1",
" 	c #FFFFFF",
".	c #000000",
"       .",
" .. .. .",
"  . .  .",
" .   . .",
"  . .  .",
". . . ..",
"..   ...",
"... ...."};
