/* XPM */
static char * treant_xpm[] = {
"8 16 3 1",
" 	c None",
".	c #000000",
"+	c #FFFFFF",
".+..+...",
"..++....",
"...+..+.",
"+.++++..",
".++++...",
"..+++.+.",
"+.++++..",
".++++...",
"..+++...",
"..+++...",
"..+++...",
"..+++...",
"..+++...",
"..+++...",
".+++++..",
"+.+.+.+."};
