/* XPM */
static char * victory_xpm[] = {
"8 64 2 1",
" 	c #000000",
".	c #FFFFFF",
" .. ..  ",
"....... ",
"....... ",
" .....  ",
"  ...   ",
"   .    ",
"        ",
"        ",
"        ",
"....... ",
"   .    ",
"   .    ",
"   .    ",
"   .    ",
"        ",
".     . ",
".     . ",
"....... ",
".     . ",
".     . ",
"        ",
"....... ",
".       ",
"....... ",
".       ",
"....... ",
"        ",
"        ",
"        ",
"        ",
"....... ",
".       ",
"....... ",
".       ",
"....... ",
"        ",
"        ",
"..    . ",
". .   . ",
".  .  . ",
".   . . ",
".    .. ",
"        ",
"        ",
".....   ",
".    .  ",
".     . ",
".     . ",
".    .  ",
".....   ",
"        ",
"        ",
"        ",
" .. ..  ",
"....... ",
"....... ",
" .....  ",
"  ...   ",
"   .    ",
"        ",
"        ",
"        ",
"        ",
"        "};
